SplineFontDB: 3.2
FontName: XBFWINLucidaTypewriter19Bold
FullName: XBF WIN Lucida Typewriter 19 Bold
FamilyName: XBF WIN Lucida Typewriter 19
Weight: Bold
Copyright: Copyright Bigelow & Holmes 1986, 1985.
UComments: "2022-3-6: Created with FontForge (http://fontforge.org)"
Version: 001.000
ItalicAngle: 0
UnderlinePosition: -100
UnderlineWidth: 50
Ascent: 792
Descent: 208
InvalidEm: 0
LayerCount: 2
Layer: 0 0 "Back" 1
Layer: 1 0 "Fore" 0
XUID: [1021 753 -1593291778 1356948]
StyleMap: 0x0020
FSType: 0
OS2Version: 0
OS2_WeightWidthSlopeOnly: 0
OS2_UseTypoMetrics: 1
CreationTime: 1646613531
ModificationTime: 1646613531
PfmFamily: 48
TTFWeight: 700
TTFWidth: 5
LineGap: 0
VLineGap: 90
Panose: 2 0 8 9 0 0 0 0 0 0
OS2TypoAscent: 792
OS2TypoAOffset: 0
OS2TypoDescent: -208
OS2TypoDOffset: 0
OS2TypoLinegap: 0
OS2WinAscent: 792
OS2WinAOffset: 0
OS2WinDescent: 208
OS2WinDOffset: 0
HheadAscent: 792
HheadAOffset: 0
HheadDescent: -208
HheadDOffset: 0
OS2SubXSize: 650
OS2SubYSize: 700
OS2SubXOff: 0
OS2SubYOff: 140
OS2SupXSize: 650
OS2SupYSize: 700
OS2SupXOff: 0
OS2SupYOff: 480
OS2StrikeYSize: 49
OS2StrikeYPos: 258
OS2Vendor: 'PfEd'
DEI: 91125
Encoding: UnicodeBmp
UnicodeInterp: none
NameList: AGL For New Fonts
DisplaySize: 19
AntiAlias: 1
FitToEm: 0
BeginChars: 65536 881

StartChar: char0
Encoding: 0 0 0
Width: 524
Flags: HW
LayerCount: 2
Back
Fore
SplineSet
48 571 m 1
 48 619 l 1
 95 619 l 1
 95 571 l 1
 48 571 l 1
143 571 m 1
 143 619 l 1
 190 619 l 1
 190 571 l 1
 143 571 l 1
238 571 m 1
 238 619 l 1
 286 619 l 1
 286 571 l 1
 238 571 l 1
333 571 m 1
 333 619 l 1
 381 619 l 1
 381 571 l 1
 333 571 l 1
429 571 m 1
 429 619 l 1
 476 619 l 1
 476 571 l 1
 429 571 l 1
48 476 m 1
 48 524 l 1
 95 524 l 1
 95 476 l 1
 48 476 l 1
429 476 m 1
 429 524 l 1
 476 524 l 1
 476 476 l 1
 429 476 l 1
48 381 m 1
 48 429 l 1
 95 429 l 1
 95 381 l 1
 48 381 l 1
429 381 m 1
 429 429 l 1
 476 429 l 1
 476 381 l 1
 429 381 l 1
48 286 m 1
 48 333 l 1
 95 333 l 1
 95 286 l 1
 48 286 l 1
429 286 m 1
 429 333 l 1
 476 333 l 1
 476 286 l 1
 429 286 l 1
48 190 m 1
 48 238 l 1
 95 238 l 1
 95 190 l 1
 48 190 l 1
429 190 m 1
 429 238 l 1
 476 238 l 1
 476 190 l 1
 429 190 l 1
48 95 m 1
 48 143 l 1
 95 143 l 1
 95 95 l 1
 48 95 l 1
429 95 m 1
 429 143 l 1
 476 143 l 1
 476 95 l 1
 429 95 l 1
48 0 m 1
 48 48 l 1
 95 48 l 1
 95 0 l 1
 48 0 l 1
143 0 m 1
 143 48 l 1
 190 48 l 1
 190 0 l 1
 143 0 l 1
238 0 m 1
 238 48 l 1
 286 48 l 1
 286 0 l 1
 238 0 l 1
333 0 m 1
 333 48 l 1
 381 48 l 1
 381 0 l 1
 333 0 l 1
429 0 m 1
 429 48 l 1
 476 48 l 1
 476 0 l 1
 429 0 l 1
EndSplineSet
EndChar

StartChar: exclam
Encoding: 33 33 2
Width: 524
Flags: HW
LayerCount: 2
Back
Fore
SplineSet
190 619 m 1
 190 667 l 1
 333 667 l 1
 333 619 l 1
 190 619 l 1
190 571 m 1
 190 619 l 1
 333 619 l 1
 333 571 l 1
 190 571 l 1
190 524 m 1
 190 571 l 1
 333 571 l 1
 333 524 l 1
 190 524 l 1
190 476 m 1
 190 524 l 1
 333 524 l 1
 333 476 l 1
 190 476 l 1
190 429 m 1
 190 476 l 1
 333 476 l 1
 333 429 l 1
 190 429 l 1
190 381 m 1
 190 429 l 1
 333 429 l 1
 333 381 l 1
 190 381 l 1
190 333 m 1
 190 381 l 1
 286 381 l 1
 286 333 l 1
 190 333 l 1
190 286 m 1
 190 333 l 1
 286 333 l 1
 286 286 l 1
 190 286 l 1
190 238 m 1
 190 286 l 1
 286 286 l 1
 286 238 l 1
 190 238 l 1
190 190 m 1
 190 238 l 1
 286 238 l 1
 286 190 l 1
 190 190 l 1
190 48 m 1
 190 95 l 1
 333 95 l 1
 333 48 l 1
 190 48 l 1
190 0 m 1
 190 48 l 1
 333 48 l 1
 333 0 l 1
 190 0 l 1
EndSplineSet
EndChar

StartChar: quotedbl
Encoding: 34 34 3
Width: 524
Flags: HW
LayerCount: 2
Back
Fore
SplineSet
95 619 m 1
 95 667 l 1
 190 667 l 1
 190 619 l 1
 95 619 l 1
333 619 m 1
 333 667 l 1
 429 667 l 1
 429 619 l 1
 333 619 l 1
95 571 m 1
 95 619 l 1
 190 619 l 1
 190 571 l 1
 95 571 l 1
333 571 m 1
 333 619 l 1
 429 619 l 1
 429 571 l 1
 333 571 l 1
95 524 m 1
 95 571 l 1
 190 571 l 1
 190 524 l 1
 95 524 l 1
333 524 m 1
 333 571 l 1
 429 571 l 1
 429 524 l 1
 333 524 l 1
95 476 m 1
 95 524 l 1
 190 524 l 1
 190 476 l 1
 95 476 l 1
333 476 m 1
 333 524 l 1
 429 524 l 1
 429 476 l 1
 333 476 l 1
95 429 m 1
 95 476 l 1
 190 476 l 1
 190 429 l 1
 95 429 l 1
333 429 m 1
 333 476 l 1
 429 476 l 1
 429 429 l 1
 333 429 l 1
EndSplineSet
EndChar

StartChar: numbersign
Encoding: 35 35 4
Width: 524
Flags: HW
LayerCount: 2
Back
Fore
SplineSet
238 619 m 1
 238 667 l 1
 333 667 l 1
 333 619 l 1
 238 619 l 1
381 619 m 1
 381 667 l 1
 476 667 l 1
 476 619 l 1
 381 619 l 1
238 571 m 1
 238 619 l 1
 333 619 l 1
 333 571 l 1
 238 571 l 1
381 571 m 1
 381 619 l 1
 476 619 l 1
 476 571 l 1
 381 571 l 1
190 524 m 1
 190 571 l 1
 333 571 l 1
 333 524 l 1
 190 524 l 1
381 524 m 1
 381 571 l 1
 476 571 l 1
 476 524 l 1
 381 524 l 1
190 476 m 1
 190 524 l 1
 286 524 l 1
 286 476 l 1
 190 476 l 1
333 476 m 1
 333 524 l 1
 476 524 l 1
 476 476 l 1
 333 476 l 1
95 429 m 1
 95 476 l 1
 524 476 l 1
 524 429 l 1
 95 429 l 1
95 381 m 1
 95 429 l 1
 524 429 l 1
 524 381 l 1
 95 381 l 1
143 333 m 1
 143 381 l 1
 286 381 l 1
 286 333 l 1
 143 333 l 1
333 333 m 1
 333 381 l 1
 429 381 l 1
 429 333 l 1
 333 333 l 1
143 286 m 1
 143 333 l 1
 238 333 l 1
 238 286 l 1
 143 286 l 1
286 286 m 1
 286 333 l 1
 381 333 l 1
 381 286 l 1
 286 286 l 1
48 238 m 1
 48 286 l 1
 476 286 l 1
 476 238 l 1
 48 238 l 1
48 190 m 1
 48 238 l 1
 476 238 l 1
 476 190 l 1
 48 190 l 1
95 143 m 1
 95 190 l 1
 238 190 l 1
 238 143 l 1
 95 143 l 1
286 143 m 1
 286 190 l 1
 381 190 l 1
 381 143 l 1
 286 143 l 1
95 95 m 1
 95 143 l 1
 190 143 l 1
 190 95 l 1
 95 95 l 1
238 95 m 1
 238 143 l 1
 381 143 l 1
 381 95 l 1
 238 95 l 1
95 48 m 1
 95 95 l 1
 190 95 l 1
 190 48 l 1
 95 48 l 1
238 48 m 1
 238 95 l 1
 333 95 l 1
 333 48 l 1
 238 48 l 1
95 0 m 1
 95 48 l 1
 190 48 l 1
 190 0 l 1
 95 0 l 1
238 0 m 1
 238 48 l 1
 333 48 l 1
 333 0 l 1
 238 0 l 1
EndSplineSet
EndChar

StartChar: dollar
Encoding: 36 36 5
Width: 524
Flags: HW
LayerCount: 2
Back
Fore
SplineSet
238 714 m 1
 238 762 l 1
 333 762 l 1
 333 714 l 1
 238 714 l 1
238 667 m 1
 238 714 l 1
 333 714 l 1
 333 667 l 1
 238 667 l 1
143 619 m 1
 143 667 l 1
 429 667 l 1
 429 619 l 1
 143 619 l 1
95 571 m 1
 95 619 l 1
 429 619 l 1
 429 571 l 1
 95 571 l 1
48 524 m 1
 48 571 l 1
 190 571 l 1
 190 524 l 1
 48 524 l 1
381 524 m 1
 381 571 l 1
 429 571 l 1
 429 524 l 1
 381 524 l 1
48 476 m 1
 48 524 l 1
 190 524 l 1
 190 476 l 1
 48 476 l 1
48 429 m 1
 48 476 l 1
 238 476 l 1
 238 429 l 1
 48 429 l 1
48 381 m 1
 48 429 l 1
 286 429 l 1
 286 381 l 1
 48 381 l 1
95 333 m 1
 95 381 l 1
 381 381 l 1
 381 333 l 1
 95 333 l 1
190 286 m 1
 190 333 l 1
 429 333 l 1
 429 286 l 1
 190 286 l 1
238 238 m 1
 238 286 l 1
 476 286 l 1
 476 238 l 1
 238 238 l 1
333 190 m 1
 333 238 l 1
 476 238 l 1
 476 190 l 1
 333 190 l 1
333 143 m 1
 333 190 l 1
 476 190 l 1
 476 143 l 1
 333 143 l 1
48 95 m 1
 48 143 l 1
 95 143 l 1
 95 95 l 1
 48 95 l 1
286 95 m 1
 286 143 l 1
 476 143 l 1
 476 95 l 1
 286 95 l 1
48 48 m 1
 48 95 l 1
 429 95 l 1
 429 48 l 1
 48 48 l 1
95 0 m 1
 95 48 l 1
 429 48 l 1
 429 0 l 1
 95 0 l 1
238 -48 m 1
 238 0 l 1
 333 0 l 1
 333 -48 l 1
 238 -48 l 1
238 -95 m 1
 238 -48 l 1
 333 -48 l 1
 333 -95 l 1
 238 -95 l 1
238 -143 m 1
 238 -95 l 1
 333 -95 l 1
 333 -143 l 1
 238 -143 l 1
EndSplineSet
EndChar

StartChar: percent
Encoding: 37 37 6
Width: 524
Flags: HW
LayerCount: 2
Back
Fore
SplineSet
48 619 m 1
 48 667 l 1
 238 667 l 1
 238 619 l 1
 48 619 l 1
476 619 m 1
 476 667 l 1
 571 667 l 1
 571 619 l 1
 476 619 l 1
0 571 m 1
 0 619 l 1
 286 619 l 1
 286 571 l 1
 0 571 l 1
429 571 m 1
 429 619 l 1
 524 619 l 1
 524 571 l 1
 429 571 l 1
0 524 m 1
 0 571 l 1
 95 571 l 1
 95 524 l 1
 0 524 l 1
190 524 m 1
 190 571 l 1
 286 571 l 1
 286 524 l 1
 190 524 l 1
381 524 m 1
 381 571 l 1
 524 571 l 1
 524 524 l 1
 381 524 l 1
0 476 m 1
 0 524 l 1
 95 524 l 1
 95 476 l 1
 0 476 l 1
190 476 m 1
 190 524 l 1
 286 524 l 1
 286 476 l 1
 190 476 l 1
381 476 m 1
 381 524 l 1
 476 524 l 1
 476 476 l 1
 381 476 l 1
0 429 m 1
 0 476 l 1
 95 476 l 1
 95 429 l 1
 0 429 l 1
190 429 m 1
 190 476 l 1
 286 476 l 1
 286 429 l 1
 190 429 l 1
333 429 m 1
 333 476 l 1
 429 476 l 1
 429 429 l 1
 333 429 l 1
0 381 m 1
 0 429 l 1
 429 429 l 1
 429 381 l 1
 0 381 l 1
48 333 m 1
 48 381 l 1
 238 381 l 1
 238 333 l 1
 48 333 l 1
286 333 m 1
 286 381 l 1
 381 381 l 1
 381 333 l 1
 286 333 l 1
238 286 m 1
 238 333 l 1
 333 333 l 1
 333 286 l 1
 238 286 l 1
381 286 m 1
 381 333 l 1
 571 333 l 1
 571 286 l 1
 381 286 l 1
190 238 m 1
 190 286 l 1
 619 286 l 1
 619 238 l 1
 190 238 l 1
190 190 m 1
 190 238 l 1
 286 238 l 1
 286 190 l 1
 190 190 l 1
333 190 m 1
 333 238 l 1
 429 238 l 1
 429 190 l 1
 333 190 l 1
524 190 m 1
 524 238 l 1
 619 238 l 1
 619 190 l 1
 524 190 l 1
143 143 m 1
 143 190 l 1
 238 190 l 1
 238 143 l 1
 143 143 l 1
333 143 m 1
 333 190 l 1
 429 190 l 1
 429 143 l 1
 333 143 l 1
524 143 m 1
 524 190 l 1
 619 190 l 1
 619 143 l 1
 524 143 l 1
95 95 m 1
 95 143 l 1
 238 143 l 1
 238 95 l 1
 95 95 l 1
333 95 m 1
 333 143 l 1
 429 143 l 1
 429 95 l 1
 333 95 l 1
524 95 m 1
 524 143 l 1
 619 143 l 1
 619 95 l 1
 524 95 l 1
95 48 m 1
 95 95 l 1
 190 95 l 1
 190 48 l 1
 95 48 l 1
333 48 m 1
 333 95 l 1
 619 95 l 1
 619 48 l 1
 333 48 l 1
48 0 m 1
 48 48 l 1
 143 48 l 1
 143 0 l 1
 48 0 l 1
381 0 m 1
 381 48 l 1
 571 48 l 1
 571 0 l 1
 381 0 l 1
EndSplineSet
EndChar

StartChar: ampersand
Encoding: 38 38 7
Width: 524
Flags: HW
LayerCount: 2
Back
Fore
SplineSet
143 619 m 1
 143 667 l 1
 333 667 l 1
 333 619 l 1
 143 619 l 1
95 571 m 1
 95 619 l 1
 381 619 l 1
 381 571 l 1
 95 571 l 1
95 524 m 1
 95 571 l 1
 381 571 l 1
 381 524 l 1
 95 524 l 1
95 476 m 1
 95 524 l 1
 381 524 l 1
 381 476 l 1
 95 476 l 1
95 429 m 1
 95 476 l 1
 381 476 l 1
 381 429 l 1
 95 429 l 1
143 381 m 1
 143 429 l 1
 333 429 l 1
 333 381 l 1
 143 381 l 1
95 333 m 1
 95 381 l 1
 286 381 l 1
 286 333 l 1
 95 333 l 1
381 333 m 1
 381 381 l 1
 524 381 l 1
 524 333 l 1
 381 333 l 1
48 286 m 1
 48 333 l 1
 286 333 l 1
 286 286 l 1
 48 286 l 1
381 286 m 1
 381 333 l 1
 524 333 l 1
 524 286 l 1
 381 286 l 1
0 238 m 1
 0 286 l 1
 143 286 l 1
 143 238 l 1
 0 238 l 1
190 238 m 1
 190 286 l 1
 333 286 l 1
 333 238 l 1
 190 238 l 1
381 238 m 1
 381 286 l 1
 524 286 l 1
 524 238 l 1
 381 238 l 1
0 190 m 1
 0 238 l 1
 143 238 l 1
 143 190 l 1
 0 190 l 1
190 190 m 1
 190 238 l 1
 476 238 l 1
 476 190 l 1
 190 190 l 1
0 143 m 1
 0 190 l 1
 143 190 l 1
 143 143 l 1
 0 143 l 1
190 143 m 1
 190 190 l 1
 476 190 l 1
 476 143 l 1
 190 143 l 1
0 95 m 1
 0 143 l 1
 190 143 l 1
 190 95 l 1
 0 95 l 1
238 95 m 1
 238 143 l 1
 429 143 l 1
 429 95 l 1
 238 95 l 1
48 48 m 1
 48 95 l 1
 429 95 l 1
 429 48 l 1
 48 48 l 1
95 0 m 1
 95 48 l 1
 524 48 l 1
 524 0 l 1
 95 0 l 1
EndSplineSet
EndChar

StartChar: quotesingle
Encoding: 39 39 8
Width: 524
Flags: HW
LayerCount: 2
Back
Fore
SplineSet
190 619 m 1
 190 667 l 1
 333 667 l 1
 333 619 l 1
 190 619 l 1
190 571 m 1
 190 619 l 1
 333 619 l 1
 333 571 l 1
 190 571 l 1
190 524 m 1
 190 571 l 1
 333 571 l 1
 333 524 l 1
 190 524 l 1
238 476 m 1
 238 524 l 1
 333 524 l 1
 333 476 l 1
 238 476 l 1
238 429 m 1
 238 476 l 1
 333 476 l 1
 333 429 l 1
 238 429 l 1
238 381 m 1
 238 429 l 1
 333 429 l 1
 333 381 l 1
 238 381 l 1
EndSplineSet
EndChar

StartChar: parenleft
Encoding: 40 40 9
Width: 524
Flags: HW
LayerCount: 2
Back
Fore
SplineSet
381 619 m 1
 381 667 l 1
 524 667 l 1
 524 619 l 1
 381 619 l 1
286 571 m 1
 286 619 l 1
 524 619 l 1
 524 571 l 1
 286 571 l 1
238 524 m 1
 238 571 l 1
 429 571 l 1
 429 524 l 1
 238 524 l 1
190 476 m 1
 190 524 l 1
 381 524 l 1
 381 476 l 1
 190 476 l 1
190 429 m 1
 190 476 l 1
 333 476 l 1
 333 429 l 1
 190 429 l 1
143 381 m 1
 143 429 l 1
 333 429 l 1
 333 381 l 1
 143 381 l 1
143 333 m 1
 143 381 l 1
 286 381 l 1
 286 333 l 1
 143 333 l 1
143 286 m 1
 143 333 l 1
 286 333 l 1
 286 286 l 1
 143 286 l 1
143 238 m 1
 143 286 l 1
 286 286 l 1
 286 238 l 1
 143 238 l 1
143 190 m 1
 143 238 l 1
 286 238 l 1
 286 190 l 1
 143 190 l 1
143 143 m 1
 143 190 l 1
 286 190 l 1
 286 143 l 1
 143 143 l 1
143 95 m 1
 143 143 l 1
 286 143 l 1
 286 95 l 1
 143 95 l 1
190 48 m 1
 190 95 l 1
 333 95 l 1
 333 48 l 1
 190 48 l 1
190 0 m 1
 190 48 l 1
 333 48 l 1
 333 0 l 1
 190 0 l 1
238 -48 m 1
 238 0 l 1
 381 0 l 1
 381 -48 l 1
 238 -48 l 1
286 -95 m 1
 286 -48 l 1
 429 -48 l 1
 429 -95 l 1
 286 -95 l 1
333 -143 m 1
 333 -95 l 1
 524 -95 l 1
 524 -143 l 1
 333 -143 l 1
429 -190 m 1
 429 -143 l 1
 524 -143 l 1
 524 -190 l 1
 429 -190 l 1
EndSplineSet
EndChar

StartChar: parenright
Encoding: 41 41 10
Width: 524
Flags: HW
LayerCount: 2
Back
Fore
SplineSet
48 619 m 1
 48 667 l 1
 143 667 l 1
 143 619 l 1
 48 619 l 1
48 571 m 1
 48 619 l 1
 238 619 l 1
 238 571 l 1
 48 571 l 1
143 524 m 1
 143 571 l 1
 286 571 l 1
 286 524 l 1
 143 524 l 1
190 476 m 1
 190 524 l 1
 333 524 l 1
 333 476 l 1
 190 476 l 1
238 429 m 1
 238 476 l 1
 381 476 l 1
 381 429 l 1
 238 429 l 1
238 381 m 1
 238 429 l 1
 381 429 l 1
 381 381 l 1
 238 381 l 1
286 333 m 1
 286 381 l 1
 429 381 l 1
 429 333 l 1
 286 333 l 1
286 286 m 1
 286 333 l 1
 429 333 l 1
 429 286 l 1
 286 286 l 1
286 238 m 1
 286 286 l 1
 429 286 l 1
 429 238 l 1
 286 238 l 1
286 190 m 1
 286 238 l 1
 429 238 l 1
 429 190 l 1
 286 190 l 1
286 143 m 1
 286 190 l 1
 429 190 l 1
 429 143 l 1
 286 143 l 1
286 95 m 1
 286 143 l 1
 429 143 l 1
 429 95 l 1
 286 95 l 1
238 48 m 1
 238 95 l 1
 381 95 l 1
 381 48 l 1
 238 48 l 1
238 0 m 1
 238 48 l 1
 381 48 l 1
 381 0 l 1
 238 0 l 1
190 -48 m 1
 190 0 l 1
 333 0 l 1
 333 -48 l 1
 190 -48 l 1
143 -95 m 1
 143 -48 l 1
 333 -48 l 1
 333 -95 l 1
 143 -95 l 1
48 -143 m 1
 48 -95 l 1
 238 -95 l 1
 238 -143 l 1
 48 -143 l 1
48 -190 m 1
 48 -143 l 1
 143 -143 l 1
 143 -190 l 1
 48 -190 l 1
EndSplineSet
EndChar

StartChar: asterisk
Encoding: 42 42 11
Width: 524
Flags: HW
LayerCount: 2
Back
Fore
SplineSet
190 619 m 1
 190 667 l 1
 333 667 l 1
 333 619 l 1
 190 619 l 1
238 571 m 1
 238 619 l 1
 286 619 l 1
 286 571 l 1
 238 571 l 1
48 524 m 1
 48 571 l 1
 143 571 l 1
 143 524 l 1
 48 524 l 1
238 524 m 1
 238 571 l 1
 286 571 l 1
 286 524 l 1
 238 524 l 1
381 524 m 1
 381 571 l 1
 476 571 l 1
 476 524 l 1
 381 524 l 1
48 476 m 1
 48 524 l 1
 238 524 l 1
 238 476 l 1
 48 476 l 1
286 476 m 1
 286 524 l 1
 476 524 l 1
 476 476 l 1
 286 476 l 1
143 381 m 1
 143 429 l 1
 238 429 l 1
 238 381 l 1
 143 381 l 1
286 381 m 1
 286 429 l 1
 381 429 l 1
 381 381 l 1
 286 381 l 1
95 333 m 1
 95 381 l 1
 238 381 l 1
 238 333 l 1
 95 333 l 1
286 333 m 1
 286 381 l 1
 429 381 l 1
 429 333 l 1
 286 333 l 1
143 286 m 1
 143 333 l 1
 190 333 l 1
 190 286 l 1
 143 286 l 1
333 286 m 1
 333 333 l 1
 381 333 l 1
 381 286 l 1
 333 286 l 1
EndSplineSet
EndChar

StartChar: plus
Encoding: 43 43 12
Width: 524
Flags: HW
LayerCount: 2
Back
Fore
SplineSet
238 429 m 1
 238 476 l 1
 333 476 l 1
 333 429 l 1
 238 429 l 1
238 381 m 1
 238 429 l 1
 333 429 l 1
 333 381 l 1
 238 381 l 1
238 333 m 1
 238 381 l 1
 333 381 l 1
 333 333 l 1
 238 333 l 1
238 286 m 1
 238 333 l 1
 333 333 l 1
 333 286 l 1
 238 286 l 1
48 238 m 1
 48 286 l 1
 524 286 l 1
 524 238 l 1
 48 238 l 1
48 190 m 1
 48 238 l 1
 524 238 l 1
 524 190 l 1
 48 190 l 1
238 143 m 1
 238 190 l 1
 333 190 l 1
 333 143 l 1
 238 143 l 1
238 95 m 1
 238 143 l 1
 333 143 l 1
 333 95 l 1
 238 95 l 1
238 48 m 1
 238 95 l 1
 333 95 l 1
 333 48 l 1
 238 48 l 1
238 0 m 1
 238 48 l 1
 333 48 l 1
 333 0 l 1
 238 0 l 1
EndSplineSet
EndChar

StartChar: comma
Encoding: 44 44 13
Width: 524
Flags: HW
LayerCount: 2
Back
Fore
SplineSet
190 143 m 1
 190 190 l 1
 333 190 l 1
 333 143 l 1
 190 143 l 1
190 95 m 1
 190 143 l 1
 333 143 l 1
 333 95 l 1
 190 95 l 1
190 48 m 1
 190 95 l 1
 333 95 l 1
 333 48 l 1
 190 48 l 1
190 0 m 1
 190 48 l 1
 333 48 l 1
 333 0 l 1
 190 0 l 1
238 -48 m 1
 238 0 l 1
 333 0 l 1
 333 -48 l 1
 238 -48 l 1
238 -95 m 1
 238 -48 l 1
 333 -48 l 1
 333 -95 l 1
 238 -95 l 1
190 -143 m 1
 190 -95 l 1
 333 -95 l 1
 333 -143 l 1
 190 -143 l 1
190 -190 m 1
 190 -143 l 1
 286 -143 l 1
 286 -190 l 1
 190 -190 l 1
EndSplineSet
EndChar

StartChar: period
Encoding: 46 46 15
Width: 524
Flags: HW
LayerCount: 2
Back
Fore
SplineSet
190 95 m 1
 190 143 l 1
 333 143 l 1
 333 95 l 1
 190 95 l 1
190 48 m 1
 190 95 l 1
 333 95 l 1
 333 48 l 1
 190 48 l 1
190 0 m 1
 190 48 l 1
 333 48 l 1
 333 0 l 1
 190 0 l 1
EndSplineSet
EndChar

StartChar: slash
Encoding: 47 47 16
Width: 524
Flags: HW
LayerCount: 2
Back
Fore
SplineSet
381 619 m 1
 381 667 l 1
 524 667 l 1
 524 619 l 1
 381 619 l 1
381 571 m 1
 381 619 l 1
 476 619 l 1
 476 571 l 1
 381 571 l 1
333 524 m 1
 333 571 l 1
 476 571 l 1
 476 524 l 1
 333 524 l 1
333 476 m 1
 333 524 l 1
 429 524 l 1
 429 476 l 1
 333 476 l 1
333 429 m 1
 333 476 l 1
 429 476 l 1
 429 429 l 1
 333 429 l 1
286 381 m 1
 286 429 l 1
 381 429 l 1
 381 381 l 1
 286 381 l 1
286 333 m 1
 286 381 l 1
 381 381 l 1
 381 333 l 1
 286 333 l 1
238 286 m 1
 238 333 l 1
 333 333 l 1
 333 286 l 1
 238 286 l 1
238 238 m 1
 238 286 l 1
 333 286 l 1
 333 238 l 1
 238 238 l 1
190 190 m 1
 190 238 l 1
 286 238 l 1
 286 190 l 1
 190 190 l 1
190 143 m 1
 190 190 l 1
 286 190 l 1
 286 143 l 1
 190 143 l 1
143 95 m 1
 143 143 l 1
 238 143 l 1
 238 95 l 1
 143 95 l 1
143 48 m 1
 143 95 l 1
 238 95 l 1
 238 48 l 1
 143 48 l 1
95 0 m 1
 95 48 l 1
 190 48 l 1
 190 0 l 1
 95 0 l 1
95 -48 m 1
 95 0 l 1
 190 0 l 1
 190 -48 l 1
 95 -48 l 1
48 -95 m 1
 48 -48 l 1
 143 -48 l 1
 143 -95 l 1
 48 -95 l 1
48 -143 m 1
 48 -95 l 1
 143 -95 l 1
 143 -143 l 1
 48 -143 l 1
0 -190 m 1
 0 -143 l 1
 95 -143 l 1
 95 -190 l 1
 0 -190 l 1
EndSplineSet
EndChar

StartChar: zero
Encoding: 48 48 17
Width: 524
Flags: HW
LayerCount: 2
Back
Fore
SplineSet
190 619 m 1
 190 667 l 1
 381 667 l 1
 381 619 l 1
 190 619 l 1
143 571 m 1
 143 619 l 1
 429 619 l 1
 429 571 l 1
 143 571 l 1
95 524 m 1
 95 571 l 1
 238 571 l 1
 238 524 l 1
 95 524 l 1
333 524 m 1
 333 571 l 1
 476 571 l 1
 476 524 l 1
 333 524 l 1
95 476 m 1
 95 524 l 1
 190 524 l 1
 190 476 l 1
 95 476 l 1
381 476 m 1
 381 524 l 1
 476 524 l 1
 476 476 l 1
 381 476 l 1
48 429 m 1
 48 476 l 1
 190 476 l 1
 190 429 l 1
 48 429 l 1
381 429 m 1
 381 476 l 1
 524 476 l 1
 524 429 l 1
 381 429 l 1
48 381 m 1
 48 429 l 1
 190 429 l 1
 190 381 l 1
 48 381 l 1
381 381 m 1
 381 429 l 1
 524 429 l 1
 524 381 l 1
 381 381 l 1
48 333 m 1
 48 381 l 1
 190 381 l 1
 190 333 l 1
 48 333 l 1
381 333 m 1
 381 381 l 1
 524 381 l 1
 524 333 l 1
 381 333 l 1
48 286 m 1
 48 333 l 1
 190 333 l 1
 190 286 l 1
 48 286 l 1
381 286 m 1
 381 333 l 1
 524 333 l 1
 524 286 l 1
 381 286 l 1
48 238 m 1
 48 286 l 1
 190 286 l 1
 190 238 l 1
 48 238 l 1
381 238 m 1
 381 286 l 1
 524 286 l 1
 524 238 l 1
 381 238 l 1
48 190 m 1
 48 238 l 1
 190 238 l 1
 190 190 l 1
 48 190 l 1
381 190 m 1
 381 238 l 1
 524 238 l 1
 524 190 l 1
 381 190 l 1
95 143 m 1
 95 190 l 1
 190 190 l 1
 190 143 l 1
 95 143 l 1
381 143 m 1
 381 190 l 1
 476 190 l 1
 476 143 l 1
 381 143 l 1
95 95 m 1
 95 143 l 1
 238 143 l 1
 238 95 l 1
 95 95 l 1
333 95 m 1
 333 143 l 1
 476 143 l 1
 476 95 l 1
 333 95 l 1
143 48 m 1
 143 95 l 1
 429 95 l 1
 429 48 l 1
 143 48 l 1
190 0 m 1
 190 48 l 1
 381 48 l 1
 381 0 l 1
 190 0 l 1
EndSplineSet
EndChar

StartChar: one
Encoding: 49 49 18
Width: 524
Flags: HW
LayerCount: 2
Back
Fore
SplineSet
95 619 m 1
 95 667 l 1
 381 667 l 1
 381 619 l 1
 95 619 l 1
95 571 m 1
 95 619 l 1
 381 619 l 1
 381 571 l 1
 95 571 l 1
238 524 m 1
 238 571 l 1
 381 571 l 1
 381 524 l 1
 238 524 l 1
238 476 m 1
 238 524 l 1
 381 524 l 1
 381 476 l 1
 238 476 l 1
238 429 m 1
 238 476 l 1
 381 476 l 1
 381 429 l 1
 238 429 l 1
238 381 m 1
 238 429 l 1
 381 429 l 1
 381 381 l 1
 238 381 l 1
238 333 m 1
 238 381 l 1
 381 381 l 1
 381 333 l 1
 238 333 l 1
238 286 m 1
 238 333 l 1
 381 333 l 1
 381 286 l 1
 238 286 l 1
238 238 m 1
 238 286 l 1
 381 286 l 1
 381 238 l 1
 238 238 l 1
238 190 m 1
 238 238 l 1
 381 238 l 1
 381 190 l 1
 238 190 l 1
238 143 m 1
 238 190 l 1
 381 190 l 1
 381 143 l 1
 238 143 l 1
238 95 m 1
 238 143 l 1
 381 143 l 1
 381 95 l 1
 238 95 l 1
95 48 m 1
 95 95 l 1
 524 95 l 1
 524 48 l 1
 95 48 l 1
95 0 m 1
 95 48 l 1
 524 48 l 1
 524 0 l 1
 95 0 l 1
EndSplineSet
EndChar

StartChar: two
Encoding: 50 50 19
Width: 524
Flags: HW
LayerCount: 2
Back
Fore
SplineSet
143 619 m 1
 143 667 l 1
 381 667 l 1
 381 619 l 1
 143 619 l 1
95 571 m 1
 95 619 l 1
 429 619 l 1
 429 571 l 1
 95 571 l 1
95 524 m 1
 95 571 l 1
 143 571 l 1
 143 524 l 1
 95 524 l 1
286 524 m 1
 286 571 l 1
 476 571 l 1
 476 524 l 1
 286 524 l 1
333 476 m 1
 333 524 l 1
 476 524 l 1
 476 476 l 1
 333 476 l 1
333 429 m 1
 333 476 l 1
 476 476 l 1
 476 429 l 1
 333 429 l 1
333 381 m 1
 333 429 l 1
 476 429 l 1
 476 381 l 1
 333 381 l 1
286 333 m 1
 286 381 l 1
 429 381 l 1
 429 333 l 1
 286 333 l 1
238 286 m 1
 238 333 l 1
 381 333 l 1
 381 286 l 1
 238 286 l 1
190 238 m 1
 190 286 l 1
 333 286 l 1
 333 238 l 1
 190 238 l 1
190 190 m 1
 190 238 l 1
 286 238 l 1
 286 190 l 1
 190 190 l 1
143 143 m 1
 143 190 l 1
 238 190 l 1
 238 143 l 1
 143 143 l 1
95 95 m 1
 95 143 l 1
 238 143 l 1
 238 95 l 1
 95 95 l 1
95 48 m 1
 95 95 l 1
 476 95 l 1
 476 48 l 1
 95 48 l 1
95 0 m 1
 95 48 l 1
 476 48 l 1
 476 0 l 1
 95 0 l 1
EndSplineSet
EndChar

StartChar: three
Encoding: 51 51 20
Width: 524
Flags: HW
LayerCount: 2
Back
Fore
SplineSet
143 619 m 1
 143 667 l 1
 381 667 l 1
 381 619 l 1
 143 619 l 1
95 571 m 1
 95 619 l 1
 429 619 l 1
 429 571 l 1
 95 571 l 1
95 524 m 1
 95 571 l 1
 143 571 l 1
 143 524 l 1
 95 524 l 1
286 524 m 1
 286 571 l 1
 476 571 l 1
 476 524 l 1
 286 524 l 1
333 476 m 1
 333 524 l 1
 476 524 l 1
 476 476 l 1
 333 476 l 1
333 429 m 1
 333 476 l 1
 476 476 l 1
 476 429 l 1
 333 429 l 1
286 381 m 1
 286 429 l 1
 429 429 l 1
 429 381 l 1
 286 381 l 1
143 333 m 1
 143 381 l 1
 333 381 l 1
 333 333 l 1
 143 333 l 1
143 286 m 1
 143 333 l 1
 429 333 l 1
 429 286 l 1
 143 286 l 1
286 238 m 1
 286 286 l 1
 476 286 l 1
 476 238 l 1
 286 238 l 1
333 190 m 1
 333 238 l 1
 476 238 l 1
 476 190 l 1
 333 190 l 1
333 143 m 1
 333 190 l 1
 476 190 l 1
 476 143 l 1
 333 143 l 1
95 95 m 1
 95 143 l 1
 143 143 l 1
 143 95 l 1
 95 95 l 1
286 95 m 1
 286 143 l 1
 476 143 l 1
 476 95 l 1
 286 95 l 1
95 48 m 1
 95 95 l 1
 429 95 l 1
 429 48 l 1
 95 48 l 1
95 0 m 1
 95 48 l 1
 381 48 l 1
 381 0 l 1
 95 0 l 1
EndSplineSet
EndChar

StartChar: four
Encoding: 52 52 21
Width: 524
Flags: HW
LayerCount: 2
Back
Fore
SplineSet
286 619 m 1
 286 667 l 1
 429 667 l 1
 429 619 l 1
 286 619 l 1
238 571 m 1
 238 619 l 1
 429 619 l 1
 429 571 l 1
 238 571 l 1
190 524 m 1
 190 571 l 1
 429 571 l 1
 429 524 l 1
 190 524 l 1
190 476 m 1
 190 524 l 1
 429 524 l 1
 429 476 l 1
 190 476 l 1
143 429 m 1
 143 476 l 1
 238 476 l 1
 238 429 l 1
 143 429 l 1
286 429 m 1
 286 476 l 1
 429 476 l 1
 429 429 l 1
 286 429 l 1
95 381 m 1
 95 429 l 1
 238 429 l 1
 238 381 l 1
 95 381 l 1
286 381 m 1
 286 429 l 1
 429 429 l 1
 429 381 l 1
 286 381 l 1
95 333 m 1
 95 381 l 1
 190 381 l 1
 190 333 l 1
 95 333 l 1
286 333 m 1
 286 381 l 1
 429 381 l 1
 429 333 l 1
 286 333 l 1
48 286 m 1
 48 333 l 1
 524 333 l 1
 524 286 l 1
 48 286 l 1
48 238 m 1
 48 286 l 1
 524 286 l 1
 524 238 l 1
 48 238 l 1
48 190 m 1
 48 238 l 1
 524 238 l 1
 524 190 l 1
 48 190 l 1
286 143 m 1
 286 190 l 1
 429 190 l 1
 429 143 l 1
 286 143 l 1
286 95 m 1
 286 143 l 1
 429 143 l 1
 429 95 l 1
 286 95 l 1
286 48 m 1
 286 95 l 1
 429 95 l 1
 429 48 l 1
 286 48 l 1
286 0 m 1
 286 48 l 1
 429 48 l 1
 429 0 l 1
 286 0 l 1
EndSplineSet
EndChar

StartChar: five
Encoding: 53 53 22
Width: 524
Flags: HW
LayerCount: 2
Back
Fore
SplineSet
143 619 m 1
 143 667 l 1
 476 667 l 1
 476 619 l 1
 143 619 l 1
143 571 m 1
 143 619 l 1
 476 619 l 1
 476 571 l 1
 143 571 l 1
143 524 m 1
 143 571 l 1
 238 571 l 1
 238 524 l 1
 143 524 l 1
143 476 m 1
 143 524 l 1
 238 524 l 1
 238 476 l 1
 143 476 l 1
143 429 m 1
 143 476 l 1
 238 476 l 1
 238 429 l 1
 143 429 l 1
143 381 m 1
 143 429 l 1
 333 429 l 1
 333 381 l 1
 143 381 l 1
143 333 m 1
 143 381 l 1
 429 381 l 1
 429 333 l 1
 143 333 l 1
286 286 m 1
 286 333 l 1
 429 333 l 1
 429 286 l 1
 286 286 l 1
333 238 m 1
 333 286 l 1
 476 286 l 1
 476 238 l 1
 333 238 l 1
333 190 m 1
 333 238 l 1
 476 238 l 1
 476 190 l 1
 333 190 l 1
333 143 m 1
 333 190 l 1
 476 190 l 1
 476 143 l 1
 333 143 l 1
143 95 m 1
 143 143 l 1
 190 143 l 1
 190 95 l 1
 143 95 l 1
286 95 m 1
 286 143 l 1
 476 143 l 1
 476 95 l 1
 286 95 l 1
143 48 m 1
 143 95 l 1
 429 95 l 1
 429 48 l 1
 143 48 l 1
143 0 m 1
 143 48 l 1
 381 48 l 1
 381 0 l 1
 143 0 l 1
EndSplineSet
EndChar

StartChar: six
Encoding: 54 54 23
Width: 524
Flags: HW
LayerCount: 2
Back
Fore
SplineSet
238 619 m 1
 238 667 l 1
 476 667 l 1
 476 619 l 1
 238 619 l 1
143 571 m 1
 143 619 l 1
 476 619 l 1
 476 571 l 1
 143 571 l 1
95 524 m 1
 95 571 l 1
 286 571 l 1
 286 524 l 1
 95 524 l 1
429 524 m 1
 429 571 l 1
 476 571 l 1
 476 524 l 1
 429 524 l 1
95 476 m 1
 95 524 l 1
 238 524 l 1
 238 476 l 1
 95 476 l 1
48 429 m 1
 48 476 l 1
 190 476 l 1
 190 429 l 1
 48 429 l 1
48 381 m 1
 48 429 l 1
 190 429 l 1
 190 381 l 1
 48 381 l 1
238 381 m 1
 238 429 l 1
 429 429 l 1
 429 381 l 1
 238 381 l 1
48 333 m 1
 48 381 l 1
 476 381 l 1
 476 333 l 1
 48 333 l 1
48 286 m 1
 48 333 l 1
 238 333 l 1
 238 286 l 1
 48 286 l 1
333 286 m 1
 333 333 l 1
 524 333 l 1
 524 286 l 1
 333 286 l 1
48 238 m 1
 48 286 l 1
 190 286 l 1
 190 238 l 1
 48 238 l 1
381 238 m 1
 381 286 l 1
 524 286 l 1
 524 238 l 1
 381 238 l 1
48 190 m 1
 48 238 l 1
 190 238 l 1
 190 190 l 1
 48 190 l 1
381 190 m 1
 381 238 l 1
 524 238 l 1
 524 190 l 1
 381 190 l 1
95 143 m 1
 95 190 l 1
 190 190 l 1
 190 143 l 1
 95 143 l 1
381 143 m 1
 381 190 l 1
 524 190 l 1
 524 143 l 1
 381 143 l 1
95 95 m 1
 95 143 l 1
 238 143 l 1
 238 95 l 1
 95 95 l 1
333 95 m 1
 333 143 l 1
 524 143 l 1
 524 95 l 1
 333 95 l 1
143 48 m 1
 143 95 l 1
 476 95 l 1
 476 48 l 1
 143 48 l 1
190 0 m 1
 190 48 l 1
 429 48 l 1
 429 0 l 1
 190 0 l 1
EndSplineSet
EndChar

StartChar: seven
Encoding: 55 55 24
Width: 524
Flags: HW
LayerCount: 2
Back
Fore
SplineSet
95 619 m 1
 95 667 l 1
 476 667 l 1
 476 619 l 1
 95 619 l 1
95 571 m 1
 95 619 l 1
 476 619 l 1
 476 571 l 1
 95 571 l 1
333 524 m 1
 333 571 l 1
 476 571 l 1
 476 524 l 1
 333 524 l 1
333 476 m 1
 333 524 l 1
 476 524 l 1
 476 476 l 1
 333 476 l 1
286 429 m 1
 286 476 l 1
 429 476 l 1
 429 429 l 1
 286 429 l 1
286 381 m 1
 286 429 l 1
 381 429 l 1
 381 381 l 1
 286 381 l 1
238 333 m 1
 238 381 l 1
 381 381 l 1
 381 333 l 1
 238 333 l 1
238 286 m 1
 238 333 l 1
 333 333 l 1
 333 286 l 1
 238 286 l 1
190 238 m 1
 190 286 l 1
 333 286 l 1
 333 238 l 1
 190 238 l 1
190 190 m 1
 190 238 l 1
 286 238 l 1
 286 190 l 1
 190 190 l 1
190 143 m 1
 190 190 l 1
 286 190 l 1
 286 143 l 1
 190 143 l 1
143 95 m 1
 143 143 l 1
 286 143 l 1
 286 95 l 1
 143 95 l 1
143 48 m 1
 143 95 l 1
 286 95 l 1
 286 48 l 1
 143 48 l 1
143 0 m 1
 143 48 l 1
 286 48 l 1
 286 0 l 1
 143 0 l 1
EndSplineSet
EndChar

StartChar: eight
Encoding: 56 56 25
Width: 524
Flags: HW
LayerCount: 2
Back
Fore
SplineSet
190 619 m 1
 190 667 l 1
 381 667 l 1
 381 619 l 1
 190 619 l 1
143 571 m 1
 143 619 l 1
 429 619 l 1
 429 571 l 1
 143 571 l 1
95 524 m 1
 95 571 l 1
 238 571 l 1
 238 524 l 1
 95 524 l 1
286 524 m 1
 286 571 l 1
 429 571 l 1
 429 524 l 1
 286 524 l 1
95 476 m 1
 95 524 l 1
 238 524 l 1
 238 476 l 1
 95 476 l 1
286 476 m 1
 286 524 l 1
 429 524 l 1
 429 476 l 1
 286 476 l 1
95 429 m 1
 95 476 l 1
 238 476 l 1
 238 429 l 1
 95 429 l 1
286 429 m 1
 286 476 l 1
 429 476 l 1
 429 429 l 1
 286 429 l 1
143 381 m 1
 143 429 l 1
 381 429 l 1
 381 381 l 1
 143 381 l 1
190 333 m 1
 190 381 l 1
 381 381 l 1
 381 333 l 1
 190 333 l 1
95 286 m 1
 95 333 l 1
 429 333 l 1
 429 286 l 1
 95 286 l 1
48 238 m 1
 48 286 l 1
 190 286 l 1
 190 238 l 1
 48 238 l 1
286 238 m 1
 286 286 l 1
 476 286 l 1
 476 238 l 1
 286 238 l 1
48 190 m 1
 48 238 l 1
 190 238 l 1
 190 190 l 1
 48 190 l 1
333 190 m 1
 333 238 l 1
 476 238 l 1
 476 190 l 1
 333 190 l 1
48 143 m 1
 48 190 l 1
 190 190 l 1
 190 143 l 1
 48 143 l 1
333 143 m 1
 333 190 l 1
 476 190 l 1
 476 143 l 1
 333 143 l 1
48 95 m 1
 48 143 l 1
 238 143 l 1
 238 95 l 1
 48 95 l 1
333 95 m 1
 333 143 l 1
 476 143 l 1
 476 95 l 1
 333 95 l 1
95 48 m 1
 95 95 l 1
 429 95 l 1
 429 48 l 1
 95 48 l 1
143 0 m 1
 143 48 l 1
 381 48 l 1
 381 0 l 1
 143 0 l 1
EndSplineSet
EndChar

StartChar: nine
Encoding: 57 57 26
Width: 524
Flags: HW
LayerCount: 2
Back
Fore
SplineSet
143 619 m 1
 143 667 l 1
 381 667 l 1
 381 619 l 1
 143 619 l 1
95 571 m 1
 95 619 l 1
 429 619 l 1
 429 571 l 1
 95 571 l 1
48 524 m 1
 48 571 l 1
 238 571 l 1
 238 524 l 1
 48 524 l 1
333 524 m 1
 333 571 l 1
 476 571 l 1
 476 524 l 1
 333 524 l 1
48 476 m 1
 48 524 l 1
 190 524 l 1
 190 476 l 1
 48 476 l 1
381 476 m 1
 381 524 l 1
 476 524 l 1
 476 476 l 1
 381 476 l 1
48 429 m 1
 48 476 l 1
 190 476 l 1
 190 429 l 1
 48 429 l 1
381 429 m 1
 381 476 l 1
 524 476 l 1
 524 429 l 1
 381 429 l 1
48 381 m 1
 48 429 l 1
 190 429 l 1
 190 381 l 1
 48 381 l 1
381 381 m 1
 381 429 l 1
 524 429 l 1
 524 381 l 1
 381 381 l 1
48 333 m 1
 48 381 l 1
 238 381 l 1
 238 333 l 1
 48 333 l 1
333 333 m 1
 333 381 l 1
 524 381 l 1
 524 333 l 1
 333 333 l 1
95 286 m 1
 95 333 l 1
 524 333 l 1
 524 286 l 1
 95 286 l 1
143 238 m 1
 143 286 l 1
 333 286 l 1
 333 238 l 1
 143 238 l 1
381 238 m 1
 381 286 l 1
 524 286 l 1
 524 238 l 1
 381 238 l 1
381 190 m 1
 381 238 l 1
 524 238 l 1
 524 190 l 1
 381 190 l 1
333 143 m 1
 333 190 l 1
 476 190 l 1
 476 143 l 1
 333 143 l 1
95 95 m 1
 95 143 l 1
 143 143 l 1
 143 95 l 1
 95 95 l 1
286 95 m 1
 286 143 l 1
 476 143 l 1
 476 95 l 1
 286 95 l 1
95 48 m 1
 95 95 l 1
 429 95 l 1
 429 48 l 1
 95 48 l 1
95 0 m 1
 95 48 l 1
 333 48 l 1
 333 0 l 1
 95 0 l 1
EndSplineSet
EndChar

StartChar: colon
Encoding: 58 58 27
Width: 524
Flags: HW
LayerCount: 2
Back
Fore
SplineSet
190 429 m 1
 190 476 l 1
 333 476 l 1
 333 429 l 1
 190 429 l 1
190 381 m 1
 190 429 l 1
 333 429 l 1
 333 381 l 1
 190 381 l 1
190 333 m 1
 190 381 l 1
 333 381 l 1
 333 333 l 1
 190 333 l 1
190 95 m 1
 190 143 l 1
 333 143 l 1
 333 95 l 1
 190 95 l 1
190 48 m 1
 190 95 l 1
 333 95 l 1
 333 48 l 1
 190 48 l 1
190 0 m 1
 190 48 l 1
 333 48 l 1
 333 0 l 1
 190 0 l 1
EndSplineSet
EndChar

StartChar: semicolon
Encoding: 59 59 28
Width: 524
Flags: HW
LayerCount: 2
Back
Fore
SplineSet
190 429 m 1
 190 476 l 1
 333 476 l 1
 333 429 l 1
 190 429 l 1
190 381 m 1
 190 429 l 1
 333 429 l 1
 333 381 l 1
 190 381 l 1
190 333 m 1
 190 381 l 1
 333 381 l 1
 333 333 l 1
 190 333 l 1
190 95 m 1
 190 143 l 1
 333 143 l 1
 333 95 l 1
 190 95 l 1
190 48 m 1
 190 95 l 1
 333 95 l 1
 333 48 l 1
 190 48 l 1
190 0 m 1
 190 48 l 1
 333 48 l 1
 333 0 l 1
 190 0 l 1
238 -48 m 1
 238 0 l 1
 333 0 l 1
 333 -48 l 1
 238 -48 l 1
238 -95 m 1
 238 -48 l 1
 333 -48 l 1
 333 -95 l 1
 238 -95 l 1
190 -143 m 1
 190 -95 l 1
 333 -95 l 1
 333 -143 l 1
 190 -143 l 1
190 -190 m 1
 190 -143 l 1
 286 -143 l 1
 286 -190 l 1
 190 -190 l 1
EndSplineSet
EndChar

StartChar: less
Encoding: 60 60 29
Width: 524
Flags: HW
LayerCount: 2
Back
Fore
SplineSet
476 429 m 1
 476 476 l 1
 524 476 l 1
 524 429 l 1
 476 429 l 1
381 381 m 1
 381 429 l 1
 524 429 l 1
 524 381 l 1
 381 381 l 1
286 333 m 1
 286 381 l 1
 476 381 l 1
 476 333 l 1
 286 333 l 1
190 286 m 1
 190 333 l 1
 429 333 l 1
 429 286 l 1
 190 286 l 1
48 238 m 1
 48 286 l 1
 333 286 l 1
 333 238 l 1
 48 238 l 1
95 190 m 1
 95 238 l 1
 333 238 l 1
 333 190 l 1
 95 190 l 1
190 143 m 1
 190 190 l 1
 429 190 l 1
 429 143 l 1
 190 143 l 1
286 95 m 1
 286 143 l 1
 524 143 l 1
 524 95 l 1
 286 95 l 1
381 48 m 1
 381 95 l 1
 524 95 l 1
 524 48 l 1
 381 48 l 1
476 0 m 1
 476 48 l 1
 524 48 l 1
 524 0 l 1
 476 0 l 1
EndSplineSet
EndChar

StartChar: equal
Encoding: 61 61 30
Width: 524
Flags: HW
LayerCount: 2
Back
Fore
SplineSet
48 333 m 1
 48 381 l 1
 524 381 l 1
 524 333 l 1
 48 333 l 1
48 286 m 1
 48 333 l 1
 524 333 l 1
 524 286 l 1
 48 286 l 1
48 143 m 1
 48 190 l 1
 524 190 l 1
 524 143 l 1
 48 143 l 1
48 95 m 1
 48 143 l 1
 524 143 l 1
 524 95 l 1
 48 95 l 1
EndSplineSet
EndChar

StartChar: greater
Encoding: 62 62 31
Width: 524
Flags: HW
LayerCount: 2
Back
Fore
SplineSet
48 429 m 1
 48 476 l 1
 95 476 l 1
 95 429 l 1
 48 429 l 1
48 381 m 1
 48 429 l 1
 190 429 l 1
 190 381 l 1
 48 381 l 1
48 333 m 1
 48 381 l 1
 286 381 l 1
 286 333 l 1
 48 333 l 1
143 286 m 1
 143 333 l 1
 381 333 l 1
 381 286 l 1
 143 286 l 1
238 238 m 1
 238 286 l 1
 476 286 l 1
 476 238 l 1
 238 238 l 1
238 190 m 1
 238 238 l 1
 524 238 l 1
 524 190 l 1
 238 190 l 1
143 143 m 1
 143 190 l 1
 381 190 l 1
 381 143 l 1
 143 143 l 1
95 95 m 1
 95 143 l 1
 286 143 l 1
 286 95 l 1
 95 95 l 1
48 48 m 1
 48 95 l 1
 190 95 l 1
 190 48 l 1
 48 48 l 1
48 0 m 1
 48 48 l 1
 95 48 l 1
 95 0 l 1
 48 0 l 1
EndSplineSet
EndChar

StartChar: question
Encoding: 63 63 32
Width: 524
Flags: HW
LayerCount: 2
Back
Fore
SplineSet
95 619 m 1
 95 667 l 1
 429 667 l 1
 429 619 l 1
 95 619 l 1
48 571 m 1
 48 619 l 1
 476 619 l 1
 476 571 l 1
 48 571 l 1
48 524 m 1
 48 571 l 1
 143 571 l 1
 143 524 l 1
 48 524 l 1
333 524 m 1
 333 571 l 1
 524 571 l 1
 524 524 l 1
 333 524 l 1
48 476 m 1
 48 524 l 1
 143 524 l 1
 143 476 l 1
 48 476 l 1
381 476 m 1
 381 524 l 1
 524 524 l 1
 524 476 l 1
 381 476 l 1
381 429 m 1
 381 476 l 1
 524 476 l 1
 524 429 l 1
 381 429 l 1
333 381 m 1
 333 429 l 1
 476 429 l 1
 476 381 l 1
 333 381 l 1
238 333 m 1
 238 381 l 1
 429 381 l 1
 429 333 l 1
 238 333 l 1
190 286 m 1
 190 333 l 1
 333 333 l 1
 333 286 l 1
 190 286 l 1
143 238 m 1
 143 286 l 1
 286 286 l 1
 286 238 l 1
 143 238 l 1
143 190 m 1
 143 238 l 1
 286 238 l 1
 286 190 l 1
 143 190 l 1
143 48 m 1
 143 95 l 1
 286 95 l 1
 286 48 l 1
 143 48 l 1
143 0 m 1
 143 48 l 1
 286 48 l 1
 286 0 l 1
 143 0 l 1
EndSplineSet
EndChar

StartChar: at
Encoding: 64 64 33
Width: 524
Flags: HW
LayerCount: 2
Back
Fore
SplineSet
190 619 m 1
 190 667 l 1
 381 667 l 1
 381 619 l 1
 190 619 l 1
95 571 m 1
 95 619 l 1
 429 619 l 1
 429 571 l 1
 95 571 l 1
48 524 m 1
 48 571 l 1
 190 571 l 1
 190 524 l 1
 48 524 l 1
333 524 m 1
 333 571 l 1
 476 571 l 1
 476 524 l 1
 333 524 l 1
48 476 m 1
 48 524 l 1
 143 524 l 1
 143 476 l 1
 48 476 l 1
238 476 m 1
 238 524 l 1
 476 524 l 1
 476 476 l 1
 238 476 l 1
0 429 m 1
 0 476 l 1
 143 476 l 1
 143 429 l 1
 0 429 l 1
190 429 m 1
 190 476 l 1
 476 476 l 1
 476 429 l 1
 190 429 l 1
0 381 m 1
 0 429 l 1
 95 429 l 1
 95 381 l 1
 0 381 l 1
143 381 m 1
 143 429 l 1
 286 429 l 1
 286 381 l 1
 143 381 l 1
381 381 m 1
 381 429 l 1
 476 429 l 1
 476 381 l 1
 381 381 l 1
0 333 m 1
 0 381 l 1
 95 381 l 1
 95 333 l 1
 0 333 l 1
143 333 m 1
 143 381 l 1
 238 381 l 1
 238 333 l 1
 143 333 l 1
381 333 m 1
 381 381 l 1
 476 381 l 1
 476 333 l 1
 381 333 l 1
0 286 m 1
 0 333 l 1
 95 333 l 1
 95 286 l 1
 0 286 l 1
143 286 m 1
 143 333 l 1
 238 333 l 1
 238 286 l 1
 143 286 l 1
333 286 m 1
 333 333 l 1
 476 333 l 1
 476 286 l 1
 333 286 l 1
0 238 m 1
 0 286 l 1
 95 286 l 1
 95 238 l 1
 0 238 l 1
143 238 m 1
 143 286 l 1
 238 286 l 1
 238 238 l 1
 143 238 l 1
333 238 m 1
 333 286 l 1
 476 286 l 1
 476 238 l 1
 333 238 l 1
0 190 m 1
 0 238 l 1
 95 238 l 1
 95 190 l 1
 0 190 l 1
143 190 m 1
 143 238 l 1
 524 238 l 1
 524 190 l 1
 143 190 l 1
0 143 m 1
 0 190 l 1
 143 190 l 1
 143 143 l 1
 0 143 l 1
190 143 m 1
 190 190 l 1
 333 190 l 1
 333 143 l 1
 190 143 l 1
381 143 m 1
 381 190 l 1
 524 190 l 1
 524 143 l 1
 381 143 l 1
48 95 m 1
 48 143 l 1
 190 143 l 1
 190 95 l 1
 48 95 l 1
333 95 m 1
 333 143 l 1
 381 143 l 1
 381 95 l 1
 333 95 l 1
95 48 m 1
 95 95 l 1
 381 95 l 1
 381 48 l 1
 95 48 l 1
143 0 m 1
 143 48 l 1
 333 48 l 1
 333 0 l 1
 143 0 l 1
EndSplineSet
EndChar

StartChar: A
Encoding: 65 65 34
Width: 524
Flags: HW
LayerCount: 2
Back
Fore
SplineSet
190 619 m 1
 190 667 l 1
 333 667 l 1
 333 619 l 1
 190 619 l 1
190 571 m 1
 190 619 l 1
 381 619 l 1
 381 571 l 1
 190 571 l 1
190 524 m 1
 190 571 l 1
 381 571 l 1
 381 524 l 1
 190 524 l 1
143 476 m 1
 143 524 l 1
 381 524 l 1
 381 476 l 1
 143 476 l 1
143 429 m 1
 143 476 l 1
 381 476 l 1
 381 429 l 1
 143 429 l 1
143 381 m 1
 143 429 l 1
 238 429 l 1
 238 381 l 1
 143 381 l 1
286 381 m 1
 286 429 l 1
 429 429 l 1
 429 381 l 1
 286 381 l 1
95 333 m 1
 95 381 l 1
 190 381 l 1
 190 333 l 1
 95 333 l 1
286 333 m 1
 286 381 l 1
 429 381 l 1
 429 333 l 1
 286 333 l 1
95 286 m 1
 95 333 l 1
 190 333 l 1
 190 286 l 1
 95 286 l 1
286 286 m 1
 286 333 l 1
 429 333 l 1
 429 286 l 1
 286 286 l 1
95 238 m 1
 95 286 l 1
 190 286 l 1
 190 238 l 1
 95 238 l 1
286 238 m 1
 286 286 l 1
 476 286 l 1
 476 238 l 1
 286 238 l 1
48 190 m 1
 48 238 l 1
 476 238 l 1
 476 190 l 1
 48 190 l 1
48 143 m 1
 48 190 l 1
 476 190 l 1
 476 143 l 1
 48 143 l 1
48 95 m 1
 48 143 l 1
 143 143 l 1
 143 95 l 1
 48 95 l 1
333 95 m 1
 333 143 l 1
 476 143 l 1
 476 95 l 1
 333 95 l 1
0 48 m 1
 0 95 l 1
 95 95 l 1
 95 48 l 1
 0 48 l 1
381 48 m 1
 381 95 l 1
 524 95 l 1
 524 48 l 1
 381 48 l 1
0 0 m 1
 0 48 l 1
 95 48 l 1
 95 0 l 1
 0 0 l 1
381 0 m 1
 381 48 l 1
 524 48 l 1
 524 0 l 1
 381 0 l 1
EndSplineSet
EndChar

StartChar: B
Encoding: 66 66 35
Width: 524
Flags: HW
LayerCount: 2
Back
Fore
SplineSet
48 619 m 1
 48 667 l 1
 429 667 l 1
 429 619 l 1
 48 619 l 1
48 571 m 1
 48 619 l 1
 476 619 l 1
 476 571 l 1
 48 571 l 1
48 524 m 1
 48 571 l 1
 190 571 l 1
 190 524 l 1
 48 524 l 1
333 524 m 1
 333 571 l 1
 476 571 l 1
 476 524 l 1
 333 524 l 1
48 476 m 1
 48 524 l 1
 190 524 l 1
 190 476 l 1
 48 476 l 1
333 476 m 1
 333 524 l 1
 476 524 l 1
 476 476 l 1
 333 476 l 1
48 429 m 1
 48 476 l 1
 190 476 l 1
 190 429 l 1
 48 429 l 1
333 429 m 1
 333 476 l 1
 476 476 l 1
 476 429 l 1
 333 429 l 1
48 381 m 1
 48 429 l 1
 190 429 l 1
 190 381 l 1
 48 381 l 1
286 381 m 1
 286 429 l 1
 429 429 l 1
 429 381 l 1
 286 381 l 1
48 333 m 1
 48 381 l 1
 381 381 l 1
 381 333 l 1
 48 333 l 1
48 286 m 1
 48 333 l 1
 476 333 l 1
 476 286 l 1
 48 286 l 1
48 238 m 1
 48 286 l 1
 190 286 l 1
 190 238 l 1
 48 238 l 1
333 238 m 1
 333 286 l 1
 524 286 l 1
 524 238 l 1
 333 238 l 1
48 190 m 1
 48 238 l 1
 190 238 l 1
 190 190 l 1
 48 190 l 1
381 190 m 1
 381 238 l 1
 524 238 l 1
 524 190 l 1
 381 190 l 1
48 143 m 1
 48 190 l 1
 190 190 l 1
 190 143 l 1
 48 143 l 1
381 143 m 1
 381 190 l 1
 524 190 l 1
 524 143 l 1
 381 143 l 1
48 95 m 1
 48 143 l 1
 190 143 l 1
 190 95 l 1
 48 95 l 1
333 95 m 1
 333 143 l 1
 524 143 l 1
 524 95 l 1
 333 95 l 1
48 48 m 1
 48 95 l 1
 476 95 l 1
 476 48 l 1
 48 48 l 1
48 0 m 1
 48 48 l 1
 429 48 l 1
 429 0 l 1
 48 0 l 1
EndSplineSet
EndChar

StartChar: C
Encoding: 67 67 36
Width: 524
Flags: HW
LayerCount: 2
Back
Fore
SplineSet
190 619 m 1
 190 667 l 1
 524 667 l 1
 524 619 l 1
 190 619 l 1
95 571 m 1
 95 619 l 1
 524 619 l 1
 524 571 l 1
 95 571 l 1
48 524 m 1
 48 571 l 1
 238 571 l 1
 238 524 l 1
 48 524 l 1
476 524 m 1
 476 571 l 1
 524 571 l 1
 524 524 l 1
 476 524 l 1
48 476 m 1
 48 524 l 1
 190 524 l 1
 190 476 l 1
 48 476 l 1
0 429 m 1
 0 476 l 1
 143 476 l 1
 143 429 l 1
 0 429 l 1
0 381 m 1
 0 429 l 1
 143 429 l 1
 143 381 l 1
 0 381 l 1
0 333 m 1
 0 381 l 1
 143 381 l 1
 143 333 l 1
 0 333 l 1
0 286 m 1
 0 333 l 1
 143 333 l 1
 143 286 l 1
 0 286 l 1
0 238 m 1
 0 286 l 1
 143 286 l 1
 143 238 l 1
 0 238 l 1
0 190 m 1
 0 238 l 1
 143 238 l 1
 143 190 l 1
 0 190 l 1
48 143 m 1
 48 190 l 1
 190 190 l 1
 190 143 l 1
 48 143 l 1
48 95 m 1
 48 143 l 1
 238 143 l 1
 238 95 l 1
 48 95 l 1
476 95 m 1
 476 143 l 1
 524 143 l 1
 524 95 l 1
 476 95 l 1
95 48 m 1
 95 95 l 1
 524 95 l 1
 524 48 l 1
 95 48 l 1
190 0 m 1
 190 48 l 1
 476 48 l 1
 476 0 l 1
 190 0 l 1
EndSplineSet
EndChar

StartChar: D
Encoding: 68 68 37
Width: 524
Flags: HW
LayerCount: 2
Back
Fore
SplineSet
48 619 m 1
 48 667 l 1
 381 667 l 1
 381 619 l 1
 48 619 l 1
48 571 m 1
 48 619 l 1
 476 619 l 1
 476 571 l 1
 48 571 l 1
48 524 m 1
 48 571 l 1
 190 571 l 1
 190 524 l 1
 48 524 l 1
333 524 m 1
 333 571 l 1
 476 571 l 1
 476 524 l 1
 333 524 l 1
48 476 m 1
 48 524 l 1
 190 524 l 1
 190 476 l 1
 48 476 l 1
333 476 m 1
 333 524 l 1
 524 524 l 1
 524 476 l 1
 333 476 l 1
48 429 m 1
 48 476 l 1
 190 476 l 1
 190 429 l 1
 48 429 l 1
381 429 m 1
 381 476 l 1
 524 476 l 1
 524 429 l 1
 381 429 l 1
48 381 m 1
 48 429 l 1
 190 429 l 1
 190 381 l 1
 48 381 l 1
381 381 m 1
 381 429 l 1
 524 429 l 1
 524 381 l 1
 381 381 l 1
48 333 m 1
 48 381 l 1
 190 381 l 1
 190 333 l 1
 48 333 l 1
381 333 m 1
 381 381 l 1
 524 381 l 1
 524 333 l 1
 381 333 l 1
48 286 m 1
 48 333 l 1
 190 333 l 1
 190 286 l 1
 48 286 l 1
381 286 m 1
 381 333 l 1
 524 333 l 1
 524 286 l 1
 381 286 l 1
48 238 m 1
 48 286 l 1
 190 286 l 1
 190 238 l 1
 48 238 l 1
381 238 m 1
 381 286 l 1
 524 286 l 1
 524 238 l 1
 381 238 l 1
48 190 m 1
 48 238 l 1
 190 238 l 1
 190 190 l 1
 48 190 l 1
381 190 m 1
 381 238 l 1
 524 238 l 1
 524 190 l 1
 381 190 l 1
48 143 m 1
 48 190 l 1
 190 190 l 1
 190 143 l 1
 48 143 l 1
333 143 m 1
 333 190 l 1
 476 190 l 1
 476 143 l 1
 333 143 l 1
48 95 m 1
 48 143 l 1
 190 143 l 1
 190 95 l 1
 48 95 l 1
333 95 m 1
 333 143 l 1
 476 143 l 1
 476 95 l 1
 333 95 l 1
48 48 m 1
 48 95 l 1
 429 95 l 1
 429 48 l 1
 48 48 l 1
48 0 m 1
 48 48 l 1
 381 48 l 1
 381 0 l 1
 48 0 l 1
EndSplineSet
EndChar

StartChar: E
Encoding: 69 69 38
Width: 524
Flags: HW
LayerCount: 2
Back
Fore
SplineSet
95 619 m 1
 95 667 l 1
 524 667 l 1
 524 619 l 1
 95 619 l 1
95 571 m 1
 95 619 l 1
 524 619 l 1
 524 571 l 1
 95 571 l 1
95 524 m 1
 95 571 l 1
 238 571 l 1
 238 524 l 1
 95 524 l 1
95 476 m 1
 95 524 l 1
 238 524 l 1
 238 476 l 1
 95 476 l 1
95 429 m 1
 95 476 l 1
 238 476 l 1
 238 429 l 1
 95 429 l 1
95 381 m 1
 95 429 l 1
 238 429 l 1
 238 381 l 1
 95 381 l 1
95 333 m 1
 95 381 l 1
 476 381 l 1
 476 333 l 1
 95 333 l 1
95 286 m 1
 95 333 l 1
 476 333 l 1
 476 286 l 1
 95 286 l 1
95 238 m 1
 95 286 l 1
 238 286 l 1
 238 238 l 1
 95 238 l 1
95 190 m 1
 95 238 l 1
 238 238 l 1
 238 190 l 1
 95 190 l 1
95 143 m 1
 95 190 l 1
 238 190 l 1
 238 143 l 1
 95 143 l 1
95 95 m 1
 95 143 l 1
 238 143 l 1
 238 95 l 1
 95 95 l 1
95 48 m 1
 95 95 l 1
 524 95 l 1
 524 48 l 1
 95 48 l 1
95 0 m 1
 95 48 l 1
 524 48 l 1
 524 0 l 1
 95 0 l 1
EndSplineSet
EndChar

StartChar: F
Encoding: 70 70 39
Width: 524
Flags: HW
LayerCount: 2
Back
Fore
SplineSet
48 619 m 1
 48 667 l 1
 524 667 l 1
 524 619 l 1
 48 619 l 1
48 571 m 1
 48 619 l 1
 524 619 l 1
 524 571 l 1
 48 571 l 1
48 524 m 1
 48 571 l 1
 190 571 l 1
 190 524 l 1
 48 524 l 1
48 476 m 1
 48 524 l 1
 190 524 l 1
 190 476 l 1
 48 476 l 1
48 429 m 1
 48 476 l 1
 190 476 l 1
 190 429 l 1
 48 429 l 1
48 381 m 1
 48 429 l 1
 190 429 l 1
 190 381 l 1
 48 381 l 1
48 333 m 1
 48 381 l 1
 476 381 l 1
 476 333 l 1
 48 333 l 1
48 286 m 1
 48 333 l 1
 476 333 l 1
 476 286 l 1
 48 286 l 1
48 238 m 1
 48 286 l 1
 190 286 l 1
 190 238 l 1
 48 238 l 1
48 190 m 1
 48 238 l 1
 190 238 l 1
 190 190 l 1
 48 190 l 1
48 143 m 1
 48 190 l 1
 190 190 l 1
 190 143 l 1
 48 143 l 1
48 95 m 1
 48 143 l 1
 190 143 l 1
 190 95 l 1
 48 95 l 1
48 48 m 1
 48 95 l 1
 190 95 l 1
 190 48 l 1
 48 48 l 1
48 0 m 1
 48 48 l 1
 190 48 l 1
 190 0 l 1
 48 0 l 1
EndSplineSet
EndChar

StartChar: G
Encoding: 71 71 40
Width: 524
Flags: HW
LayerCount: 2
Back
Fore
SplineSet
190 619 m 1
 190 667 l 1
 524 667 l 1
 524 619 l 1
 190 619 l 1
95 571 m 1
 95 619 l 1
 524 619 l 1
 524 571 l 1
 95 571 l 1
48 524 m 1
 48 571 l 1
 238 571 l 1
 238 524 l 1
 48 524 l 1
476 524 m 1
 476 571 l 1
 524 571 l 1
 524 524 l 1
 476 524 l 1
48 476 m 1
 48 524 l 1
 190 524 l 1
 190 476 l 1
 48 476 l 1
0 429 m 1
 0 476 l 1
 143 476 l 1
 143 429 l 1
 0 429 l 1
0 381 m 1
 0 429 l 1
 143 429 l 1
 143 381 l 1
 0 381 l 1
0 333 m 1
 0 381 l 1
 143 381 l 1
 143 333 l 1
 0 333 l 1
0 286 m 1
 0 333 l 1
 143 333 l 1
 143 286 l 1
 0 286 l 1
381 286 m 1
 381 333 l 1
 524 333 l 1
 524 286 l 1
 381 286 l 1
0 238 m 1
 0 286 l 1
 143 286 l 1
 143 238 l 1
 0 238 l 1
381 238 m 1
 381 286 l 1
 524 286 l 1
 524 238 l 1
 381 238 l 1
0 190 m 1
 0 238 l 1
 143 238 l 1
 143 190 l 1
 0 190 l 1
381 190 m 1
 381 238 l 1
 524 238 l 1
 524 190 l 1
 381 190 l 1
48 143 m 1
 48 190 l 1
 190 190 l 1
 190 143 l 1
 48 143 l 1
381 143 m 1
 381 190 l 1
 524 190 l 1
 524 143 l 1
 381 143 l 1
48 95 m 1
 48 143 l 1
 238 143 l 1
 238 95 l 1
 48 95 l 1
381 95 m 1
 381 143 l 1
 524 143 l 1
 524 95 l 1
 381 95 l 1
95 48 m 1
 95 95 l 1
 524 95 l 1
 524 48 l 1
 95 48 l 1
190 0 m 1
 190 48 l 1
 476 48 l 1
 476 0 l 1
 190 0 l 1
EndSplineSet
EndChar

StartChar: H
Encoding: 72 72 41
Width: 524
Flags: HW
LayerCount: 2
Back
Fore
SplineSet
48 619 m 1
 48 667 l 1
 190 667 l 1
 190 619 l 1
 48 619 l 1
381 619 m 1
 381 667 l 1
 524 667 l 1
 524 619 l 1
 381 619 l 1
48 571 m 1
 48 619 l 1
 190 619 l 1
 190 571 l 1
 48 571 l 1
381 571 m 1
 381 619 l 1
 524 619 l 1
 524 571 l 1
 381 571 l 1
48 524 m 1
 48 571 l 1
 190 571 l 1
 190 524 l 1
 48 524 l 1
381 524 m 1
 381 571 l 1
 524 571 l 1
 524 524 l 1
 381 524 l 1
48 476 m 1
 48 524 l 1
 190 524 l 1
 190 476 l 1
 48 476 l 1
381 476 m 1
 381 524 l 1
 524 524 l 1
 524 476 l 1
 381 476 l 1
48 429 m 1
 48 476 l 1
 190 476 l 1
 190 429 l 1
 48 429 l 1
381 429 m 1
 381 476 l 1
 524 476 l 1
 524 429 l 1
 381 429 l 1
48 381 m 1
 48 429 l 1
 190 429 l 1
 190 381 l 1
 48 381 l 1
381 381 m 1
 381 429 l 1
 524 429 l 1
 524 381 l 1
 381 381 l 1
48 333 m 1
 48 381 l 1
 524 381 l 1
 524 333 l 1
 48 333 l 1
48 286 m 1
 48 333 l 1
 524 333 l 1
 524 286 l 1
 48 286 l 1
48 238 m 1
 48 286 l 1
 190 286 l 1
 190 238 l 1
 48 238 l 1
381 238 m 1
 381 286 l 1
 524 286 l 1
 524 238 l 1
 381 238 l 1
48 190 m 1
 48 238 l 1
 190 238 l 1
 190 190 l 1
 48 190 l 1
381 190 m 1
 381 238 l 1
 524 238 l 1
 524 190 l 1
 381 190 l 1
48 143 m 1
 48 190 l 1
 190 190 l 1
 190 143 l 1
 48 143 l 1
381 143 m 1
 381 190 l 1
 524 190 l 1
 524 143 l 1
 381 143 l 1
48 95 m 1
 48 143 l 1
 190 143 l 1
 190 95 l 1
 48 95 l 1
381 95 m 1
 381 143 l 1
 524 143 l 1
 524 95 l 1
 381 95 l 1
48 48 m 1
 48 95 l 1
 190 95 l 1
 190 48 l 1
 48 48 l 1
381 48 m 1
 381 95 l 1
 524 95 l 1
 524 48 l 1
 381 48 l 1
48 0 m 1
 48 48 l 1
 190 48 l 1
 190 0 l 1
 48 0 l 1
381 0 m 1
 381 48 l 1
 524 48 l 1
 524 0 l 1
 381 0 l 1
EndSplineSet
EndChar

StartChar: I
Encoding: 73 73 42
Width: 524
Flags: HW
LayerCount: 2
Back
Fore
SplineSet
48 619 m 1
 48 667 l 1
 476 667 l 1
 476 619 l 1
 48 619 l 1
48 571 m 1
 48 619 l 1
 476 619 l 1
 476 571 l 1
 48 571 l 1
190 524 m 1
 190 571 l 1
 333 571 l 1
 333 524 l 1
 190 524 l 1
190 476 m 1
 190 524 l 1
 333 524 l 1
 333 476 l 1
 190 476 l 1
190 429 m 1
 190 476 l 1
 333 476 l 1
 333 429 l 1
 190 429 l 1
190 381 m 1
 190 429 l 1
 333 429 l 1
 333 381 l 1
 190 381 l 1
190 333 m 1
 190 381 l 1
 333 381 l 1
 333 333 l 1
 190 333 l 1
190 286 m 1
 190 333 l 1
 333 333 l 1
 333 286 l 1
 190 286 l 1
190 238 m 1
 190 286 l 1
 333 286 l 1
 333 238 l 1
 190 238 l 1
190 190 m 1
 190 238 l 1
 333 238 l 1
 333 190 l 1
 190 190 l 1
190 143 m 1
 190 190 l 1
 333 190 l 1
 333 143 l 1
 190 143 l 1
190 95 m 1
 190 143 l 1
 333 143 l 1
 333 95 l 1
 190 95 l 1
48 48 m 1
 48 95 l 1
 476 95 l 1
 476 48 l 1
 48 48 l 1
48 0 m 1
 48 48 l 1
 476 48 l 1
 476 0 l 1
 48 0 l 1
EndSplineSet
EndChar

StartChar: J
Encoding: 74 74 43
Width: 524
Flags: HW
LayerCount: 2
Back
Fore
SplineSet
95 619 m 1
 95 667 l 1
 476 667 l 1
 476 619 l 1
 95 619 l 1
95 571 m 1
 95 619 l 1
 476 619 l 1
 476 571 l 1
 95 571 l 1
333 524 m 1
 333 571 l 1
 476 571 l 1
 476 524 l 1
 333 524 l 1
333 476 m 1
 333 524 l 1
 476 524 l 1
 476 476 l 1
 333 476 l 1
333 429 m 1
 333 476 l 1
 476 476 l 1
 476 429 l 1
 333 429 l 1
333 381 m 1
 333 429 l 1
 476 429 l 1
 476 381 l 1
 333 381 l 1
333 333 m 1
 333 381 l 1
 476 381 l 1
 476 333 l 1
 333 333 l 1
333 286 m 1
 333 333 l 1
 476 333 l 1
 476 286 l 1
 333 286 l 1
333 238 m 1
 333 286 l 1
 476 286 l 1
 476 238 l 1
 333 238 l 1
333 190 m 1
 333 238 l 1
 476 238 l 1
 476 190 l 1
 333 190 l 1
333 143 m 1
 333 190 l 1
 476 190 l 1
 476 143 l 1
 333 143 l 1
48 95 m 1
 48 143 l 1
 95 143 l 1
 95 95 l 1
 48 95 l 1
286 95 m 1
 286 143 l 1
 476 143 l 1
 476 95 l 1
 286 95 l 1
48 48 m 1
 48 95 l 1
 429 95 l 1
 429 48 l 1
 48 48 l 1
48 0 m 1
 48 48 l 1
 381 48 l 1
 381 0 l 1
 48 0 l 1
EndSplineSet
EndChar

StartChar: K
Encoding: 75 75 44
Width: 524
Flags: HW
LayerCount: 2
Back
Fore
SplineSet
48 619 m 1
 48 667 l 1
 190 667 l 1
 190 619 l 1
 48 619 l 1
381 619 m 1
 381 667 l 1
 524 667 l 1
 524 619 l 1
 381 619 l 1
48 571 m 1
 48 619 l 1
 190 619 l 1
 190 571 l 1
 48 571 l 1
333 571 m 1
 333 619 l 1
 476 619 l 1
 476 571 l 1
 333 571 l 1
48 524 m 1
 48 571 l 1
 190 571 l 1
 190 524 l 1
 48 524 l 1
333 524 m 1
 333 571 l 1
 429 571 l 1
 429 524 l 1
 333 524 l 1
48 476 m 1
 48 524 l 1
 190 524 l 1
 190 476 l 1
 48 476 l 1
286 476 m 1
 286 524 l 1
 381 524 l 1
 381 476 l 1
 286 476 l 1
48 429 m 1
 48 476 l 1
 190 476 l 1
 190 429 l 1
 48 429 l 1
238 429 m 1
 238 476 l 1
 381 476 l 1
 381 429 l 1
 238 429 l 1
48 381 m 1
 48 429 l 1
 190 429 l 1
 190 381 l 1
 48 381 l 1
238 381 m 1
 238 429 l 1
 333 429 l 1
 333 381 l 1
 238 381 l 1
48 333 m 1
 48 381 l 1
 333 381 l 1
 333 333 l 1
 48 333 l 1
48 286 m 1
 48 333 l 1
 333 333 l 1
 333 286 l 1
 48 286 l 1
48 238 m 1
 48 286 l 1
 381 286 l 1
 381 238 l 1
 48 238 l 1
48 190 m 1
 48 238 l 1
 190 238 l 1
 190 190 l 1
 48 190 l 1
238 190 m 1
 238 238 l 1
 429 238 l 1
 429 190 l 1
 238 190 l 1
48 143 m 1
 48 190 l 1
 190 190 l 1
 190 143 l 1
 48 143 l 1
286 143 m 1
 286 190 l 1
 429 190 l 1
 429 143 l 1
 286 143 l 1
48 95 m 1
 48 143 l 1
 190 143 l 1
 190 95 l 1
 48 95 l 1
286 95 m 1
 286 143 l 1
 476 143 l 1
 476 95 l 1
 286 95 l 1
48 48 m 1
 48 95 l 1
 190 95 l 1
 190 48 l 1
 48 48 l 1
333 48 m 1
 333 95 l 1
 476 95 l 1
 476 48 l 1
 333 48 l 1
48 0 m 1
 48 48 l 1
 190 48 l 1
 190 0 l 1
 48 0 l 1
333 0 m 1
 333 48 l 1
 524 48 l 1
 524 0 l 1
 333 0 l 1
EndSplineSet
EndChar

StartChar: L
Encoding: 76 76 45
Width: 524
Flags: HW
LayerCount: 2
Back
Fore
SplineSet
95 619 m 1
 95 667 l 1
 238 667 l 1
 238 619 l 1
 95 619 l 1
95 571 m 1
 95 619 l 1
 238 619 l 1
 238 571 l 1
 95 571 l 1
95 524 m 1
 95 571 l 1
 238 571 l 1
 238 524 l 1
 95 524 l 1
95 476 m 1
 95 524 l 1
 238 524 l 1
 238 476 l 1
 95 476 l 1
95 429 m 1
 95 476 l 1
 238 476 l 1
 238 429 l 1
 95 429 l 1
95 381 m 1
 95 429 l 1
 238 429 l 1
 238 381 l 1
 95 381 l 1
95 333 m 1
 95 381 l 1
 238 381 l 1
 238 333 l 1
 95 333 l 1
95 286 m 1
 95 333 l 1
 238 333 l 1
 238 286 l 1
 95 286 l 1
95 238 m 1
 95 286 l 1
 238 286 l 1
 238 238 l 1
 95 238 l 1
95 190 m 1
 95 238 l 1
 238 238 l 1
 238 190 l 1
 95 190 l 1
95 143 m 1
 95 190 l 1
 238 190 l 1
 238 143 l 1
 95 143 l 1
95 95 m 1
 95 143 l 1
 238 143 l 1
 238 95 l 1
 95 95 l 1
95 48 m 1
 95 95 l 1
 524 95 l 1
 524 48 l 1
 95 48 l 1
95 0 m 1
 95 48 l 1
 524 48 l 1
 524 0 l 1
 95 0 l 1
EndSplineSet
EndChar

StartChar: M
Encoding: 77 77 46
Width: 524
Flags: HW
LayerCount: 2
Back
Fore
SplineSet
48 619 m 1
 48 667 l 1
 190 667 l 1
 190 619 l 1
 48 619 l 1
333 619 m 1
 333 667 l 1
 524 667 l 1
 524 619 l 1
 333 619 l 1
48 571 m 1
 48 619 l 1
 238 619 l 1
 238 571 l 1
 48 571 l 1
333 571 m 1
 333 619 l 1
 524 619 l 1
 524 571 l 1
 333 571 l 1
48 524 m 1
 48 571 l 1
 238 571 l 1
 238 524 l 1
 48 524 l 1
333 524 m 1
 333 571 l 1
 524 571 l 1
 524 524 l 1
 333 524 l 1
48 476 m 1
 48 524 l 1
 238 524 l 1
 238 476 l 1
 48 476 l 1
333 476 m 1
 333 524 l 1
 524 524 l 1
 524 476 l 1
 333 476 l 1
48 429 m 1
 48 476 l 1
 238 476 l 1
 238 429 l 1
 48 429 l 1
286 429 m 1
 286 476 l 1
 524 476 l 1
 524 429 l 1
 286 429 l 1
48 381 m 1
 48 429 l 1
 238 429 l 1
 238 381 l 1
 48 381 l 1
286 381 m 1
 286 429 l 1
 524 429 l 1
 524 381 l 1
 286 381 l 1
48 333 m 1
 48 381 l 1
 238 381 l 1
 238 333 l 1
 48 333 l 1
286 333 m 1
 286 381 l 1
 524 381 l 1
 524 333 l 1
 286 333 l 1
48 286 m 1
 48 333 l 1
 143 333 l 1
 143 286 l 1
 48 286 l 1
190 286 m 1
 190 333 l 1
 524 333 l 1
 524 286 l 1
 190 286 l 1
48 238 m 1
 48 286 l 1
 143 286 l 1
 143 238 l 1
 48 238 l 1
190 238 m 1
 190 286 l 1
 524 286 l 1
 524 238 l 1
 190 238 l 1
48 190 m 1
 48 238 l 1
 143 238 l 1
 143 190 l 1
 48 190 l 1
190 190 m 1
 190 238 l 1
 333 238 l 1
 333 190 l 1
 190 190 l 1
381 190 m 1
 381 238 l 1
 524 238 l 1
 524 190 l 1
 381 190 l 1
48 143 m 1
 48 190 l 1
 143 190 l 1
 143 143 l 1
 48 143 l 1
190 143 m 1
 190 190 l 1
 333 190 l 1
 333 143 l 1
 190 143 l 1
381 143 m 1
 381 190 l 1
 524 190 l 1
 524 143 l 1
 381 143 l 1
48 95 m 1
 48 143 l 1
 143 143 l 1
 143 95 l 1
 48 95 l 1
190 95 m 1
 190 143 l 1
 333 143 l 1
 333 95 l 1
 190 95 l 1
381 95 m 1
 381 143 l 1
 524 143 l 1
 524 95 l 1
 381 95 l 1
48 48 m 1
 48 95 l 1
 143 95 l 1
 143 48 l 1
 48 48 l 1
190 48 m 1
 190 95 l 1
 333 95 l 1
 333 48 l 1
 190 48 l 1
381 48 m 1
 381 95 l 1
 524 95 l 1
 524 48 l 1
 381 48 l 1
48 0 m 1
 48 48 l 1
 143 48 l 1
 143 0 l 1
 48 0 l 1
381 0 m 1
 381 48 l 1
 524 48 l 1
 524 0 l 1
 381 0 l 1
EndSplineSet
EndChar

StartChar: N
Encoding: 78 78 47
Width: 524
Flags: HW
LayerCount: 2
Back
Fore
SplineSet
48 619 m 1
 48 667 l 1
 190 667 l 1
 190 619 l 1
 48 619 l 1
381 619 m 1
 381 667 l 1
 476 667 l 1
 476 619 l 1
 381 619 l 1
48 571 m 1
 48 619 l 1
 238 619 l 1
 238 571 l 1
 48 571 l 1
381 571 m 1
 381 619 l 1
 476 619 l 1
 476 571 l 1
 381 571 l 1
48 524 m 1
 48 571 l 1
 238 571 l 1
 238 524 l 1
 48 524 l 1
381 524 m 1
 381 571 l 1
 476 571 l 1
 476 524 l 1
 381 524 l 1
48 476 m 1
 48 524 l 1
 286 524 l 1
 286 476 l 1
 48 476 l 1
381 476 m 1
 381 524 l 1
 476 524 l 1
 476 476 l 1
 381 476 l 1
48 429 m 1
 48 476 l 1
 286 476 l 1
 286 429 l 1
 48 429 l 1
381 429 m 1
 381 476 l 1
 476 476 l 1
 476 429 l 1
 381 429 l 1
48 381 m 1
 48 429 l 1
 333 429 l 1
 333 381 l 1
 48 381 l 1
381 381 m 1
 381 429 l 1
 476 429 l 1
 476 381 l 1
 381 381 l 1
48 333 m 1
 48 381 l 1
 143 381 l 1
 143 333 l 1
 48 333 l 1
190 333 m 1
 190 381 l 1
 333 381 l 1
 333 333 l 1
 190 333 l 1
381 333 m 1
 381 381 l 1
 476 381 l 1
 476 333 l 1
 381 333 l 1
48 286 m 1
 48 333 l 1
 143 333 l 1
 143 286 l 1
 48 286 l 1
190 286 m 1
 190 333 l 1
 333 333 l 1
 333 286 l 1
 190 286 l 1
381 286 m 1
 381 333 l 1
 476 333 l 1
 476 286 l 1
 381 286 l 1
48 238 m 1
 48 286 l 1
 143 286 l 1
 143 238 l 1
 48 238 l 1
238 238 m 1
 238 286 l 1
 476 286 l 1
 476 238 l 1
 238 238 l 1
48 190 m 1
 48 238 l 1
 143 238 l 1
 143 190 l 1
 48 190 l 1
238 190 m 1
 238 238 l 1
 476 238 l 1
 476 190 l 1
 238 190 l 1
48 143 m 1
 48 190 l 1
 143 190 l 1
 143 143 l 1
 48 143 l 1
286 143 m 1
 286 190 l 1
 476 190 l 1
 476 143 l 1
 286 143 l 1
48 95 m 1
 48 143 l 1
 143 143 l 1
 143 95 l 1
 48 95 l 1
286 95 m 1
 286 143 l 1
 476 143 l 1
 476 95 l 1
 286 95 l 1
48 48 m 1
 48 95 l 1
 143 95 l 1
 143 48 l 1
 48 48 l 1
333 48 m 1
 333 95 l 1
 476 95 l 1
 476 48 l 1
 333 48 l 1
48 0 m 1
 48 48 l 1
 143 48 l 1
 143 0 l 1
 48 0 l 1
333 0 m 1
 333 48 l 1
 476 48 l 1
 476 0 l 1
 333 0 l 1
EndSplineSet
EndChar

StartChar: O
Encoding: 79 79 48
Width: 524
Flags: HW
LayerCount: 2
Back
Fore
SplineSet
143 619 m 1
 143 667 l 1
 381 667 l 1
 381 619 l 1
 143 619 l 1
95 571 m 1
 95 619 l 1
 429 619 l 1
 429 571 l 1
 95 571 l 1
48 524 m 1
 48 571 l 1
 190 571 l 1
 190 524 l 1
 48 524 l 1
333 524 m 1
 333 571 l 1
 476 571 l 1
 476 524 l 1
 333 524 l 1
48 476 m 1
 48 524 l 1
 143 524 l 1
 143 476 l 1
 48 476 l 1
381 476 m 1
 381 524 l 1
 476 524 l 1
 476 476 l 1
 381 476 l 1
0 429 m 1
 0 476 l 1
 143 476 l 1
 143 429 l 1
 0 429 l 1
381 429 m 1
 381 476 l 1
 524 476 l 1
 524 429 l 1
 381 429 l 1
0 381 m 1
 0 429 l 1
 143 429 l 1
 143 381 l 1
 0 381 l 1
381 381 m 1
 381 429 l 1
 524 429 l 1
 524 381 l 1
 381 381 l 1
0 333 m 1
 0 381 l 1
 143 381 l 1
 143 333 l 1
 0 333 l 1
381 333 m 1
 381 381 l 1
 524 381 l 1
 524 333 l 1
 381 333 l 1
0 286 m 1
 0 333 l 1
 143 333 l 1
 143 286 l 1
 0 286 l 1
381 286 m 1
 381 333 l 1
 524 333 l 1
 524 286 l 1
 381 286 l 1
0 238 m 1
 0 286 l 1
 143 286 l 1
 143 238 l 1
 0 238 l 1
381 238 m 1
 381 286 l 1
 524 286 l 1
 524 238 l 1
 381 238 l 1
0 190 m 1
 0 238 l 1
 143 238 l 1
 143 190 l 1
 0 190 l 1
381 190 m 1
 381 238 l 1
 524 238 l 1
 524 190 l 1
 381 190 l 1
48 143 m 1
 48 190 l 1
 143 190 l 1
 143 143 l 1
 48 143 l 1
381 143 m 1
 381 190 l 1
 476 190 l 1
 476 143 l 1
 381 143 l 1
48 95 m 1
 48 143 l 1
 190 143 l 1
 190 95 l 1
 48 95 l 1
333 95 m 1
 333 143 l 1
 476 143 l 1
 476 95 l 1
 333 95 l 1
95 48 m 1
 95 95 l 1
 429 95 l 1
 429 48 l 1
 95 48 l 1
143 0 m 1
 143 48 l 1
 381 48 l 1
 381 0 l 1
 143 0 l 1
EndSplineSet
EndChar

StartChar: P
Encoding: 80 80 49
Width: 524
Flags: HW
LayerCount: 2
Back
Fore
SplineSet
48 619 m 1
 48 667 l 1
 429 667 l 1
 429 619 l 1
 48 619 l 1
48 571 m 1
 48 619 l 1
 476 619 l 1
 476 571 l 1
 48 571 l 1
48 524 m 1
 48 571 l 1
 190 571 l 1
 190 524 l 1
 48 524 l 1
381 524 m 1
 381 571 l 1
 524 571 l 1
 524 524 l 1
 381 524 l 1
48 476 m 1
 48 524 l 1
 190 524 l 1
 190 476 l 1
 48 476 l 1
381 476 m 1
 381 524 l 1
 524 524 l 1
 524 476 l 1
 381 476 l 1
48 429 m 1
 48 476 l 1
 190 476 l 1
 190 429 l 1
 48 429 l 1
381 429 m 1
 381 476 l 1
 524 476 l 1
 524 429 l 1
 381 429 l 1
48 381 m 1
 48 429 l 1
 190 429 l 1
 190 381 l 1
 48 381 l 1
381 381 m 1
 381 429 l 1
 524 429 l 1
 524 381 l 1
 381 381 l 1
48 333 m 1
 48 381 l 1
 190 381 l 1
 190 333 l 1
 48 333 l 1
333 333 m 1
 333 381 l 1
 524 381 l 1
 524 333 l 1
 333 333 l 1
48 286 m 1
 48 333 l 1
 476 333 l 1
 476 286 l 1
 48 286 l 1
48 238 m 1
 48 286 l 1
 429 286 l 1
 429 238 l 1
 48 238 l 1
48 190 m 1
 48 238 l 1
 190 238 l 1
 190 190 l 1
 48 190 l 1
48 143 m 1
 48 190 l 1
 190 190 l 1
 190 143 l 1
 48 143 l 1
48 95 m 1
 48 143 l 1
 190 143 l 1
 190 95 l 1
 48 95 l 1
48 48 m 1
 48 95 l 1
 190 95 l 1
 190 48 l 1
 48 48 l 1
48 0 m 1
 48 48 l 1
 190 48 l 1
 190 0 l 1
 48 0 l 1
EndSplineSet
EndChar

StartChar: Q
Encoding: 81 81 50
Width: 524
Flags: HW
LayerCount: 2
Back
Fore
SplineSet
143 619 m 1
 143 667 l 1
 381 667 l 1
 381 619 l 1
 143 619 l 1
95 571 m 1
 95 619 l 1
 429 619 l 1
 429 571 l 1
 95 571 l 1
48 524 m 1
 48 571 l 1
 190 571 l 1
 190 524 l 1
 48 524 l 1
333 524 m 1
 333 571 l 1
 476 571 l 1
 476 524 l 1
 333 524 l 1
48 476 m 1
 48 524 l 1
 143 524 l 1
 143 476 l 1
 48 476 l 1
381 476 m 1
 381 524 l 1
 476 524 l 1
 476 476 l 1
 381 476 l 1
0 429 m 1
 0 476 l 1
 143 476 l 1
 143 429 l 1
 0 429 l 1
381 429 m 1
 381 476 l 1
 524 476 l 1
 524 429 l 1
 381 429 l 1
0 381 m 1
 0 429 l 1
 143 429 l 1
 143 381 l 1
 0 381 l 1
381 381 m 1
 381 429 l 1
 524 429 l 1
 524 381 l 1
 381 381 l 1
0 333 m 1
 0 381 l 1
 143 381 l 1
 143 333 l 1
 0 333 l 1
381 333 m 1
 381 381 l 1
 524 381 l 1
 524 333 l 1
 381 333 l 1
0 286 m 1
 0 333 l 1
 143 333 l 1
 143 286 l 1
 0 286 l 1
381 286 m 1
 381 333 l 1
 524 333 l 1
 524 286 l 1
 381 286 l 1
0 238 m 1
 0 286 l 1
 143 286 l 1
 143 238 l 1
 0 238 l 1
381 238 m 1
 381 286 l 1
 524 286 l 1
 524 238 l 1
 381 238 l 1
0 190 m 1
 0 238 l 1
 143 238 l 1
 143 190 l 1
 0 190 l 1
381 190 m 1
 381 238 l 1
 524 238 l 1
 524 190 l 1
 381 190 l 1
48 143 m 1
 48 190 l 1
 143 190 l 1
 143 143 l 1
 48 143 l 1
381 143 m 1
 381 190 l 1
 524 190 l 1
 524 143 l 1
 381 143 l 1
48 95 m 1
 48 143 l 1
 190 143 l 1
 190 95 l 1
 48 95 l 1
333 95 m 1
 333 143 l 1
 476 143 l 1
 476 95 l 1
 333 95 l 1
95 48 m 1
 95 95 l 1
 429 95 l 1
 429 48 l 1
 95 48 l 1
143 0 m 1
 143 48 l 1
 381 48 l 1
 381 0 l 1
 143 0 l 1
286 -48 m 1
 286 0 l 1
 571 0 l 1
 571 -48 l 1
 286 -48 l 1
381 -95 m 1
 381 -48 l 1
 524 -48 l 1
 524 -95 l 1
 381 -95 l 1
429 -143 m 1
 429 -95 l 1
 476 -95 l 1
 476 -143 l 1
 429 -143 l 1
EndSplineSet
EndChar

StartChar: R
Encoding: 82 82 51
Width: 524
Flags: HW
LayerCount: 2
Back
Fore
SplineSet
48 619 m 1
 48 667 l 1
 381 667 l 1
 381 619 l 1
 48 619 l 1
48 571 m 1
 48 619 l 1
 429 619 l 1
 429 571 l 1
 48 571 l 1
48 524 m 1
 48 571 l 1
 190 571 l 1
 190 524 l 1
 48 524 l 1
333 524 m 1
 333 571 l 1
 476 571 l 1
 476 524 l 1
 333 524 l 1
48 476 m 1
 48 524 l 1
 190 524 l 1
 190 476 l 1
 48 476 l 1
333 476 m 1
 333 524 l 1
 476 524 l 1
 476 476 l 1
 333 476 l 1
48 429 m 1
 48 476 l 1
 190 476 l 1
 190 429 l 1
 48 429 l 1
333 429 m 1
 333 476 l 1
 476 476 l 1
 476 429 l 1
 333 429 l 1
48 381 m 1
 48 429 l 1
 190 429 l 1
 190 381 l 1
 48 381 l 1
333 381 m 1
 333 429 l 1
 476 429 l 1
 476 381 l 1
 333 381 l 1
48 333 m 1
 48 381 l 1
 190 381 l 1
 190 333 l 1
 48 333 l 1
286 333 m 1
 286 381 l 1
 429 381 l 1
 429 333 l 1
 286 333 l 1
48 286 m 1
 48 333 l 1
 333 333 l 1
 333 286 l 1
 48 286 l 1
48 238 m 1
 48 286 l 1
 381 286 l 1
 381 238 l 1
 48 238 l 1
48 190 m 1
 48 238 l 1
 190 238 l 1
 190 190 l 1
 48 190 l 1
238 190 m 1
 238 238 l 1
 429 238 l 1
 429 190 l 1
 238 190 l 1
48 143 m 1
 48 190 l 1
 190 190 l 1
 190 143 l 1
 48 143 l 1
286 143 m 1
 286 190 l 1
 429 190 l 1
 429 143 l 1
 286 143 l 1
48 95 m 1
 48 143 l 1
 190 143 l 1
 190 95 l 1
 48 95 l 1
286 95 m 1
 286 143 l 1
 476 143 l 1
 476 95 l 1
 286 95 l 1
48 48 m 1
 48 95 l 1
 190 95 l 1
 190 48 l 1
 48 48 l 1
333 48 m 1
 333 95 l 1
 476 95 l 1
 476 48 l 1
 333 48 l 1
48 0 m 1
 48 48 l 1
 190 48 l 1
 190 0 l 1
 48 0 l 1
381 0 m 1
 381 48 l 1
 524 48 l 1
 524 0 l 1
 381 0 l 1
EndSplineSet
EndChar

StartChar: S
Encoding: 83 83 52
Width: 524
Flags: HW
LayerCount: 2
Back
Fore
SplineSet
143 619 m 1
 143 667 l 1
 476 667 l 1
 476 619 l 1
 143 619 l 1
95 571 m 1
 95 619 l 1
 476 619 l 1
 476 571 l 1
 95 571 l 1
48 524 m 1
 48 571 l 1
 190 571 l 1
 190 524 l 1
 48 524 l 1
429 524 m 1
 429 571 l 1
 476 571 l 1
 476 524 l 1
 429 524 l 1
48 476 m 1
 48 524 l 1
 190 524 l 1
 190 476 l 1
 48 476 l 1
48 429 m 1
 48 476 l 1
 238 476 l 1
 238 429 l 1
 48 429 l 1
48 381 m 1
 48 429 l 1
 333 429 l 1
 333 381 l 1
 48 381 l 1
143 333 m 1
 143 381 l 1
 429 381 l 1
 429 333 l 1
 143 333 l 1
190 286 m 1
 190 333 l 1
 476 333 l 1
 476 286 l 1
 190 286 l 1
286 238 m 1
 286 286 l 1
 524 286 l 1
 524 238 l 1
 286 238 l 1
381 190 m 1
 381 238 l 1
 524 238 l 1
 524 190 l 1
 381 190 l 1
381 143 m 1
 381 190 l 1
 524 190 l 1
 524 143 l 1
 381 143 l 1
48 95 m 1
 48 143 l 1
 95 143 l 1
 95 95 l 1
 48 95 l 1
333 95 m 1
 333 143 l 1
 524 143 l 1
 524 95 l 1
 333 95 l 1
48 48 m 1
 48 95 l 1
 476 95 l 1
 476 48 l 1
 48 48 l 1
48 0 m 1
 48 48 l 1
 381 48 l 1
 381 0 l 1
 48 0 l 1
EndSplineSet
EndChar

StartChar: T
Encoding: 84 84 53
Width: 524
Flags: HW
LayerCount: 2
Back
Fore
SplineSet
0 619 m 1
 0 667 l 1
 524 667 l 1
 524 619 l 1
 0 619 l 1
0 571 m 1
 0 619 l 1
 524 619 l 1
 524 571 l 1
 0 571 l 1
190 524 m 1
 190 571 l 1
 333 571 l 1
 333 524 l 1
 190 524 l 1
190 476 m 1
 190 524 l 1
 333 524 l 1
 333 476 l 1
 190 476 l 1
190 429 m 1
 190 476 l 1
 333 476 l 1
 333 429 l 1
 190 429 l 1
190 381 m 1
 190 429 l 1
 333 429 l 1
 333 381 l 1
 190 381 l 1
190 333 m 1
 190 381 l 1
 333 381 l 1
 333 333 l 1
 190 333 l 1
190 286 m 1
 190 333 l 1
 333 333 l 1
 333 286 l 1
 190 286 l 1
190 238 m 1
 190 286 l 1
 333 286 l 1
 333 238 l 1
 190 238 l 1
190 190 m 1
 190 238 l 1
 333 238 l 1
 333 190 l 1
 190 190 l 1
190 143 m 1
 190 190 l 1
 333 190 l 1
 333 143 l 1
 190 143 l 1
190 95 m 1
 190 143 l 1
 333 143 l 1
 333 95 l 1
 190 95 l 1
190 48 m 1
 190 95 l 1
 333 95 l 1
 333 48 l 1
 190 48 l 1
190 0 m 1
 190 48 l 1
 333 48 l 1
 333 0 l 1
 190 0 l 1
EndSplineSet
EndChar

StartChar: U
Encoding: 85 85 54
Width: 524
Flags: HW
LayerCount: 2
Back
Fore
SplineSet
48 619 m 1
 48 667 l 1
 190 667 l 1
 190 619 l 1
 48 619 l 1
333 619 m 1
 333 667 l 1
 476 667 l 1
 476 619 l 1
 333 619 l 1
48 571 m 1
 48 619 l 1
 190 619 l 1
 190 571 l 1
 48 571 l 1
333 571 m 1
 333 619 l 1
 476 619 l 1
 476 571 l 1
 333 571 l 1
48 524 m 1
 48 571 l 1
 190 571 l 1
 190 524 l 1
 48 524 l 1
333 524 m 1
 333 571 l 1
 476 571 l 1
 476 524 l 1
 333 524 l 1
48 476 m 1
 48 524 l 1
 190 524 l 1
 190 476 l 1
 48 476 l 1
333 476 m 1
 333 524 l 1
 476 524 l 1
 476 476 l 1
 333 476 l 1
48 429 m 1
 48 476 l 1
 190 476 l 1
 190 429 l 1
 48 429 l 1
333 429 m 1
 333 476 l 1
 476 476 l 1
 476 429 l 1
 333 429 l 1
48 381 m 1
 48 429 l 1
 190 429 l 1
 190 381 l 1
 48 381 l 1
333 381 m 1
 333 429 l 1
 476 429 l 1
 476 381 l 1
 333 381 l 1
48 333 m 1
 48 381 l 1
 190 381 l 1
 190 333 l 1
 48 333 l 1
333 333 m 1
 333 381 l 1
 476 381 l 1
 476 333 l 1
 333 333 l 1
48 286 m 1
 48 333 l 1
 190 333 l 1
 190 286 l 1
 48 286 l 1
333 286 m 1
 333 333 l 1
 476 333 l 1
 476 286 l 1
 333 286 l 1
48 238 m 1
 48 286 l 1
 190 286 l 1
 190 238 l 1
 48 238 l 1
333 238 m 1
 333 286 l 1
 476 286 l 1
 476 238 l 1
 333 238 l 1
48 190 m 1
 48 238 l 1
 190 238 l 1
 190 190 l 1
 48 190 l 1
333 190 m 1
 333 238 l 1
 476 238 l 1
 476 190 l 1
 333 190 l 1
48 143 m 1
 48 190 l 1
 190 190 l 1
 190 143 l 1
 48 143 l 1
333 143 m 1
 333 190 l 1
 476 190 l 1
 476 143 l 1
 333 143 l 1
48 95 m 1
 48 143 l 1
 190 143 l 1
 190 95 l 1
 48 95 l 1
333 95 m 1
 333 143 l 1
 476 143 l 1
 476 95 l 1
 333 95 l 1
95 48 m 1
 95 95 l 1
 429 95 l 1
 429 48 l 1
 95 48 l 1
143 0 m 1
 143 48 l 1
 381 48 l 1
 381 0 l 1
 143 0 l 1
EndSplineSet
EndChar

StartChar: V
Encoding: 86 86 55
Width: 524
Flags: HW
LayerCount: 2
Back
Fore
SplineSet
0 619 m 1
 0 667 l 1
 143 667 l 1
 143 619 l 1
 0 619 l 1
429 619 m 1
 429 667 l 1
 524 667 l 1
 524 619 l 1
 429 619 l 1
0 571 m 1
 0 619 l 1
 143 619 l 1
 143 571 l 1
 0 571 l 1
381 571 m 1
 381 619 l 1
 524 619 l 1
 524 571 l 1
 381 571 l 1
48 524 m 1
 48 571 l 1
 190 571 l 1
 190 524 l 1
 48 524 l 1
381 524 m 1
 381 571 l 1
 476 571 l 1
 476 524 l 1
 381 524 l 1
48 476 m 1
 48 524 l 1
 190 524 l 1
 190 476 l 1
 48 476 l 1
381 476 m 1
 381 524 l 1
 476 524 l 1
 476 476 l 1
 381 476 l 1
48 429 m 1
 48 476 l 1
 190 476 l 1
 190 429 l 1
 48 429 l 1
381 429 m 1
 381 476 l 1
 476 476 l 1
 476 429 l 1
 381 429 l 1
48 381 m 1
 48 429 l 1
 238 429 l 1
 238 381 l 1
 48 381 l 1
333 381 m 1
 333 429 l 1
 429 429 l 1
 429 381 l 1
 333 381 l 1
95 333 m 1
 95 381 l 1
 238 381 l 1
 238 333 l 1
 95 333 l 1
333 333 m 1
 333 381 l 1
 429 381 l 1
 429 333 l 1
 333 333 l 1
95 286 m 1
 95 333 l 1
 238 333 l 1
 238 286 l 1
 95 286 l 1
333 286 m 1
 333 333 l 1
 429 333 l 1
 429 286 l 1
 333 286 l 1
95 238 m 1
 95 286 l 1
 238 286 l 1
 238 238 l 1
 95 238 l 1
286 238 m 1
 286 286 l 1
 381 286 l 1
 381 238 l 1
 286 238 l 1
143 190 m 1
 143 238 l 1
 381 238 l 1
 381 190 l 1
 143 190 l 1
143 143 m 1
 143 190 l 1
 381 190 l 1
 381 143 l 1
 143 143 l 1
143 95 m 1
 143 143 l 1
 381 143 l 1
 381 95 l 1
 143 95 l 1
143 48 m 1
 143 95 l 1
 333 95 l 1
 333 48 l 1
 143 48 l 1
190 0 m 1
 190 48 l 1
 333 48 l 1
 333 0 l 1
 190 0 l 1
EndSplineSet
EndChar

StartChar: W
Encoding: 87 87 56
Width: 524
Flags: HW
LayerCount: 2
Back
Fore
SplineSet
0 619 m 1
 0 667 l 1
 143 667 l 1
 143 619 l 1
 0 619 l 1
429 619 m 1
 429 667 l 1
 524 667 l 1
 524 619 l 1
 429 619 l 1
0 571 m 1
 0 619 l 1
 143 619 l 1
 143 571 l 1
 0 571 l 1
190 571 m 1
 190 619 l 1
 333 619 l 1
 333 571 l 1
 190 571 l 1
429 571 m 1
 429 619 l 1
 524 619 l 1
 524 571 l 1
 429 571 l 1
0 524 m 1
 0 571 l 1
 143 571 l 1
 143 524 l 1
 0 524 l 1
190 524 m 1
 190 571 l 1
 333 571 l 1
 333 524 l 1
 190 524 l 1
429 524 m 1
 429 571 l 1
 524 571 l 1
 524 524 l 1
 429 524 l 1
0 476 m 1
 0 524 l 1
 143 524 l 1
 143 476 l 1
 0 476 l 1
190 476 m 1
 190 524 l 1
 333 524 l 1
 333 476 l 1
 190 476 l 1
429 476 m 1
 429 524 l 1
 524 524 l 1
 524 476 l 1
 429 476 l 1
48 429 m 1
 48 476 l 1
 143 476 l 1
 143 429 l 1
 48 429 l 1
190 429 m 1
 190 476 l 1
 381 476 l 1
 381 429 l 1
 190 429 l 1
429 429 m 1
 429 476 l 1
 476 476 l 1
 476 429 l 1
 429 429 l 1
48 381 m 1
 48 429 l 1
 476 429 l 1
 476 381 l 1
 48 381 l 1
48 333 m 1
 48 381 l 1
 476 381 l 1
 476 333 l 1
 48 333 l 1
48 286 m 1
 48 333 l 1
 476 333 l 1
 476 286 l 1
 48 286 l 1
48 238 m 1
 48 286 l 1
 476 286 l 1
 476 238 l 1
 48 238 l 1
48 190 m 1
 48 238 l 1
 476 238 l 1
 476 190 l 1
 48 190 l 1
48 143 m 1
 48 190 l 1
 238 190 l 1
 238 143 l 1
 48 143 l 1
286 143 m 1
 286 190 l 1
 476 190 l 1
 476 143 l 1
 286 143 l 1
48 95 m 1
 48 143 l 1
 238 143 l 1
 238 95 l 1
 48 95 l 1
286 95 m 1
 286 143 l 1
 429 143 l 1
 429 95 l 1
 286 95 l 1
95 48 m 1
 95 95 l 1
 190 95 l 1
 190 48 l 1
 95 48 l 1
286 48 m 1
 286 95 l 1
 429 95 l 1
 429 48 l 1
 286 48 l 1
95 0 m 1
 95 48 l 1
 190 48 l 1
 190 0 l 1
 95 0 l 1
286 0 m 1
 286 48 l 1
 429 48 l 1
 429 0 l 1
 286 0 l 1
EndSplineSet
EndChar

StartChar: X
Encoding: 88 88 57
Width: 524
Flags: HW
LayerCount: 2
Back
Fore
SplineSet
0 619 m 1
 0 667 l 1
 190 667 l 1
 190 619 l 1
 0 619 l 1
381 619 m 1
 381 667 l 1
 524 667 l 1
 524 619 l 1
 381 619 l 1
48 571 m 1
 48 619 l 1
 190 619 l 1
 190 571 l 1
 48 571 l 1
381 571 m 1
 381 619 l 1
 476 619 l 1
 476 571 l 1
 381 571 l 1
48 524 m 1
 48 571 l 1
 238 571 l 1
 238 524 l 1
 48 524 l 1
333 524 m 1
 333 571 l 1
 429 571 l 1
 429 524 l 1
 333 524 l 1
95 476 m 1
 95 524 l 1
 238 524 l 1
 238 476 l 1
 95 476 l 1
286 476 m 1
 286 524 l 1
 429 524 l 1
 429 476 l 1
 286 476 l 1
95 429 m 1
 95 476 l 1
 381 476 l 1
 381 429 l 1
 95 429 l 1
143 381 m 1
 143 429 l 1
 381 429 l 1
 381 381 l 1
 143 381 l 1
190 333 m 1
 190 381 l 1
 333 381 l 1
 333 333 l 1
 190 333 l 1
190 286 m 1
 190 333 l 1
 381 333 l 1
 381 286 l 1
 190 286 l 1
143 238 m 1
 143 286 l 1
 381 286 l 1
 381 238 l 1
 143 238 l 1
143 190 m 1
 143 238 l 1
 429 238 l 1
 429 190 l 1
 143 190 l 1
95 143 m 1
 95 190 l 1
 190 190 l 1
 190 143 l 1
 95 143 l 1
286 143 m 1
 286 190 l 1
 429 190 l 1
 429 143 l 1
 286 143 l 1
48 95 m 1
 48 143 l 1
 190 143 l 1
 190 95 l 1
 48 95 l 1
286 95 m 1
 286 143 l 1
 476 143 l 1
 476 95 l 1
 286 95 l 1
48 48 m 1
 48 95 l 1
 143 95 l 1
 143 48 l 1
 48 48 l 1
333 48 m 1
 333 95 l 1
 476 95 l 1
 476 48 l 1
 333 48 l 1
0 0 m 1
 0 48 l 1
 143 48 l 1
 143 0 l 1
 0 0 l 1
333 0 m 1
 333 48 l 1
 524 48 l 1
 524 0 l 1
 333 0 l 1
EndSplineSet
EndChar

StartChar: Y
Encoding: 89 89 58
Width: 524
Flags: HW
LayerCount: 2
Back
Fore
SplineSet
0 619 m 1
 0 667 l 1
 143 667 l 1
 143 619 l 1
 0 619 l 1
429 619 m 1
 429 667 l 1
 524 667 l 1
 524 619 l 1
 429 619 l 1
48 571 m 1
 48 619 l 1
 190 619 l 1
 190 571 l 1
 48 571 l 1
381 571 m 1
 381 619 l 1
 476 619 l 1
 476 571 l 1
 381 571 l 1
48 524 m 1
 48 571 l 1
 190 571 l 1
 190 524 l 1
 48 524 l 1
381 524 m 1
 381 571 l 1
 476 571 l 1
 476 524 l 1
 381 524 l 1
95 476 m 1
 95 524 l 1
 238 524 l 1
 238 476 l 1
 95 476 l 1
333 476 m 1
 333 524 l 1
 429 524 l 1
 429 476 l 1
 333 476 l 1
95 429 m 1
 95 476 l 1
 238 476 l 1
 238 429 l 1
 95 429 l 1
333 429 m 1
 333 476 l 1
 429 476 l 1
 429 429 l 1
 333 429 l 1
143 381 m 1
 143 429 l 1
 381 429 l 1
 381 381 l 1
 143 381 l 1
143 333 m 1
 143 381 l 1
 381 381 l 1
 381 333 l 1
 143 333 l 1
190 286 m 1
 190 333 l 1
 333 333 l 1
 333 286 l 1
 190 286 l 1
190 238 m 1
 190 286 l 1
 333 286 l 1
 333 238 l 1
 190 238 l 1
190 190 m 1
 190 238 l 1
 333 238 l 1
 333 190 l 1
 190 190 l 1
190 143 m 1
 190 190 l 1
 333 190 l 1
 333 143 l 1
 190 143 l 1
190 95 m 1
 190 143 l 1
 333 143 l 1
 333 95 l 1
 190 95 l 1
190 48 m 1
 190 95 l 1
 333 95 l 1
 333 48 l 1
 190 48 l 1
190 0 m 1
 190 48 l 1
 333 48 l 1
 333 0 l 1
 190 0 l 1
EndSplineSet
EndChar

StartChar: Z
Encoding: 90 90 59
Width: 524
Flags: HW
LayerCount: 2
Back
Fore
SplineSet
48 619 m 1
 48 667 l 1
 524 667 l 1
 524 619 l 1
 48 619 l 1
48 571 m 1
 48 619 l 1
 524 619 l 1
 524 571 l 1
 48 571 l 1
333 524 m 1
 333 571 l 1
 524 571 l 1
 524 524 l 1
 333 524 l 1
333 476 m 1
 333 524 l 1
 476 524 l 1
 476 476 l 1
 333 476 l 1
286 429 m 1
 286 476 l 1
 429 476 l 1
 429 429 l 1
 286 429 l 1
238 381 m 1
 238 429 l 1
 429 429 l 1
 429 381 l 1
 238 381 l 1
238 333 m 1
 238 381 l 1
 381 381 l 1
 381 333 l 1
 238 333 l 1
190 286 m 1
 190 333 l 1
 333 333 l 1
 333 286 l 1
 190 286 l 1
143 238 m 1
 143 286 l 1
 333 286 l 1
 333 238 l 1
 143 238 l 1
143 190 m 1
 143 238 l 1
 286 238 l 1
 286 190 l 1
 143 190 l 1
95 143 m 1
 95 190 l 1
 286 190 l 1
 286 143 l 1
 95 143 l 1
48 95 m 1
 48 143 l 1
 238 143 l 1
 238 95 l 1
 48 95 l 1
48 48 m 1
 48 95 l 1
 524 95 l 1
 524 48 l 1
 48 48 l 1
48 0 m 1
 48 48 l 1
 524 48 l 1
 524 0 l 1
 48 0 l 1
EndSplineSet
EndChar

StartChar: bracketleft
Encoding: 91 91 60
Width: 524
Flags: HW
LayerCount: 2
Back
Fore
SplineSet
143 619 m 1
 143 667 l 1
 524 667 l 1
 524 619 l 1
 143 619 l 1
143 571 m 1
 143 619 l 1
 524 619 l 1
 524 571 l 1
 143 571 l 1
143 524 m 1
 143 571 l 1
 286 571 l 1
 286 524 l 1
 143 524 l 1
143 476 m 1
 143 524 l 1
 286 524 l 1
 286 476 l 1
 143 476 l 1
143 429 m 1
 143 476 l 1
 286 476 l 1
 286 429 l 1
 143 429 l 1
143 381 m 1
 143 429 l 1
 286 429 l 1
 286 381 l 1
 143 381 l 1
143 333 m 1
 143 381 l 1
 286 381 l 1
 286 333 l 1
 143 333 l 1
143 286 m 1
 143 333 l 1
 286 333 l 1
 286 286 l 1
 143 286 l 1
143 238 m 1
 143 286 l 1
 286 286 l 1
 286 238 l 1
 143 238 l 1
143 190 m 1
 143 238 l 1
 286 238 l 1
 286 190 l 1
 143 190 l 1
143 143 m 1
 143 190 l 1
 286 190 l 1
 286 143 l 1
 143 143 l 1
143 95 m 1
 143 143 l 1
 286 143 l 1
 286 95 l 1
 143 95 l 1
143 48 m 1
 143 95 l 1
 286 95 l 1
 286 48 l 1
 143 48 l 1
143 0 m 1
 143 48 l 1
 286 48 l 1
 286 0 l 1
 143 0 l 1
143 -48 m 1
 143 0 l 1
 286 0 l 1
 286 -48 l 1
 143 -48 l 1
143 -95 m 1
 143 -48 l 1
 286 -48 l 1
 286 -95 l 1
 143 -95 l 1
143 -143 m 1
 143 -95 l 1
 524 -95 l 1
 524 -143 l 1
 143 -143 l 1
143 -190 m 1
 143 -143 l 1
 524 -143 l 1
 524 -190 l 1
 143 -190 l 1
EndSplineSet
EndChar

StartChar: backslash
Encoding: 92 92 61
Width: 524
Flags: HW
LayerCount: 2
Back
Fore
SplineSet
0 619 m 1
 0 667 l 1
 95 667 l 1
 95 619 l 1
 0 619 l 1
48 571 m 1
 48 619 l 1
 143 619 l 1
 143 571 l 1
 48 571 l 1
48 524 m 1
 48 571 l 1
 143 571 l 1
 143 524 l 1
 48 524 l 1
95 476 m 1
 95 524 l 1
 190 524 l 1
 190 476 l 1
 95 476 l 1
95 429 m 1
 95 476 l 1
 190 476 l 1
 190 429 l 1
 95 429 l 1
143 381 m 1
 143 429 l 1
 238 429 l 1
 238 381 l 1
 143 381 l 1
143 333 m 1
 143 381 l 1
 238 381 l 1
 238 333 l 1
 143 333 l 1
190 286 m 1
 190 333 l 1
 286 333 l 1
 286 286 l 1
 190 286 l 1
190 238 m 1
 190 286 l 1
 286 286 l 1
 286 238 l 1
 190 238 l 1
238 190 m 1
 238 238 l 1
 333 238 l 1
 333 190 l 1
 238 190 l 1
238 143 m 1
 238 190 l 1
 333 190 l 1
 333 143 l 1
 238 143 l 1
286 95 m 1
 286 143 l 1
 381 143 l 1
 381 95 l 1
 286 95 l 1
286 48 m 1
 286 95 l 1
 381 95 l 1
 381 48 l 1
 286 48 l 1
333 0 m 1
 333 48 l 1
 429 48 l 1
 429 0 l 1
 333 0 l 1
333 -48 m 1
 333 0 l 1
 429 0 l 1
 429 -48 l 1
 333 -48 l 1
381 -95 m 1
 381 -48 l 1
 476 -48 l 1
 476 -95 l 1
 381 -95 l 1
381 -143 m 1
 381 -95 l 1
 476 -95 l 1
 476 -143 l 1
 381 -143 l 1
429 -190 m 1
 429 -143 l 1
 524 -143 l 1
 524 -190 l 1
 429 -190 l 1
EndSplineSet
EndChar

StartChar: bracketright
Encoding: 93 93 62
Width: 524
Flags: HW
LayerCount: 2
Back
Fore
SplineSet
0 619 m 1
 0 667 l 1
 381 667 l 1
 381 619 l 1
 0 619 l 1
0 571 m 1
 0 619 l 1
 381 619 l 1
 381 571 l 1
 0 571 l 1
238 524 m 1
 238 571 l 1
 381 571 l 1
 381 524 l 1
 238 524 l 1
238 476 m 1
 238 524 l 1
 381 524 l 1
 381 476 l 1
 238 476 l 1
238 429 m 1
 238 476 l 1
 381 476 l 1
 381 429 l 1
 238 429 l 1
238 381 m 1
 238 429 l 1
 381 429 l 1
 381 381 l 1
 238 381 l 1
238 333 m 1
 238 381 l 1
 381 381 l 1
 381 333 l 1
 238 333 l 1
238 286 m 1
 238 333 l 1
 381 333 l 1
 381 286 l 1
 238 286 l 1
238 238 m 1
 238 286 l 1
 381 286 l 1
 381 238 l 1
 238 238 l 1
238 190 m 1
 238 238 l 1
 381 238 l 1
 381 190 l 1
 238 190 l 1
238 143 m 1
 238 190 l 1
 381 190 l 1
 381 143 l 1
 238 143 l 1
238 95 m 1
 238 143 l 1
 381 143 l 1
 381 95 l 1
 238 95 l 1
238 48 m 1
 238 95 l 1
 381 95 l 1
 381 48 l 1
 238 48 l 1
238 0 m 1
 238 48 l 1
 381 48 l 1
 381 0 l 1
 238 0 l 1
238 -48 m 1
 238 0 l 1
 381 0 l 1
 381 -48 l 1
 238 -48 l 1
238 -95 m 1
 238 -48 l 1
 381 -48 l 1
 381 -95 l 1
 238 -95 l 1
0 -143 m 1
 0 -95 l 1
 381 -95 l 1
 381 -143 l 1
 0 -143 l 1
0 -190 m 1
 0 -143 l 1
 381 -143 l 1
 381 -190 l 1
 0 -190 l 1
EndSplineSet
EndChar

StartChar: asciicircum
Encoding: 94 94 63
Width: 524
Flags: HW
LayerCount: 2
Back
Fore
SplineSet
286 619 m 1
 286 667 l 1
 333 667 l 1
 333 619 l 1
 286 619 l 1
238 571 m 1
 238 619 l 1
 333 619 l 1
 333 571 l 1
 238 571 l 1
238 524 m 1
 238 571 l 1
 333 571 l 1
 333 524 l 1
 238 524 l 1
238 476 m 1
 238 524 l 1
 333 524 l 1
 333 476 l 1
 238 476 l 1
190 429 m 1
 190 476 l 1
 381 476 l 1
 381 429 l 1
 190 429 l 1
190 381 m 1
 190 429 l 1
 381 429 l 1
 381 381 l 1
 190 381 l 1
143 333 m 1
 143 381 l 1
 238 381 l 1
 238 333 l 1
 143 333 l 1
333 333 m 1
 333 381 l 1
 429 381 l 1
 429 333 l 1
 333 333 l 1
143 286 m 1
 143 333 l 1
 238 333 l 1
 238 286 l 1
 143 286 l 1
333 286 m 1
 333 333 l 1
 429 333 l 1
 429 286 l 1
 333 286 l 1
143 238 m 1
 143 286 l 1
 238 286 l 1
 238 238 l 1
 143 238 l 1
333 238 m 1
 333 286 l 1
 429 286 l 1
 429 238 l 1
 333 238 l 1
95 190 m 1
 95 238 l 1
 190 238 l 1
 190 190 l 1
 95 190 l 1
381 190 m 1
 381 238 l 1
 476 238 l 1
 476 190 l 1
 381 190 l 1
95 143 m 1
 95 190 l 1
 190 190 l 1
 190 143 l 1
 95 143 l 1
381 143 m 1
 381 190 l 1
 476 190 l 1
 476 143 l 1
 381 143 l 1
48 95 m 1
 48 143 l 1
 143 143 l 1
 143 95 l 1
 48 95 l 1
429 95 m 1
 429 143 l 1
 524 143 l 1
 524 95 l 1
 429 95 l 1
EndSplineSet
EndChar

StartChar: underscore
Encoding: 95 95 64
Width: 524
Flags: HW
LayerCount: 2
Back
Fore
SplineSet
0 -95 m 1
 0 -48 l 1
 524 -48 l 1
 524 -95 l 1
 0 -95 l 1
0 -143 m 1
 0 -95 l 1
 524 -95 l 1
 524 -143 l 1
 0 -143 l 1
EndSplineSet
EndChar

StartChar: grave
Encoding: 96 96 65
Width: 524
Flags: HW
LayerCount: 2
Back
Fore
SplineSet
143 619 m 1
 143 667 l 1
 286 667 l 1
 286 619 l 1
 143 619 l 1
190 571 m 1
 190 619 l 1
 333 619 l 1
 333 571 l 1
 190 571 l 1
238 524 m 1
 238 571 l 1
 381 571 l 1
 381 524 l 1
 238 524 l 1
EndSplineSet
EndChar

StartChar: a
Encoding: 97 97 66
Width: 524
Flags: HW
LayerCount: 2
Back
Fore
SplineSet
143 429 m 1
 143 476 l 1
 429 476 l 1
 429 429 l 1
 143 429 l 1
95 381 m 1
 95 429 l 1
 476 429 l 1
 476 381 l 1
 95 381 l 1
95 333 m 1
 95 381 l 1
 143 381 l 1
 143 333 l 1
 95 333 l 1
286 333 m 1
 286 381 l 1
 476 381 l 1
 476 333 l 1
 286 333 l 1
333 286 m 1
 333 333 l 1
 476 333 l 1
 476 286 l 1
 333 286 l 1
143 238 m 1
 143 286 l 1
 476 286 l 1
 476 238 l 1
 143 238 l 1
48 190 m 1
 48 238 l 1
 476 238 l 1
 476 190 l 1
 48 190 l 1
48 143 m 1
 48 190 l 1
 190 190 l 1
 190 143 l 1
 48 143 l 1
333 143 m 1
 333 190 l 1
 476 190 l 1
 476 143 l 1
 333 143 l 1
48 95 m 1
 48 143 l 1
 190 143 l 1
 190 95 l 1
 48 95 l 1
333 95 m 1
 333 143 l 1
 476 143 l 1
 476 95 l 1
 333 95 l 1
48 48 m 1
 48 95 l 1
 524 95 l 1
 524 48 l 1
 48 48 l 1
95 0 m 1
 95 48 l 1
 286 48 l 1
 286 0 l 1
 95 0 l 1
381 0 m 1
 381 48 l 1
 524 48 l 1
 524 0 l 1
 381 0 l 1
EndSplineSet
EndChar

StartChar: b
Encoding: 98 98 67
Width: 524
Flags: HW
LayerCount: 2
Back
Fore
SplineSet
48 619 m 1
 48 667 l 1
 190 667 l 1
 190 619 l 1
 48 619 l 1
48 571 m 1
 48 619 l 1
 190 619 l 1
 190 571 l 1
 48 571 l 1
48 524 m 1
 48 571 l 1
 190 571 l 1
 190 524 l 1
 48 524 l 1
48 476 m 1
 48 524 l 1
 190 524 l 1
 190 476 l 1
 48 476 l 1
48 429 m 1
 48 476 l 1
 190 476 l 1
 190 429 l 1
 48 429 l 1
238 429 m 1
 238 476 l 1
 429 476 l 1
 429 429 l 1
 238 429 l 1
48 381 m 1
 48 429 l 1
 190 429 l 1
 190 381 l 1
 48 381 l 1
238 381 m 1
 238 429 l 1
 476 429 l 1
 476 381 l 1
 238 381 l 1
48 333 m 1
 48 381 l 1
 524 381 l 1
 524 333 l 1
 48 333 l 1
48 286 m 1
 48 333 l 1
 238 333 l 1
 238 286 l 1
 48 286 l 1
333 286 m 1
 333 333 l 1
 524 333 l 1
 524 286 l 1
 333 286 l 1
48 238 m 1
 48 286 l 1
 190 286 l 1
 190 238 l 1
 48 238 l 1
381 238 m 1
 381 286 l 1
 524 286 l 1
 524 238 l 1
 381 238 l 1
48 190 m 1
 48 238 l 1
 190 238 l 1
 190 190 l 1
 48 190 l 1
381 190 m 1
 381 238 l 1
 524 238 l 1
 524 190 l 1
 381 190 l 1
48 143 m 1
 48 190 l 1
 190 190 l 1
 190 143 l 1
 48 143 l 1
381 143 m 1
 381 190 l 1
 524 190 l 1
 524 143 l 1
 381 143 l 1
48 95 m 1
 48 143 l 1
 190 143 l 1
 190 95 l 1
 48 95 l 1
333 95 m 1
 333 143 l 1
 476 143 l 1
 476 95 l 1
 333 95 l 1
48 48 m 1
 48 95 l 1
 476 95 l 1
 476 48 l 1
 48 48 l 1
48 0 m 1
 48 48 l 1
 429 48 l 1
 429 0 l 1
 48 0 l 1
EndSplineSet
EndChar

StartChar: c
Encoding: 99 99 68
Width: 524
Flags: HW
LayerCount: 2
Back
Fore
SplineSet
190 429 m 1
 190 476 l 1
 524 476 l 1
 524 429 l 1
 190 429 l 1
95 381 m 1
 95 429 l 1
 524 429 l 1
 524 381 l 1
 95 381 l 1
95 333 m 1
 95 381 l 1
 238 381 l 1
 238 333 l 1
 95 333 l 1
476 333 m 1
 476 381 l 1
 524 381 l 1
 524 333 l 1
 476 333 l 1
48 286 m 1
 48 333 l 1
 190 333 l 1
 190 286 l 1
 48 286 l 1
48 238 m 1
 48 286 l 1
 190 286 l 1
 190 238 l 1
 48 238 l 1
48 190 m 1
 48 238 l 1
 190 238 l 1
 190 190 l 1
 48 190 l 1
48 143 m 1
 48 190 l 1
 190 190 l 1
 190 143 l 1
 48 143 l 1
95 95 m 1
 95 143 l 1
 286 143 l 1
 286 95 l 1
 95 95 l 1
143 48 m 1
 143 95 l 1
 524 95 l 1
 524 48 l 1
 143 48 l 1
190 0 m 1
 190 48 l 1
 524 48 l 1
 524 0 l 1
 190 0 l 1
EndSplineSet
EndChar

StartChar: d
Encoding: 100 100 69
Width: 524
Flags: HW
LayerCount: 2
Back
Fore
SplineSet
381 619 m 1
 381 667 l 1
 524 667 l 1
 524 619 l 1
 381 619 l 1
381 571 m 1
 381 619 l 1
 524 619 l 1
 524 571 l 1
 381 571 l 1
381 524 m 1
 381 571 l 1
 524 571 l 1
 524 524 l 1
 381 524 l 1
381 476 m 1
 381 524 l 1
 524 524 l 1
 524 476 l 1
 381 476 l 1
143 429 m 1
 143 476 l 1
 333 476 l 1
 333 429 l 1
 143 429 l 1
381 429 m 1
 381 476 l 1
 524 476 l 1
 524 429 l 1
 381 429 l 1
95 381 m 1
 95 429 l 1
 524 429 l 1
 524 381 l 1
 95 381 l 1
95 333 m 1
 95 381 l 1
 238 381 l 1
 238 333 l 1
 95 333 l 1
381 333 m 1
 381 381 l 1
 524 381 l 1
 524 333 l 1
 381 333 l 1
48 286 m 1
 48 333 l 1
 190 333 l 1
 190 286 l 1
 48 286 l 1
381 286 m 1
 381 333 l 1
 524 333 l 1
 524 286 l 1
 381 286 l 1
48 238 m 1
 48 286 l 1
 190 286 l 1
 190 238 l 1
 48 238 l 1
381 238 m 1
 381 286 l 1
 524 286 l 1
 524 238 l 1
 381 238 l 1
48 190 m 1
 48 238 l 1
 190 238 l 1
 190 190 l 1
 48 190 l 1
381 190 m 1
 381 238 l 1
 524 238 l 1
 524 190 l 1
 381 190 l 1
48 143 m 1
 48 190 l 1
 238 190 l 1
 238 143 l 1
 48 143 l 1
333 143 m 1
 333 190 l 1
 524 190 l 1
 524 143 l 1
 333 143 l 1
48 95 m 1
 48 143 l 1
 524 143 l 1
 524 95 l 1
 48 95 l 1
95 48 m 1
 95 95 l 1
 524 95 l 1
 524 48 l 1
 95 48 l 1
143 0 m 1
 143 48 l 1
 333 48 l 1
 333 0 l 1
 143 0 l 1
381 0 m 1
 381 48 l 1
 524 48 l 1
 524 0 l 1
 381 0 l 1
EndSplineSet
EndChar

StartChar: e
Encoding: 101 101 70
Width: 524
Flags: HW
LayerCount: 2
Back
Fore
SplineSet
190 429 m 1
 190 476 l 1
 429 476 l 1
 429 429 l 1
 190 429 l 1
95 381 m 1
 95 429 l 1
 476 429 l 1
 476 381 l 1
 95 381 l 1
95 333 m 1
 95 381 l 1
 238 381 l 1
 238 333 l 1
 95 333 l 1
381 333 m 1
 381 381 l 1
 476 381 l 1
 476 333 l 1
 381 333 l 1
48 286 m 1
 48 333 l 1
 190 333 l 1
 190 286 l 1
 48 286 l 1
381 286 m 1
 381 333 l 1
 524 333 l 1
 524 286 l 1
 381 286 l 1
48 238 m 1
 48 286 l 1
 524 286 l 1
 524 238 l 1
 48 238 l 1
48 190 m 1
 48 238 l 1
 524 238 l 1
 524 190 l 1
 48 190 l 1
48 143 m 1
 48 190 l 1
 190 190 l 1
 190 143 l 1
 48 143 l 1
95 95 m 1
 95 143 l 1
 238 143 l 1
 238 95 l 1
 95 95 l 1
476 95 m 1
 476 143 l 1
 524 143 l 1
 524 95 l 1
 476 95 l 1
95 48 m 1
 95 95 l 1
 524 95 l 1
 524 48 l 1
 95 48 l 1
190 0 m 1
 190 48 l 1
 476 48 l 1
 476 0 l 1
 190 0 l 1
EndSplineSet
EndChar

StartChar: f
Encoding: 102 102 71
Width: 524
Flags: HW
LayerCount: 2
Back
Fore
SplineSet
286 619 m 1
 286 667 l 1
 571 667 l 1
 571 619 l 1
 286 619 l 1
190 571 m 1
 190 619 l 1
 571 619 l 1
 571 571 l 1
 190 571 l 1
190 524 m 1
 190 571 l 1
 333 571 l 1
 333 524 l 1
 190 524 l 1
524 524 m 1
 524 571 l 1
 571 571 l 1
 571 524 l 1
 524 524 l 1
190 476 m 1
 190 524 l 1
 333 524 l 1
 333 476 l 1
 190 476 l 1
95 429 m 1
 95 476 l 1
 524 476 l 1
 524 429 l 1
 95 429 l 1
95 381 m 1
 95 429 l 1
 524 429 l 1
 524 381 l 1
 95 381 l 1
190 333 m 1
 190 381 l 1
 333 381 l 1
 333 333 l 1
 190 333 l 1
190 286 m 1
 190 333 l 1
 333 333 l 1
 333 286 l 1
 190 286 l 1
190 238 m 1
 190 286 l 1
 333 286 l 1
 333 238 l 1
 190 238 l 1
190 190 m 1
 190 238 l 1
 333 238 l 1
 333 190 l 1
 190 190 l 1
190 143 m 1
 190 190 l 1
 333 190 l 1
 333 143 l 1
 190 143 l 1
190 95 m 1
 190 143 l 1
 333 143 l 1
 333 95 l 1
 190 95 l 1
190 48 m 1
 190 95 l 1
 333 95 l 1
 333 48 l 1
 190 48 l 1
190 0 m 1
 190 48 l 1
 333 48 l 1
 333 0 l 1
 190 0 l 1
EndSplineSet
EndChar

StartChar: g
Encoding: 103 103 72
Width: 524
Flags: HW
LayerCount: 2
Back
Fore
SplineSet
143 429 m 1
 143 476 l 1
 333 476 l 1
 333 429 l 1
 143 429 l 1
429 429 m 1
 429 476 l 1
 524 476 l 1
 524 429 l 1
 429 429 l 1
95 381 m 1
 95 429 l 1
 524 429 l 1
 524 381 l 1
 95 381 l 1
48 333 m 1
 48 381 l 1
 238 381 l 1
 238 333 l 1
 48 333 l 1
333 333 m 1
 333 381 l 1
 524 381 l 1
 524 333 l 1
 333 333 l 1
48 286 m 1
 48 333 l 1
 190 333 l 1
 190 286 l 1
 48 286 l 1
381 286 m 1
 381 333 l 1
 524 333 l 1
 524 286 l 1
 381 286 l 1
48 238 m 1
 48 286 l 1
 190 286 l 1
 190 238 l 1
 48 238 l 1
381 238 m 1
 381 286 l 1
 524 286 l 1
 524 238 l 1
 381 238 l 1
48 190 m 1
 48 238 l 1
 190 238 l 1
 190 190 l 1
 48 190 l 1
381 190 m 1
 381 238 l 1
 524 238 l 1
 524 190 l 1
 381 190 l 1
48 143 m 1
 48 190 l 1
 238 190 l 1
 238 143 l 1
 48 143 l 1
333 143 m 1
 333 190 l 1
 524 190 l 1
 524 143 l 1
 333 143 l 1
48 95 m 1
 48 143 l 1
 524 143 l 1
 524 95 l 1
 48 95 l 1
95 48 m 1
 95 95 l 1
 524 95 l 1
 524 48 l 1
 95 48 l 1
143 0 m 1
 143 48 l 1
 333 48 l 1
 333 0 l 1
 143 0 l 1
381 0 m 1
 381 48 l 1
 524 48 l 1
 524 0 l 1
 381 0 l 1
381 -48 m 1
 381 0 l 1
 524 0 l 1
 524 -48 l 1
 381 -48 l 1
95 -95 m 1
 95 -48 l 1
 143 -48 l 1
 143 -95 l 1
 95 -95 l 1
333 -95 m 1
 333 -48 l 1
 476 -48 l 1
 476 -95 l 1
 333 -95 l 1
95 -143 m 1
 95 -95 l 1
 476 -95 l 1
 476 -143 l 1
 95 -143 l 1
143 -190 m 1
 143 -143 l 1
 381 -143 l 1
 381 -190 l 1
 143 -190 l 1
EndSplineSet
EndChar

StartChar: h
Encoding: 104 104 73
Width: 524
Flags: HW
LayerCount: 2
Back
Fore
SplineSet
48 619 m 1
 48 667 l 1
 190 667 l 1
 190 619 l 1
 48 619 l 1
48 571 m 1
 48 619 l 1
 190 619 l 1
 190 571 l 1
 48 571 l 1
48 524 m 1
 48 571 l 1
 190 571 l 1
 190 524 l 1
 48 524 l 1
48 476 m 1
 48 524 l 1
 190 524 l 1
 190 476 l 1
 48 476 l 1
48 429 m 1
 48 476 l 1
 190 476 l 1
 190 429 l 1
 48 429 l 1
238 429 m 1
 238 476 l 1
 429 476 l 1
 429 429 l 1
 238 429 l 1
48 381 m 1
 48 429 l 1
 476 429 l 1
 476 381 l 1
 48 381 l 1
48 333 m 1
 48 381 l 1
 476 381 l 1
 476 333 l 1
 48 333 l 1
48 286 m 1
 48 333 l 1
 238 333 l 1
 238 286 l 1
 48 286 l 1
333 286 m 1
 333 333 l 1
 476 333 l 1
 476 286 l 1
 333 286 l 1
48 238 m 1
 48 286 l 1
 190 286 l 1
 190 238 l 1
 48 238 l 1
333 238 m 1
 333 286 l 1
 476 286 l 1
 476 238 l 1
 333 238 l 1
48 190 m 1
 48 238 l 1
 190 238 l 1
 190 190 l 1
 48 190 l 1
333 190 m 1
 333 238 l 1
 476 238 l 1
 476 190 l 1
 333 190 l 1
48 143 m 1
 48 190 l 1
 190 190 l 1
 190 143 l 1
 48 143 l 1
333 143 m 1
 333 190 l 1
 476 190 l 1
 476 143 l 1
 333 143 l 1
48 95 m 1
 48 143 l 1
 190 143 l 1
 190 95 l 1
 48 95 l 1
333 95 m 1
 333 143 l 1
 476 143 l 1
 476 95 l 1
 333 95 l 1
48 48 m 1
 48 95 l 1
 190 95 l 1
 190 48 l 1
 48 48 l 1
333 48 m 1
 333 95 l 1
 476 95 l 1
 476 48 l 1
 333 48 l 1
48 0 m 1
 48 48 l 1
 190 48 l 1
 190 0 l 1
 48 0 l 1
333 0 m 1
 333 48 l 1
 476 48 l 1
 476 0 l 1
 333 0 l 1
EndSplineSet
EndChar

StartChar: i
Encoding: 105 105 74
Width: 524
Flags: HW
LayerCount: 2
Back
Fore
SplineSet
286 619 m 1
 286 667 l 1
 429 667 l 1
 429 619 l 1
 286 619 l 1
286 571 m 1
 286 619 l 1
 429 619 l 1
 429 571 l 1
 286 571 l 1
286 524 m 1
 286 571 l 1
 429 571 l 1
 429 524 l 1
 286 524 l 1
95 429 m 1
 95 476 l 1
 429 476 l 1
 429 429 l 1
 95 429 l 1
95 381 m 1
 95 429 l 1
 429 429 l 1
 429 381 l 1
 95 381 l 1
286 333 m 1
 286 381 l 1
 429 381 l 1
 429 333 l 1
 286 333 l 1
286 286 m 1
 286 333 l 1
 429 333 l 1
 429 286 l 1
 286 286 l 1
286 238 m 1
 286 286 l 1
 429 286 l 1
 429 238 l 1
 286 238 l 1
286 190 m 1
 286 238 l 1
 429 238 l 1
 429 190 l 1
 286 190 l 1
286 143 m 1
 286 190 l 1
 429 190 l 1
 429 143 l 1
 286 143 l 1
286 95 m 1
 286 143 l 1
 429 143 l 1
 429 95 l 1
 286 95 l 1
286 48 m 1
 286 95 l 1
 429 95 l 1
 429 48 l 1
 286 48 l 1
286 0 m 1
 286 48 l 1
 429 48 l 1
 429 0 l 1
 286 0 l 1
EndSplineSet
EndChar

StartChar: j
Encoding: 106 106 75
Width: 524
Flags: HW
LayerCount: 2
Back
Fore
SplineSet
286 619 m 1
 286 667 l 1
 429 667 l 1
 429 619 l 1
 286 619 l 1
286 571 m 1
 286 619 l 1
 429 619 l 1
 429 571 l 1
 286 571 l 1
286 524 m 1
 286 571 l 1
 429 571 l 1
 429 524 l 1
 286 524 l 1
95 429 m 1
 95 476 l 1
 429 476 l 1
 429 429 l 1
 95 429 l 1
95 381 m 1
 95 429 l 1
 429 429 l 1
 429 381 l 1
 95 381 l 1
286 333 m 1
 286 381 l 1
 429 381 l 1
 429 333 l 1
 286 333 l 1
286 286 m 1
 286 333 l 1
 429 333 l 1
 429 286 l 1
 286 286 l 1
286 238 m 1
 286 286 l 1
 429 286 l 1
 429 238 l 1
 286 238 l 1
286 190 m 1
 286 238 l 1
 429 238 l 1
 429 190 l 1
 286 190 l 1
286 143 m 1
 286 190 l 1
 429 190 l 1
 429 143 l 1
 286 143 l 1
286 95 m 1
 286 143 l 1
 429 143 l 1
 429 95 l 1
 286 95 l 1
286 48 m 1
 286 95 l 1
 429 95 l 1
 429 48 l 1
 286 48 l 1
286 0 m 1
 286 48 l 1
 429 48 l 1
 429 0 l 1
 286 0 l 1
286 -48 m 1
 286 0 l 1
 429 0 l 1
 429 -48 l 1
 286 -48 l 1
48 -95 m 1
 48 -48 l 1
 95 -48 l 1
 95 -95 l 1
 48 -95 l 1
286 -95 m 1
 286 -48 l 1
 429 -48 l 1
 429 -95 l 1
 286 -95 l 1
48 -143 m 1
 48 -95 l 1
 381 -95 l 1
 381 -143 l 1
 48 -143 l 1
48 -190 m 1
 48 -143 l 1
 333 -143 l 1
 333 -190 l 1
 48 -190 l 1
EndSplineSet
EndChar

StartChar: k
Encoding: 107 107 76
Width: 524
Flags: HW
LayerCount: 2
Back
Fore
SplineSet
48 619 m 1
 48 667 l 1
 190 667 l 1
 190 619 l 1
 48 619 l 1
48 571 m 1
 48 619 l 1
 190 619 l 1
 190 571 l 1
 48 571 l 1
48 524 m 1
 48 571 l 1
 190 571 l 1
 190 524 l 1
 48 524 l 1
48 476 m 1
 48 524 l 1
 190 524 l 1
 190 476 l 1
 48 476 l 1
48 429 m 1
 48 476 l 1
 190 476 l 1
 190 429 l 1
 48 429 l 1
333 429 m 1
 333 476 l 1
 476 476 l 1
 476 429 l 1
 333 429 l 1
48 381 m 1
 48 429 l 1
 190 429 l 1
 190 381 l 1
 48 381 l 1
286 381 m 1
 286 429 l 1
 429 429 l 1
 429 381 l 1
 286 381 l 1
48 333 m 1
 48 381 l 1
 190 381 l 1
 190 333 l 1
 48 333 l 1
286 333 m 1
 286 381 l 1
 381 381 l 1
 381 333 l 1
 286 333 l 1
48 286 m 1
 48 333 l 1
 190 333 l 1
 190 286 l 1
 48 286 l 1
238 286 m 1
 238 333 l 1
 333 333 l 1
 333 286 l 1
 238 286 l 1
48 238 m 1
 48 286 l 1
 333 286 l 1
 333 238 l 1
 48 238 l 1
48 190 m 1
 48 238 l 1
 190 238 l 1
 190 190 l 1
 48 190 l 1
238 190 m 1
 238 238 l 1
 381 238 l 1
 381 190 l 1
 238 190 l 1
48 143 m 1
 48 190 l 1
 190 190 l 1
 190 143 l 1
 48 143 l 1
238 143 m 1
 238 190 l 1
 429 190 l 1
 429 143 l 1
 238 143 l 1
48 95 m 1
 48 143 l 1
 190 143 l 1
 190 95 l 1
 48 95 l 1
286 95 m 1
 286 143 l 1
 429 143 l 1
 429 95 l 1
 286 95 l 1
48 48 m 1
 48 95 l 1
 190 95 l 1
 190 48 l 1
 48 48 l 1
333 48 m 1
 333 95 l 1
 476 95 l 1
 476 48 l 1
 333 48 l 1
48 0 m 1
 48 48 l 1
 190 48 l 1
 190 0 l 1
 48 0 l 1
333 0 m 1
 333 48 l 1
 524 48 l 1
 524 0 l 1
 333 0 l 1
EndSplineSet
EndChar

StartChar: l
Encoding: 108 108 77
Width: 524
Flags: HW
LayerCount: 2
Back
Fore
SplineSet
48 619 m 1
 48 667 l 1
 381 667 l 1
 381 619 l 1
 48 619 l 1
48 571 m 1
 48 619 l 1
 381 619 l 1
 381 571 l 1
 48 571 l 1
238 524 m 1
 238 571 l 1
 381 571 l 1
 381 524 l 1
 238 524 l 1
238 476 m 1
 238 524 l 1
 381 524 l 1
 381 476 l 1
 238 476 l 1
238 429 m 1
 238 476 l 1
 381 476 l 1
 381 429 l 1
 238 429 l 1
238 381 m 1
 238 429 l 1
 381 429 l 1
 381 381 l 1
 238 381 l 1
238 333 m 1
 238 381 l 1
 381 381 l 1
 381 333 l 1
 238 333 l 1
238 286 m 1
 238 333 l 1
 381 333 l 1
 381 286 l 1
 238 286 l 1
238 238 m 1
 238 286 l 1
 381 286 l 1
 381 238 l 1
 238 238 l 1
238 190 m 1
 238 238 l 1
 381 238 l 1
 381 190 l 1
 238 190 l 1
238 143 m 1
 238 190 l 1
 381 190 l 1
 381 143 l 1
 238 143 l 1
238 95 m 1
 238 143 l 1
 381 143 l 1
 381 95 l 1
 238 95 l 1
238 48 m 1
 238 95 l 1
 381 95 l 1
 381 48 l 1
 238 48 l 1
238 0 m 1
 238 48 l 1
 381 48 l 1
 381 0 l 1
 238 0 l 1
EndSplineSet
EndChar

StartChar: m
Encoding: 109 109 78
Width: 524
Flags: HW
LayerCount: 2
Back
Fore
SplineSet
0 429 m 1
 0 476 l 1
 143 476 l 1
 143 429 l 1
 0 429 l 1
190 429 m 1
 190 476 l 1
 286 476 l 1
 286 429 l 1
 190 429 l 1
381 429 m 1
 381 476 l 1
 524 476 l 1
 524 429 l 1
 381 429 l 1
0 381 m 1
 0 429 l 1
 524 429 l 1
 524 381 l 1
 0 381 l 1
0 333 m 1
 0 381 l 1
 524 381 l 1
 524 333 l 1
 0 333 l 1
0 286 m 1
 0 333 l 1
 143 333 l 1
 143 286 l 1
 0 286 l 1
190 286 m 1
 190 333 l 1
 333 333 l 1
 333 286 l 1
 190 286 l 1
381 286 m 1
 381 333 l 1
 524 333 l 1
 524 286 l 1
 381 286 l 1
0 238 m 1
 0 286 l 1
 143 286 l 1
 143 238 l 1
 0 238 l 1
190 238 m 1
 190 286 l 1
 333 286 l 1
 333 238 l 1
 190 238 l 1
381 238 m 1
 381 286 l 1
 524 286 l 1
 524 238 l 1
 381 238 l 1
0 190 m 1
 0 238 l 1
 143 238 l 1
 143 190 l 1
 0 190 l 1
190 190 m 1
 190 238 l 1
 333 238 l 1
 333 190 l 1
 190 190 l 1
381 190 m 1
 381 238 l 1
 524 238 l 1
 524 190 l 1
 381 190 l 1
0 143 m 1
 0 190 l 1
 143 190 l 1
 143 143 l 1
 0 143 l 1
190 143 m 1
 190 190 l 1
 333 190 l 1
 333 143 l 1
 190 143 l 1
381 143 m 1
 381 190 l 1
 524 190 l 1
 524 143 l 1
 381 143 l 1
0 95 m 1
 0 143 l 1
 143 143 l 1
 143 95 l 1
 0 95 l 1
190 95 m 1
 190 143 l 1
 333 143 l 1
 333 95 l 1
 190 95 l 1
381 95 m 1
 381 143 l 1
 524 143 l 1
 524 95 l 1
 381 95 l 1
0 48 m 1
 0 95 l 1
 143 95 l 1
 143 48 l 1
 0 48 l 1
190 48 m 1
 190 95 l 1
 333 95 l 1
 333 48 l 1
 190 48 l 1
381 48 m 1
 381 95 l 1
 524 95 l 1
 524 48 l 1
 381 48 l 1
0 0 m 1
 0 48 l 1
 143 48 l 1
 143 0 l 1
 0 0 l 1
190 0 m 1
 190 48 l 1
 333 48 l 1
 333 0 l 1
 190 0 l 1
381 0 m 1
 381 48 l 1
 524 48 l 1
 524 0 l 1
 381 0 l 1
EndSplineSet
EndChar

StartChar: n
Encoding: 110 110 79
Width: 524
Flags: HW
LayerCount: 2
Back
Fore
SplineSet
48 429 m 1
 48 476 l 1
 190 476 l 1
 190 429 l 1
 48 429 l 1
238 429 m 1
 238 476 l 1
 429 476 l 1
 429 429 l 1
 238 429 l 1
48 381 m 1
 48 429 l 1
 476 429 l 1
 476 381 l 1
 48 381 l 1
48 333 m 1
 48 381 l 1
 476 381 l 1
 476 333 l 1
 48 333 l 1
48 286 m 1
 48 333 l 1
 238 333 l 1
 238 286 l 1
 48 286 l 1
333 286 m 1
 333 333 l 1
 476 333 l 1
 476 286 l 1
 333 286 l 1
48 238 m 1
 48 286 l 1
 190 286 l 1
 190 238 l 1
 48 238 l 1
333 238 m 1
 333 286 l 1
 476 286 l 1
 476 238 l 1
 333 238 l 1
48 190 m 1
 48 238 l 1
 190 238 l 1
 190 190 l 1
 48 190 l 1
333 190 m 1
 333 238 l 1
 476 238 l 1
 476 190 l 1
 333 190 l 1
48 143 m 1
 48 190 l 1
 190 190 l 1
 190 143 l 1
 48 143 l 1
333 143 m 1
 333 190 l 1
 476 190 l 1
 476 143 l 1
 333 143 l 1
48 95 m 1
 48 143 l 1
 190 143 l 1
 190 95 l 1
 48 95 l 1
333 95 m 1
 333 143 l 1
 476 143 l 1
 476 95 l 1
 333 95 l 1
48 48 m 1
 48 95 l 1
 190 95 l 1
 190 48 l 1
 48 48 l 1
333 48 m 1
 333 95 l 1
 476 95 l 1
 476 48 l 1
 333 48 l 1
48 0 m 1
 48 48 l 1
 190 48 l 1
 190 0 l 1
 48 0 l 1
333 0 m 1
 333 48 l 1
 476 48 l 1
 476 0 l 1
 333 0 l 1
EndSplineSet
EndChar

StartChar: o
Encoding: 111 111 80
Width: 524
Flags: HW
LayerCount: 2
Back
Fore
SplineSet
143 429 m 1
 143 476 l 1
 381 476 l 1
 381 429 l 1
 143 429 l 1
48 381 m 1
 48 429 l 1
 476 429 l 1
 476 381 l 1
 48 381 l 1
48 333 m 1
 48 381 l 1
 190 381 l 1
 190 333 l 1
 48 333 l 1
333 333 m 1
 333 381 l 1
 476 381 l 1
 476 333 l 1
 333 333 l 1
0 286 m 1
 0 333 l 1
 143 333 l 1
 143 286 l 1
 0 286 l 1
381 286 m 1
 381 333 l 1
 524 333 l 1
 524 286 l 1
 381 286 l 1
0 238 m 1
 0 286 l 1
 143 286 l 1
 143 238 l 1
 0 238 l 1
381 238 m 1
 381 286 l 1
 524 286 l 1
 524 238 l 1
 381 238 l 1
0 190 m 1
 0 238 l 1
 143 238 l 1
 143 190 l 1
 0 190 l 1
381 190 m 1
 381 238 l 1
 524 238 l 1
 524 190 l 1
 381 190 l 1
0 143 m 1
 0 190 l 1
 143 190 l 1
 143 143 l 1
 0 143 l 1
381 143 m 1
 381 190 l 1
 524 190 l 1
 524 143 l 1
 381 143 l 1
48 95 m 1
 48 143 l 1
 190 143 l 1
 190 95 l 1
 48 95 l 1
333 95 m 1
 333 143 l 1
 476 143 l 1
 476 95 l 1
 333 95 l 1
48 48 m 1
 48 95 l 1
 476 95 l 1
 476 48 l 1
 48 48 l 1
143 0 m 1
 143 48 l 1
 381 48 l 1
 381 0 l 1
 143 0 l 1
EndSplineSet
EndChar

StartChar: p
Encoding: 112 112 81
Width: 524
Flags: HW
LayerCount: 2
Back
Fore
SplineSet
48 429 m 1
 48 476 l 1
 190 476 l 1
 190 429 l 1
 48 429 l 1
238 429 m 1
 238 476 l 1
 429 476 l 1
 429 429 l 1
 238 429 l 1
48 381 m 1
 48 429 l 1
 476 429 l 1
 476 381 l 1
 48 381 l 1
48 333 m 1
 48 381 l 1
 524 381 l 1
 524 333 l 1
 48 333 l 1
48 286 m 1
 48 333 l 1
 238 333 l 1
 238 286 l 1
 48 286 l 1
333 286 m 1
 333 333 l 1
 524 333 l 1
 524 286 l 1
 333 286 l 1
48 238 m 1
 48 286 l 1
 190 286 l 1
 190 238 l 1
 48 238 l 1
381 238 m 1
 381 286 l 1
 524 286 l 1
 524 238 l 1
 381 238 l 1
48 190 m 1
 48 238 l 1
 190 238 l 1
 190 190 l 1
 48 190 l 1
381 190 m 1
 381 238 l 1
 524 238 l 1
 524 190 l 1
 381 190 l 1
48 143 m 1
 48 190 l 1
 190 190 l 1
 190 143 l 1
 48 143 l 1
381 143 m 1
 381 190 l 1
 524 190 l 1
 524 143 l 1
 381 143 l 1
48 95 m 1
 48 143 l 1
 190 143 l 1
 190 95 l 1
 48 95 l 1
333 95 m 1
 333 143 l 1
 476 143 l 1
 476 95 l 1
 333 95 l 1
48 48 m 1
 48 95 l 1
 476 95 l 1
 476 48 l 1
 48 48 l 1
48 0 m 1
 48 48 l 1
 190 48 l 1
 190 0 l 1
 48 0 l 1
238 0 m 1
 238 48 l 1
 429 48 l 1
 429 0 l 1
 238 0 l 1
48 -48 m 1
 48 0 l 1
 190 0 l 1
 190 -48 l 1
 48 -48 l 1
48 -95 m 1
 48 -48 l 1
 190 -48 l 1
 190 -95 l 1
 48 -95 l 1
48 -143 m 1
 48 -95 l 1
 190 -95 l 1
 190 -143 l 1
 48 -143 l 1
48 -190 m 1
 48 -143 l 1
 190 -143 l 1
 190 -190 l 1
 48 -190 l 1
EndSplineSet
EndChar

StartChar: q
Encoding: 113 113 82
Width: 524
Flags: HW
LayerCount: 2
Back
Fore
SplineSet
143 429 m 1
 143 476 l 1
 524 476 l 1
 524 429 l 1
 143 429 l 1
95 381 m 1
 95 429 l 1
 524 429 l 1
 524 381 l 1
 95 381 l 1
95 333 m 1
 95 381 l 1
 238 381 l 1
 238 333 l 1
 95 333 l 1
381 333 m 1
 381 381 l 1
 524 381 l 1
 524 333 l 1
 381 333 l 1
48 286 m 1
 48 333 l 1
 190 333 l 1
 190 286 l 1
 48 286 l 1
381 286 m 1
 381 333 l 1
 524 333 l 1
 524 286 l 1
 381 286 l 1
48 238 m 1
 48 286 l 1
 190 286 l 1
 190 238 l 1
 48 238 l 1
381 238 m 1
 381 286 l 1
 524 286 l 1
 524 238 l 1
 381 238 l 1
48 190 m 1
 48 238 l 1
 190 238 l 1
 190 190 l 1
 48 190 l 1
381 190 m 1
 381 238 l 1
 524 238 l 1
 524 190 l 1
 381 190 l 1
48 143 m 1
 48 190 l 1
 238 190 l 1
 238 143 l 1
 48 143 l 1
333 143 m 1
 333 190 l 1
 524 190 l 1
 524 143 l 1
 333 143 l 1
48 95 m 1
 48 143 l 1
 524 143 l 1
 524 95 l 1
 48 95 l 1
95 48 m 1
 95 95 l 1
 333 95 l 1
 333 48 l 1
 95 48 l 1
381 48 m 1
 381 95 l 1
 524 95 l 1
 524 48 l 1
 381 48 l 1
143 0 m 1
 143 48 l 1
 333 48 l 1
 333 0 l 1
 143 0 l 1
381 0 m 1
 381 48 l 1
 524 48 l 1
 524 0 l 1
 381 0 l 1
381 -48 m 1
 381 0 l 1
 524 0 l 1
 524 -48 l 1
 381 -48 l 1
381 -95 m 1
 381 -48 l 1
 524 -48 l 1
 524 -95 l 1
 381 -95 l 1
381 -143 m 1
 381 -95 l 1
 524 -95 l 1
 524 -143 l 1
 381 -143 l 1
381 -190 m 1
 381 -143 l 1
 524 -143 l 1
 524 -190 l 1
 381 -190 l 1
EndSplineSet
EndChar

StartChar: r
Encoding: 114 114 83
Width: 524
Flags: HW
LayerCount: 2
Back
Fore
SplineSet
95 429 m 1
 95 476 l 1
 238 476 l 1
 238 429 l 1
 95 429 l 1
333 429 m 1
 333 476 l 1
 524 476 l 1
 524 429 l 1
 333 429 l 1
95 381 m 1
 95 429 l 1
 524 429 l 1
 524 381 l 1
 95 381 l 1
95 333 m 1
 95 381 l 1
 524 381 l 1
 524 333 l 1
 95 333 l 1
95 286 m 1
 95 333 l 1
 286 333 l 1
 286 286 l 1
 95 286 l 1
429 286 m 1
 429 333 l 1
 524 333 l 1
 524 286 l 1
 429 286 l 1
95 238 m 1
 95 286 l 1
 238 286 l 1
 238 238 l 1
 95 238 l 1
95 190 m 1
 95 238 l 1
 238 238 l 1
 238 190 l 1
 95 190 l 1
95 143 m 1
 95 190 l 1
 238 190 l 1
 238 143 l 1
 95 143 l 1
95 95 m 1
 95 143 l 1
 238 143 l 1
 238 95 l 1
 95 95 l 1
95 48 m 1
 95 95 l 1
 238 95 l 1
 238 48 l 1
 95 48 l 1
95 0 m 1
 95 48 l 1
 238 48 l 1
 238 0 l 1
 95 0 l 1
EndSplineSet
EndChar

StartChar: s
Encoding: 115 115 84
Width: 524
Flags: HW
LayerCount: 2
Back
Fore
SplineSet
143 429 m 1
 143 476 l 1
 429 476 l 1
 429 429 l 1
 143 429 l 1
95 381 m 1
 95 429 l 1
 429 429 l 1
 429 381 l 1
 95 381 l 1
48 333 m 1
 48 381 l 1
 190 381 l 1
 190 333 l 1
 48 333 l 1
381 333 m 1
 381 381 l 1
 429 381 l 1
 429 333 l 1
 381 333 l 1
48 286 m 1
 48 333 l 1
 286 333 l 1
 286 286 l 1
 48 286 l 1
48 238 m 1
 48 286 l 1
 429 286 l 1
 429 238 l 1
 48 238 l 1
143 190 m 1
 143 238 l 1
 476 238 l 1
 476 190 l 1
 143 190 l 1
286 143 m 1
 286 190 l 1
 476 190 l 1
 476 143 l 1
 286 143 l 1
48 95 m 1
 48 143 l 1
 95 143 l 1
 95 95 l 1
 48 95 l 1
333 95 m 1
 333 143 l 1
 476 143 l 1
 476 95 l 1
 333 95 l 1
48 48 m 1
 48 95 l 1
 429 95 l 1
 429 48 l 1
 48 48 l 1
95 0 m 1
 95 48 l 1
 381 48 l 1
 381 0 l 1
 95 0 l 1
EndSplineSet
EndChar

StartChar: t
Encoding: 116 116 85
Width: 524
Flags: HW
LayerCount: 2
Back
Fore
SplineSet
143 571 m 1
 143 619 l 1
 286 619 l 1
 286 571 l 1
 143 571 l 1
143 524 m 1
 143 571 l 1
 286 571 l 1
 286 524 l 1
 143 524 l 1
143 476 m 1
 143 524 l 1
 286 524 l 1
 286 476 l 1
 143 476 l 1
48 429 m 1
 48 476 l 1
 476 476 l 1
 476 429 l 1
 48 429 l 1
48 381 m 1
 48 429 l 1
 476 429 l 1
 476 381 l 1
 48 381 l 1
143 333 m 1
 143 381 l 1
 286 381 l 1
 286 333 l 1
 143 333 l 1
143 286 m 1
 143 333 l 1
 286 333 l 1
 286 286 l 1
 143 286 l 1
143 238 m 1
 143 286 l 1
 286 286 l 1
 286 238 l 1
 143 238 l 1
143 190 m 1
 143 238 l 1
 286 238 l 1
 286 190 l 1
 143 190 l 1
143 143 m 1
 143 190 l 1
 286 190 l 1
 286 143 l 1
 143 143 l 1
143 95 m 1
 143 143 l 1
 286 143 l 1
 286 95 l 1
 143 95 l 1
190 48 m 1
 190 95 l 1
 476 95 l 1
 476 48 l 1
 190 48 l 1
238 0 m 1
 238 48 l 1
 476 48 l 1
 476 0 l 1
 238 0 l 1
EndSplineSet
EndChar

StartChar: u
Encoding: 117 117 86
Width: 524
Flags: HW
LayerCount: 2
Back
Fore
SplineSet
48 429 m 1
 48 476 l 1
 190 476 l 1
 190 429 l 1
 48 429 l 1
333 429 m 1
 333 476 l 1
 476 476 l 1
 476 429 l 1
 333 429 l 1
48 381 m 1
 48 429 l 1
 190 429 l 1
 190 381 l 1
 48 381 l 1
333 381 m 1
 333 429 l 1
 476 429 l 1
 476 381 l 1
 333 381 l 1
48 333 m 1
 48 381 l 1
 190 381 l 1
 190 333 l 1
 48 333 l 1
333 333 m 1
 333 381 l 1
 476 381 l 1
 476 333 l 1
 333 333 l 1
48 286 m 1
 48 333 l 1
 190 333 l 1
 190 286 l 1
 48 286 l 1
333 286 m 1
 333 333 l 1
 476 333 l 1
 476 286 l 1
 333 286 l 1
48 238 m 1
 48 286 l 1
 190 286 l 1
 190 238 l 1
 48 238 l 1
333 238 m 1
 333 286 l 1
 476 286 l 1
 476 238 l 1
 333 238 l 1
48 190 m 1
 48 238 l 1
 190 238 l 1
 190 190 l 1
 48 190 l 1
333 190 m 1
 333 238 l 1
 476 238 l 1
 476 190 l 1
 333 190 l 1
48 143 m 1
 48 190 l 1
 190 190 l 1
 190 143 l 1
 48 143 l 1
286 143 m 1
 286 190 l 1
 476 190 l 1
 476 143 l 1
 286 143 l 1
48 95 m 1
 48 143 l 1
 476 143 l 1
 476 95 l 1
 48 95 l 1
48 48 m 1
 48 95 l 1
 476 95 l 1
 476 48 l 1
 48 48 l 1
95 0 m 1
 95 48 l 1
 286 48 l 1
 286 0 l 1
 95 0 l 1
333 0 m 1
 333 48 l 1
 476 48 l 1
 476 0 l 1
 333 0 l 1
EndSplineSet
EndChar

StartChar: v
Encoding: 118 118 87
Width: 524
Flags: HW
LayerCount: 2
Back
Fore
SplineSet
0 429 m 1
 0 476 l 1
 143 476 l 1
 143 429 l 1
 0 429 l 1
429 429 m 1
 429 476 l 1
 524 476 l 1
 524 429 l 1
 429 429 l 1
0 381 m 1
 0 429 l 1
 190 429 l 1
 190 381 l 1
 0 381 l 1
381 381 m 1
 381 429 l 1
 476 429 l 1
 476 381 l 1
 381 381 l 1
48 333 m 1
 48 381 l 1
 190 381 l 1
 190 333 l 1
 48 333 l 1
381 333 m 1
 381 381 l 1
 476 381 l 1
 476 333 l 1
 381 333 l 1
48 286 m 1
 48 333 l 1
 238 333 l 1
 238 286 l 1
 48 286 l 1
333 286 m 1
 333 333 l 1
 476 333 l 1
 476 286 l 1
 333 286 l 1
95 238 m 1
 95 286 l 1
 238 286 l 1
 238 238 l 1
 95 238 l 1
333 238 m 1
 333 286 l 1
 429 286 l 1
 429 238 l 1
 333 238 l 1
95 190 m 1
 95 238 l 1
 238 238 l 1
 238 190 l 1
 95 190 l 1
333 190 m 1
 333 238 l 1
 429 238 l 1
 429 190 l 1
 333 190 l 1
143 143 m 1
 143 190 l 1
 381 190 l 1
 381 143 l 1
 143 143 l 1
143 95 m 1
 143 143 l 1
 381 143 l 1
 381 95 l 1
 143 95 l 1
143 48 m 1
 143 95 l 1
 381 95 l 1
 381 48 l 1
 143 48 l 1
190 0 m 1
 190 48 l 1
 333 48 l 1
 333 0 l 1
 190 0 l 1
EndSplineSet
EndChar

StartChar: w
Encoding: 119 119 88
Width: 524
Flags: HW
LayerCount: 2
Back
Fore
SplineSet
0 429 m 1
 0 476 l 1
 143 476 l 1
 143 429 l 1
 0 429 l 1
429 429 m 1
 429 476 l 1
 524 476 l 1
 524 429 l 1
 429 429 l 1
0 381 m 1
 0 429 l 1
 143 429 l 1
 143 381 l 1
 0 381 l 1
190 381 m 1
 190 429 l 1
 333 429 l 1
 333 381 l 1
 190 381 l 1
429 381 m 1
 429 429 l 1
 524 429 l 1
 524 381 l 1
 429 381 l 1
0 333 m 1
 0 381 l 1
 143 381 l 1
 143 333 l 1
 0 333 l 1
190 333 m 1
 190 381 l 1
 333 381 l 1
 333 333 l 1
 190 333 l 1
429 333 m 1
 429 381 l 1
 524 381 l 1
 524 333 l 1
 429 333 l 1
48 286 m 1
 48 333 l 1
 143 333 l 1
 143 286 l 1
 48 286 l 1
190 286 m 1
 190 333 l 1
 381 333 l 1
 381 286 l 1
 190 286 l 1
429 286 m 1
 429 333 l 1
 476 333 l 1
 476 286 l 1
 429 286 l 1
48 238 m 1
 48 286 l 1
 476 286 l 1
 476 238 l 1
 48 238 l 1
48 190 m 1
 48 238 l 1
 476 238 l 1
 476 190 l 1
 48 190 l 1
48 143 m 1
 48 190 l 1
 238 190 l 1
 238 143 l 1
 48 143 l 1
286 143 m 1
 286 190 l 1
 476 190 l 1
 476 143 l 1
 286 143 l 1
48 95 m 1
 48 143 l 1
 238 143 l 1
 238 95 l 1
 48 95 l 1
286 95 m 1
 286 143 l 1
 476 143 l 1
 476 95 l 1
 286 95 l 1
48 48 m 1
 48 95 l 1
 238 95 l 1
 238 48 l 1
 48 48 l 1
333 48 m 1
 333 95 l 1
 476 95 l 1
 476 48 l 1
 333 48 l 1
95 0 m 1
 95 48 l 1
 190 48 l 1
 190 0 l 1
 95 0 l 1
333 0 m 1
 333 48 l 1
 429 48 l 1
 429 0 l 1
 333 0 l 1
EndSplineSet
EndChar

StartChar: x
Encoding: 120 120 89
Width: 524
Flags: HW
LayerCount: 2
Back
Fore
SplineSet
48 429 m 1
 48 476 l 1
 238 476 l 1
 238 429 l 1
 48 429 l 1
381 429 m 1
 381 476 l 1
 524 476 l 1
 524 429 l 1
 381 429 l 1
95 381 m 1
 95 429 l 1
 286 429 l 1
 286 381 l 1
 95 381 l 1
333 381 m 1
 333 429 l 1
 476 429 l 1
 476 381 l 1
 333 381 l 1
143 333 m 1
 143 381 l 1
 286 381 l 1
 286 333 l 1
 143 333 l 1
333 333 m 1
 333 381 l 1
 429 381 l 1
 429 333 l 1
 333 333 l 1
143 286 m 1
 143 333 l 1
 381 333 l 1
 381 286 l 1
 143 286 l 1
190 238 m 1
 190 286 l 1
 381 286 l 1
 381 238 l 1
 190 238 l 1
190 190 m 1
 190 238 l 1
 381 238 l 1
 381 190 l 1
 190 190 l 1
143 143 m 1
 143 190 l 1
 429 190 l 1
 429 143 l 1
 143 143 l 1
143 95 m 1
 143 143 l 1
 238 143 l 1
 238 95 l 1
 143 95 l 1
286 95 m 1
 286 143 l 1
 476 143 l 1
 476 95 l 1
 286 95 l 1
95 48 m 1
 95 95 l 1
 190 95 l 1
 190 48 l 1
 95 48 l 1
333 48 m 1
 333 95 l 1
 476 95 l 1
 476 48 l 1
 333 48 l 1
48 0 m 1
 48 48 l 1
 190 48 l 1
 190 0 l 1
 48 0 l 1
333 0 m 1
 333 48 l 1
 524 48 l 1
 524 0 l 1
 333 0 l 1
EndSplineSet
EndChar

StartChar: y
Encoding: 121 121 90
Width: 524
Flags: HW
LayerCount: 2
Back
Fore
SplineSet
0 429 m 1
 0 476 l 1
 143 476 l 1
 143 429 l 1
 0 429 l 1
429 429 m 1
 429 476 l 1
 524 476 l 1
 524 429 l 1
 429 429 l 1
48 381 m 1
 48 429 l 1
 190 429 l 1
 190 381 l 1
 48 381 l 1
381 381 m 1
 381 429 l 1
 476 429 l 1
 476 381 l 1
 381 381 l 1
48 333 m 1
 48 381 l 1
 190 381 l 1
 190 333 l 1
 48 333 l 1
381 333 m 1
 381 381 l 1
 476 381 l 1
 476 333 l 1
 381 333 l 1
95 286 m 1
 95 333 l 1
 238 333 l 1
 238 286 l 1
 95 286 l 1
333 286 m 1
 333 333 l 1
 429 333 l 1
 429 286 l 1
 333 286 l 1
95 238 m 1
 95 286 l 1
 238 286 l 1
 238 238 l 1
 95 238 l 1
333 238 m 1
 333 286 l 1
 429 286 l 1
 429 238 l 1
 333 238 l 1
95 190 m 1
 95 238 l 1
 429 238 l 1
 429 190 l 1
 95 190 l 1
143 143 m 1
 143 190 l 1
 381 190 l 1
 381 143 l 1
 143 143 l 1
143 95 m 1
 143 143 l 1
 381 143 l 1
 381 95 l 1
 143 95 l 1
190 48 m 1
 190 95 l 1
 333 95 l 1
 333 48 l 1
 190 48 l 1
190 0 m 1
 190 48 l 1
 333 48 l 1
 333 0 l 1
 190 0 l 1
190 -48 m 1
 190 0 l 1
 286 0 l 1
 286 -48 l 1
 190 -48 l 1
190 -95 m 1
 190 -48 l 1
 286 -48 l 1
 286 -95 l 1
 190 -95 l 1
48 -143 m 1
 48 -95 l 1
 238 -95 l 1
 238 -143 l 1
 48 -143 l 1
48 -190 m 1
 48 -143 l 1
 190 -143 l 1
 190 -190 l 1
 48 -190 l 1
EndSplineSet
EndChar

StartChar: z
Encoding: 122 122 91
Width: 524
Flags: HW
LayerCount: 2
Back
Fore
SplineSet
48 429 m 1
 48 476 l 1
 476 476 l 1
 476 429 l 1
 48 429 l 1
48 381 m 1
 48 429 l 1
 476 429 l 1
 476 381 l 1
 48 381 l 1
286 333 m 1
 286 381 l 1
 476 381 l 1
 476 333 l 1
 286 333 l 1
238 286 m 1
 238 333 l 1
 429 333 l 1
 429 286 l 1
 238 286 l 1
190 238 m 1
 190 286 l 1
 381 286 l 1
 381 238 l 1
 190 238 l 1
143 190 m 1
 143 238 l 1
 333 238 l 1
 333 190 l 1
 143 190 l 1
95 143 m 1
 95 190 l 1
 286 190 l 1
 286 143 l 1
 95 143 l 1
48 95 m 1
 48 143 l 1
 238 143 l 1
 238 95 l 1
 48 95 l 1
48 48 m 1
 48 95 l 1
 476 95 l 1
 476 48 l 1
 48 48 l 1
48 0 m 1
 48 48 l 1
 476 48 l 1
 476 0 l 1
 48 0 l 1
EndSplineSet
EndChar

StartChar: braceleft
Encoding: 123 123 92
Width: 524
Flags: HW
LayerCount: 2
Back
Fore
SplineSet
286 619 m 1
 286 667 l 1
 476 667 l 1
 476 619 l 1
 286 619 l 1
238 571 m 1
 238 619 l 1
 476 619 l 1
 476 571 l 1
 238 571 l 1
238 524 m 1
 238 571 l 1
 381 571 l 1
 381 524 l 1
 238 524 l 1
238 476 m 1
 238 524 l 1
 381 524 l 1
 381 476 l 1
 238 476 l 1
238 429 m 1
 238 476 l 1
 381 476 l 1
 381 429 l 1
 238 429 l 1
238 381 m 1
 238 429 l 1
 381 429 l 1
 381 381 l 1
 238 381 l 1
238 333 m 1
 238 381 l 1
 381 381 l 1
 381 333 l 1
 238 333 l 1
238 286 m 1
 238 333 l 1
 381 333 l 1
 381 286 l 1
 238 286 l 1
95 238 m 1
 95 286 l 1
 286 286 l 1
 286 238 l 1
 95 238 l 1
95 190 m 1
 95 238 l 1
 286 238 l 1
 286 190 l 1
 95 190 l 1
238 143 m 1
 238 190 l 1
 381 190 l 1
 381 143 l 1
 238 143 l 1
238 95 m 1
 238 143 l 1
 381 143 l 1
 381 95 l 1
 238 95 l 1
238 48 m 1
 238 95 l 1
 381 95 l 1
 381 48 l 1
 238 48 l 1
238 0 m 1
 238 48 l 1
 381 48 l 1
 381 0 l 1
 238 0 l 1
238 -48 m 1
 238 0 l 1
 381 0 l 1
 381 -48 l 1
 238 -48 l 1
238 -95 m 1
 238 -48 l 1
 381 -48 l 1
 381 -95 l 1
 238 -95 l 1
238 -143 m 1
 238 -95 l 1
 476 -95 l 1
 476 -143 l 1
 238 -143 l 1
286 -190 m 1
 286 -143 l 1
 476 -143 l 1
 476 -190 l 1
 286 -190 l 1
EndSplineSet
EndChar

StartChar: bar
Encoding: 124 124 93
Width: 524
Flags: HW
LayerCount: 2
Back
Fore
SplineSet
238 619 m 1
 238 667 l 1
 333 667 l 1
 333 619 l 1
 238 619 l 1
238 571 m 1
 238 619 l 1
 333 619 l 1
 333 571 l 1
 238 571 l 1
238 524 m 1
 238 571 l 1
 333 571 l 1
 333 524 l 1
 238 524 l 1
238 476 m 1
 238 524 l 1
 333 524 l 1
 333 476 l 1
 238 476 l 1
238 429 m 1
 238 476 l 1
 333 476 l 1
 333 429 l 1
 238 429 l 1
238 381 m 1
 238 429 l 1
 333 429 l 1
 333 381 l 1
 238 381 l 1
238 333 m 1
 238 381 l 1
 333 381 l 1
 333 333 l 1
 238 333 l 1
238 286 m 1
 238 333 l 1
 333 333 l 1
 333 286 l 1
 238 286 l 1
238 238 m 1
 238 286 l 1
 333 286 l 1
 333 238 l 1
 238 238 l 1
238 190 m 1
 238 238 l 1
 333 238 l 1
 333 190 l 1
 238 190 l 1
238 143 m 1
 238 190 l 1
 333 190 l 1
 333 143 l 1
 238 143 l 1
238 95 m 1
 238 143 l 1
 333 143 l 1
 333 95 l 1
 238 95 l 1
238 48 m 1
 238 95 l 1
 333 95 l 1
 333 48 l 1
 238 48 l 1
238 0 m 1
 238 48 l 1
 333 48 l 1
 333 0 l 1
 238 0 l 1
238 -48 m 1
 238 0 l 1
 333 0 l 1
 333 -48 l 1
 238 -48 l 1
238 -95 m 1
 238 -48 l 1
 333 -48 l 1
 333 -95 l 1
 238 -95 l 1
238 -143 m 1
 238 -95 l 1
 333 -95 l 1
 333 -143 l 1
 238 -143 l 1
238 -190 m 1
 238 -143 l 1
 333 -143 l 1
 333 -190 l 1
 238 -190 l 1
EndSplineSet
EndChar

StartChar: braceright
Encoding: 125 125 94
Width: 524
Flags: HW
LayerCount: 2
Back
Fore
SplineSet
48 619 m 1
 48 667 l 1
 286 667 l 1
 286 619 l 1
 48 619 l 1
48 571 m 1
 48 619 l 1
 333 619 l 1
 333 571 l 1
 48 571 l 1
190 524 m 1
 190 571 l 1
 333 571 l 1
 333 524 l 1
 190 524 l 1
190 476 m 1
 190 524 l 1
 333 524 l 1
 333 476 l 1
 190 476 l 1
143 429 m 1
 143 476 l 1
 333 476 l 1
 333 429 l 1
 143 429 l 1
143 381 m 1
 143 429 l 1
 286 429 l 1
 286 381 l 1
 143 381 l 1
143 333 m 1
 143 381 l 1
 286 381 l 1
 286 333 l 1
 143 333 l 1
143 286 m 1
 143 333 l 1
 286 333 l 1
 286 286 l 1
 143 286 l 1
238 238 m 1
 238 286 l 1
 429 286 l 1
 429 238 l 1
 238 238 l 1
238 190 m 1
 238 238 l 1
 429 238 l 1
 429 190 l 1
 238 190 l 1
143 143 m 1
 143 190 l 1
 286 190 l 1
 286 143 l 1
 143 143 l 1
143 95 m 1
 143 143 l 1
 286 143 l 1
 286 95 l 1
 143 95 l 1
143 48 m 1
 143 95 l 1
 286 95 l 1
 286 48 l 1
 143 48 l 1
143 0 m 1
 143 48 l 1
 286 48 l 1
 286 0 l 1
 143 0 l 1
190 -48 m 1
 190 0 l 1
 333 0 l 1
 333 -48 l 1
 190 -48 l 1
190 -95 m 1
 190 -48 l 1
 333 -48 l 1
 333 -95 l 1
 190 -95 l 1
48 -143 m 1
 48 -95 l 1
 333 -95 l 1
 333 -143 l 1
 48 -143 l 1
48 -190 m 1
 48 -143 l 1
 286 -143 l 1
 286 -190 l 1
 48 -190 l 1
EndSplineSet
EndChar

StartChar: asciitilde
Encoding: 126 126 95
Width: 524
Flags: HW
LayerCount: 2
Back
Fore
SplineSet
95 286 m 1
 95 333 l 1
 238 333 l 1
 238 286 l 1
 95 286 l 1
429 286 m 1
 429 333 l 1
 524 333 l 1
 524 286 l 1
 429 286 l 1
95 238 m 1
 95 286 l 1
 333 286 l 1
 333 238 l 1
 95 238 l 1
429 238 m 1
 429 286 l 1
 524 286 l 1
 524 238 l 1
 429 238 l 1
48 190 m 1
 48 238 l 1
 143 238 l 1
 143 190 l 1
 48 190 l 1
238 190 m 1
 238 238 l 1
 476 238 l 1
 476 190 l 1
 238 190 l 1
48 143 m 1
 48 190 l 1
 143 190 l 1
 143 143 l 1
 48 143 l 1
333 143 m 1
 333 190 l 1
 476 190 l 1
 476 143 l 1
 333 143 l 1
EndSplineSet
EndChar

StartChar: exclamdown
Encoding: 161 161 97
Width: 524
Flags: HW
LayerCount: 2
Back
Fore
SplineSet
190 429 m 1
 190 476 l 1
 333 476 l 1
 333 429 l 1
 190 429 l 1
190 381 m 1
 190 429 l 1
 333 429 l 1
 333 381 l 1
 190 381 l 1
190 333 m 1
 190 381 l 1
 333 381 l 1
 333 333 l 1
 190 333 l 1
190 238 m 1
 190 286 l 1
 286 286 l 1
 286 238 l 1
 190 238 l 1
190 190 m 1
 190 238 l 1
 286 238 l 1
 286 190 l 1
 190 190 l 1
190 143 m 1
 190 190 l 1
 286 190 l 1
 286 143 l 1
 190 143 l 1
190 95 m 1
 190 143 l 1
 286 143 l 1
 286 95 l 1
 190 95 l 1
190 48 m 1
 190 95 l 1
 333 95 l 1
 333 48 l 1
 190 48 l 1
190 0 m 1
 190 48 l 1
 333 48 l 1
 333 0 l 1
 190 0 l 1
190 -48 m 1
 190 0 l 1
 333 0 l 1
 333 -48 l 1
 190 -48 l 1
190 -95 m 1
 190 -48 l 1
 333 -48 l 1
 333 -95 l 1
 190 -95 l 1
190 -143 m 1
 190 -95 l 1
 333 -95 l 1
 333 -143 l 1
 190 -143 l 1
190 -190 m 1
 190 -143 l 1
 333 -143 l 1
 333 -190 l 1
 190 -190 l 1
EndSplineSet
EndChar

StartChar: cent
Encoding: 162 162 98
Width: 524
Flags: HW
LayerCount: 2
Back
Fore
SplineSet
286 619 m 1
 286 667 l 1
 381 667 l 1
 381 619 l 1
 286 619 l 1
286 571 m 1
 286 619 l 1
 381 619 l 1
 381 571 l 1
 286 571 l 1
190 524 m 1
 190 571 l 1
 476 571 l 1
 476 524 l 1
 190 524 l 1
143 476 m 1
 143 524 l 1
 476 524 l 1
 476 476 l 1
 143 476 l 1
143 429 m 1
 143 476 l 1
 286 476 l 1
 286 429 l 1
 143 429 l 1
95 381 m 1
 95 429 l 1
 238 429 l 1
 238 381 l 1
 95 381 l 1
95 333 m 1
 95 381 l 1
 238 381 l 1
 238 333 l 1
 95 333 l 1
95 286 m 1
 95 333 l 1
 238 333 l 1
 238 286 l 1
 95 286 l 1
95 238 m 1
 95 286 l 1
 238 286 l 1
 238 238 l 1
 95 238 l 1
143 190 m 1
 143 238 l 1
 286 238 l 1
 286 190 l 1
 143 190 l 1
143 143 m 1
 143 190 l 1
 476 190 l 1
 476 143 l 1
 143 143 l 1
238 95 m 1
 238 143 l 1
 476 143 l 1
 476 95 l 1
 238 95 l 1
286 48 m 1
 286 95 l 1
 381 95 l 1
 381 48 l 1
 286 48 l 1
286 0 m 1
 286 48 l 1
 381 48 l 1
 381 0 l 1
 286 0 l 1
EndSplineSet
EndChar

StartChar: sterling
Encoding: 163 163 99
Width: 524
Flags: HW
LayerCount: 2
Back
Fore
SplineSet
238 619 m 1
 238 667 l 1
 476 667 l 1
 476 619 l 1
 238 619 l 1
190 571 m 1
 190 619 l 1
 476 619 l 1
 476 571 l 1
 190 571 l 1
190 524 m 1
 190 571 l 1
 333 571 l 1
 333 524 l 1
 190 524 l 1
190 476 m 1
 190 524 l 1
 333 524 l 1
 333 476 l 1
 190 476 l 1
190 429 m 1
 190 476 l 1
 333 476 l 1
 333 429 l 1
 190 429 l 1
190 381 m 1
 190 429 l 1
 333 429 l 1
 333 381 l 1
 190 381 l 1
95 333 m 1
 95 381 l 1
 381 381 l 1
 381 333 l 1
 95 333 l 1
95 286 m 1
 95 333 l 1
 381 333 l 1
 381 286 l 1
 95 286 l 1
190 238 m 1
 190 286 l 1
 333 286 l 1
 333 238 l 1
 190 238 l 1
190 190 m 1
 190 238 l 1
 333 238 l 1
 333 190 l 1
 190 190 l 1
190 143 m 1
 190 190 l 1
 333 190 l 1
 333 143 l 1
 190 143 l 1
190 95 m 1
 190 143 l 1
 286 143 l 1
 286 95 l 1
 190 95 l 1
95 48 m 1
 95 95 l 1
 476 95 l 1
 476 48 l 1
 95 48 l 1
95 0 m 1
 95 48 l 1
 476 48 l 1
 476 0 l 1
 95 0 l 1
EndSplineSet
EndChar

StartChar: currency
Encoding: 164 164 100
Width: 524
Flags: HW
LayerCount: 2
Back
Fore
SplineSet
48 571 m 1
 48 619 l 1
 95 619 l 1
 95 571 l 1
 48 571 l 1
429 571 m 1
 429 619 l 1
 476 619 l 1
 476 571 l 1
 429 571 l 1
0 524 m 1
 0 571 l 1
 524 571 l 1
 524 524 l 1
 0 524 l 1
48 476 m 1
 48 524 l 1
 476 524 l 1
 476 476 l 1
 48 476 l 1
48 429 m 1
 48 476 l 1
 190 476 l 1
 190 429 l 1
 48 429 l 1
333 429 m 1
 333 476 l 1
 429 476 l 1
 429 429 l 1
 333 429 l 1
48 381 m 1
 48 429 l 1
 143 429 l 1
 143 381 l 1
 48 381 l 1
381 381 m 1
 381 429 l 1
 476 429 l 1
 476 381 l 1
 381 381 l 1
48 333 m 1
 48 381 l 1
 143 381 l 1
 143 333 l 1
 48 333 l 1
381 333 m 1
 381 381 l 1
 476 381 l 1
 476 333 l 1
 381 333 l 1
48 286 m 1
 48 333 l 1
 143 333 l 1
 143 286 l 1
 48 286 l 1
381 286 m 1
 381 333 l 1
 476 333 l 1
 476 286 l 1
 381 286 l 1
48 238 m 1
 48 286 l 1
 143 286 l 1
 143 238 l 1
 48 238 l 1
381 238 m 1
 381 286 l 1
 476 286 l 1
 476 238 l 1
 381 238 l 1
48 190 m 1
 48 238 l 1
 190 238 l 1
 190 190 l 1
 48 190 l 1
333 190 m 1
 333 238 l 1
 429 238 l 1
 429 190 l 1
 333 190 l 1
48 143 m 1
 48 190 l 1
 476 190 l 1
 476 143 l 1
 48 143 l 1
0 95 m 1
 0 143 l 1
 524 143 l 1
 524 95 l 1
 0 95 l 1
48 48 m 1
 48 95 l 1
 95 95 l 1
 95 48 l 1
 48 48 l 1
429 48 m 1
 429 95 l 1
 476 95 l 1
 476 48 l 1
 429 48 l 1
EndSplineSet
EndChar

StartChar: yen
Encoding: 165 165 101
Width: 524
Flags: HW
LayerCount: 2
Back
Fore
SplineSet
0 619 m 1
 0 667 l 1
 190 667 l 1
 190 619 l 1
 0 619 l 1
429 619 m 1
 429 667 l 1
 524 667 l 1
 524 619 l 1
 429 619 l 1
48 571 m 1
 48 619 l 1
 190 619 l 1
 190 571 l 1
 48 571 l 1
381 571 m 1
 381 619 l 1
 476 619 l 1
 476 571 l 1
 381 571 l 1
48 524 m 1
 48 571 l 1
 238 571 l 1
 238 524 l 1
 48 524 l 1
333 524 m 1
 333 571 l 1
 429 571 l 1
 429 524 l 1
 333 524 l 1
95 476 m 1
 95 524 l 1
 429 524 l 1
 429 476 l 1
 95 476 l 1
143 429 m 1
 143 476 l 1
 381 476 l 1
 381 429 l 1
 143 429 l 1
143 381 m 1
 143 429 l 1
 333 429 l 1
 333 381 l 1
 143 381 l 1
95 333 m 1
 95 381 l 1
 429 381 l 1
 429 333 l 1
 95 333 l 1
95 286 m 1
 95 333 l 1
 429 333 l 1
 429 286 l 1
 95 286 l 1
190 238 m 1
 190 286 l 1
 333 286 l 1
 333 238 l 1
 190 238 l 1
95 190 m 1
 95 238 l 1
 429 238 l 1
 429 190 l 1
 95 190 l 1
95 143 m 1
 95 190 l 1
 429 190 l 1
 429 143 l 1
 95 143 l 1
190 95 m 1
 190 143 l 1
 333 143 l 1
 333 95 l 1
 190 95 l 1
190 48 m 1
 190 95 l 1
 333 95 l 1
 333 48 l 1
 190 48 l 1
190 0 m 1
 190 48 l 1
 333 48 l 1
 333 0 l 1
 190 0 l 1
EndSplineSet
EndChar

StartChar: brokenbar
Encoding: 166 166 102
Width: 524
Flags: HW
LayerCount: 2
Back
Fore
SplineSet
238 619 m 1
 238 667 l 1
 333 667 l 1
 333 619 l 1
 238 619 l 1
238 571 m 1
 238 619 l 1
 333 619 l 1
 333 571 l 1
 238 571 l 1
238 524 m 1
 238 571 l 1
 333 571 l 1
 333 524 l 1
 238 524 l 1
238 476 m 1
 238 524 l 1
 333 524 l 1
 333 476 l 1
 238 476 l 1
238 429 m 1
 238 476 l 1
 333 476 l 1
 333 429 l 1
 238 429 l 1
238 381 m 1
 238 429 l 1
 333 429 l 1
 333 381 l 1
 238 381 l 1
238 333 m 1
 238 381 l 1
 333 381 l 1
 333 333 l 1
 238 333 l 1
238 95 m 1
 238 143 l 1
 333 143 l 1
 333 95 l 1
 238 95 l 1
238 48 m 1
 238 95 l 1
 333 95 l 1
 333 48 l 1
 238 48 l 1
238 0 m 1
 238 48 l 1
 333 48 l 1
 333 0 l 1
 238 0 l 1
238 -48 m 1
 238 0 l 1
 333 0 l 1
 333 -48 l 1
 238 -48 l 1
238 -95 m 1
 238 -48 l 1
 333 -48 l 1
 333 -95 l 1
 238 -95 l 1
238 -143 m 1
 238 -95 l 1
 333 -95 l 1
 333 -143 l 1
 238 -143 l 1
238 -190 m 1
 238 -143 l 1
 333 -143 l 1
 333 -190 l 1
 238 -190 l 1
EndSplineSet
EndChar

StartChar: section
Encoding: 167 167 103
Width: 524
Flags: HW
LayerCount: 2
Back
Fore
SplineSet
190 619 m 1
 190 667 l 1
 429 667 l 1
 429 619 l 1
 190 619 l 1
143 571 m 1
 143 619 l 1
 429 619 l 1
 429 571 l 1
 143 571 l 1
95 524 m 1
 95 571 l 1
 238 571 l 1
 238 524 l 1
 95 524 l 1
381 524 m 1
 381 571 l 1
 429 571 l 1
 429 524 l 1
 381 524 l 1
95 476 m 1
 95 524 l 1
 238 524 l 1
 238 476 l 1
 95 476 l 1
95 429 m 1
 95 476 l 1
 286 476 l 1
 286 429 l 1
 95 429 l 1
143 381 m 1
 143 429 l 1
 333 429 l 1
 333 381 l 1
 143 381 l 1
143 333 m 1
 143 381 l 1
 429 381 l 1
 429 333 l 1
 143 333 l 1
95 286 m 1
 95 333 l 1
 190 333 l 1
 190 286 l 1
 95 286 l 1
333 286 m 1
 333 333 l 1
 476 333 l 1
 476 286 l 1
 333 286 l 1
95 238 m 1
 95 286 l 1
 190 286 l 1
 190 238 l 1
 95 238 l 1
381 238 m 1
 381 286 l 1
 476 286 l 1
 476 238 l 1
 381 238 l 1
95 190 m 1
 95 238 l 1
 238 238 l 1
 238 190 l 1
 95 190 l 1
381 190 m 1
 381 238 l 1
 476 238 l 1
 476 190 l 1
 381 190 l 1
95 143 m 1
 95 190 l 1
 333 190 l 1
 333 143 l 1
 95 143 l 1
381 143 m 1
 381 190 l 1
 476 190 l 1
 476 143 l 1
 381 143 l 1
143 95 m 1
 143 143 l 1
 429 143 l 1
 429 95 l 1
 143 95 l 1
190 48 m 1
 190 95 l 1
 429 95 l 1
 429 48 l 1
 190 48 l 1
286 0 m 1
 286 48 l 1
 476 48 l 1
 476 0 l 1
 286 0 l 1
333 -48 m 1
 333 0 l 1
 476 0 l 1
 476 -48 l 1
 333 -48 l 1
95 -95 m 1
 95 -48 l 1
 143 -48 l 1
 143 -95 l 1
 95 -95 l 1
333 -95 m 1
 333 -48 l 1
 476 -48 l 1
 476 -95 l 1
 333 -95 l 1
95 -143 m 1
 95 -95 l 1
 429 -95 l 1
 429 -143 l 1
 95 -143 l 1
95 -190 m 1
 95 -143 l 1
 381 -143 l 1
 381 -190 l 1
 95 -190 l 1
EndSplineSet
EndChar

StartChar: dieresis
Encoding: 168 168 104
Width: 524
Flags: HW
LayerCount: 2
Back
Fore
SplineSet
143 619 m 1
 143 667 l 1
 238 667 l 1
 238 619 l 1
 143 619 l 1
286 619 m 1
 286 667 l 1
 381 667 l 1
 381 619 l 1
 286 619 l 1
143 571 m 1
 143 619 l 1
 238 619 l 1
 238 571 l 1
 143 571 l 1
286 571 m 1
 286 619 l 1
 381 619 l 1
 381 571 l 1
 286 571 l 1
EndSplineSet
EndChar

StartChar: copyright
Encoding: 169 169 105
Width: 524
Flags: HW
LayerCount: 2
Back
Fore
SplineSet
190 619 m 1
 190 667 l 1
 381 667 l 1
 381 619 l 1
 190 619 l 1
143 571 m 1
 143 619 l 1
 429 619 l 1
 429 571 l 1
 143 571 l 1
95 524 m 1
 95 571 l 1
 190 571 l 1
 190 524 l 1
 95 524 l 1
381 524 m 1
 381 571 l 1
 476 571 l 1
 476 524 l 1
 381 524 l 1
48 476 m 1
 48 524 l 1
 143 524 l 1
 143 476 l 1
 48 476 l 1
190 476 m 1
 190 524 l 1
 333 524 l 1
 333 476 l 1
 190 476 l 1
429 476 m 1
 429 524 l 1
 524 524 l 1
 524 476 l 1
 429 476 l 1
48 429 m 1
 48 476 l 1
 143 476 l 1
 143 429 l 1
 48 429 l 1
190 429 m 1
 190 476 l 1
 381 476 l 1
 381 429 l 1
 190 429 l 1
429 429 m 1
 429 476 l 1
 524 476 l 1
 524 429 l 1
 429 429 l 1
48 381 m 1
 48 429 l 1
 238 429 l 1
 238 381 l 1
 48 381 l 1
333 381 m 1
 333 429 l 1
 381 429 l 1
 381 381 l 1
 333 381 l 1
429 381 m 1
 429 429 l 1
 524 429 l 1
 524 381 l 1
 429 381 l 1
48 333 m 1
 48 381 l 1
 238 381 l 1
 238 333 l 1
 48 333 l 1
429 333 m 1
 429 381 l 1
 524 381 l 1
 524 333 l 1
 429 333 l 1
48 286 m 1
 48 333 l 1
 238 333 l 1
 238 286 l 1
 48 286 l 1
429 286 m 1
 429 333 l 1
 524 333 l 1
 524 286 l 1
 429 286 l 1
48 238 m 1
 48 286 l 1
 238 286 l 1
 238 238 l 1
 48 238 l 1
333 238 m 1
 333 286 l 1
 381 286 l 1
 381 238 l 1
 333 238 l 1
429 238 m 1
 429 286 l 1
 524 286 l 1
 524 238 l 1
 429 238 l 1
48 190 m 1
 48 238 l 1
 143 238 l 1
 143 190 l 1
 48 190 l 1
190 190 m 1
 190 238 l 1
 381 238 l 1
 381 190 l 1
 190 190 l 1
429 190 m 1
 429 238 l 1
 524 238 l 1
 524 190 l 1
 429 190 l 1
48 143 m 1
 48 190 l 1
 143 190 l 1
 143 143 l 1
 48 143 l 1
190 143 m 1
 190 190 l 1
 333 190 l 1
 333 143 l 1
 190 143 l 1
429 143 m 1
 429 190 l 1
 524 190 l 1
 524 143 l 1
 429 143 l 1
95 95 m 1
 95 143 l 1
 190 143 l 1
 190 95 l 1
 95 95 l 1
381 95 m 1
 381 143 l 1
 476 143 l 1
 476 95 l 1
 381 95 l 1
143 48 m 1
 143 95 l 1
 429 95 l 1
 429 48 l 1
 143 48 l 1
190 0 m 1
 190 48 l 1
 381 48 l 1
 381 0 l 1
 190 0 l 1
EndSplineSet
EndChar

StartChar: ordfeminine
Encoding: 170 170 106
Width: 524
Flags: HW
LayerCount: 2
Back
Fore
SplineSet
95 619 m 1
 95 667 l 1
 381 667 l 1
 381 619 l 1
 95 619 l 1
48 571 m 1
 48 619 l 1
 429 619 l 1
 429 571 l 1
 48 571 l 1
48 524 m 1
 48 571 l 1
 95 571 l 1
 95 524 l 1
 48 524 l 1
333 524 m 1
 333 571 l 1
 429 571 l 1
 429 524 l 1
 333 524 l 1
95 476 m 1
 95 524 l 1
 429 524 l 1
 429 476 l 1
 95 476 l 1
48 429 m 1
 48 476 l 1
 429 476 l 1
 429 429 l 1
 48 429 l 1
48 381 m 1
 48 429 l 1
 143 429 l 1
 143 381 l 1
 48 381 l 1
333 381 m 1
 333 429 l 1
 429 429 l 1
 429 381 l 1
 333 381 l 1
48 333 m 1
 48 381 l 1
 476 381 l 1
 476 333 l 1
 48 333 l 1
95 286 m 1
 95 333 l 1
 286 333 l 1
 286 286 l 1
 95 286 l 1
333 286 m 1
 333 333 l 1
 476 333 l 1
 476 286 l 1
 333 286 l 1
EndSplineSet
EndChar

StartChar: guillemotleft
Encoding: 171 171 107
Width: 524
Flags: HW
LayerCount: 2
Back
Fore
SplineSet
238 381 m 1
 238 429 l 1
 286 429 l 1
 286 381 l 1
 238 381 l 1
429 381 m 1
 429 429 l 1
 476 429 l 1
 476 381 l 1
 429 381 l 1
190 333 m 1
 190 381 l 1
 286 381 l 1
 286 333 l 1
 190 333 l 1
381 333 m 1
 381 381 l 1
 524 381 l 1
 524 333 l 1
 381 333 l 1
143 286 m 1
 143 333 l 1
 238 333 l 1
 238 286 l 1
 143 286 l 1
333 286 m 1
 333 333 l 1
 476 333 l 1
 476 286 l 1
 333 286 l 1
95 238 m 1
 95 286 l 1
 238 286 l 1
 238 238 l 1
 95 238 l 1
286 238 m 1
 286 286 l 1
 429 286 l 1
 429 238 l 1
 286 238 l 1
48 190 m 1
 48 238 l 1
 238 238 l 1
 238 190 l 1
 48 190 l 1
286 190 m 1
 286 238 l 1
 429 238 l 1
 429 190 l 1
 286 190 l 1
95 143 m 1
 95 190 l 1
 238 190 l 1
 238 143 l 1
 95 143 l 1
333 143 m 1
 333 190 l 1
 476 190 l 1
 476 143 l 1
 333 143 l 1
143 95 m 1
 143 143 l 1
 286 143 l 1
 286 95 l 1
 143 95 l 1
381 95 m 1
 381 143 l 1
 524 143 l 1
 524 95 l 1
 381 95 l 1
190 48 m 1
 190 95 l 1
 286 95 l 1
 286 48 l 1
 190 48 l 1
429 48 m 1
 429 95 l 1
 476 95 l 1
 476 48 l 1
 429 48 l 1
EndSplineSet
EndChar

StartChar: logicalnot
Encoding: 172 172 108
Width: 524
Flags: HW
LayerCount: 2
Back
Fore
SplineSet
48 238 m 1
 48 286 l 1
 524 286 l 1
 524 238 l 1
 48 238 l 1
48 190 m 1
 48 238 l 1
 524 238 l 1
 524 190 l 1
 48 190 l 1
429 143 m 1
 429 190 l 1
 524 190 l 1
 524 143 l 1
 429 143 l 1
429 95 m 1
 429 143 l 1
 524 143 l 1
 524 95 l 1
 429 95 l 1
EndSplineSet
EndChar

StartChar: hyphen
Encoding: 45 45 109
Width: 524
Flags: HW
LayerCount: 2
Back
Fore
SplineSet
48 190 m 1
 48 238 l 1
 524 238 l 1
 524 190 l 1
 48 190 l 1
48 143 m 1
 48 190 l 1
 524 190 l 1
 524 143 l 1
 48 143 l 1
EndSplineSet
EndChar

StartChar: registered
Encoding: 174 174 110
Width: 524
Flags: HW
LayerCount: 2
Back
Fore
SplineSet
190 619 m 1
 190 667 l 1
 381 667 l 1
 381 619 l 1
 190 619 l 1
95 571 m 1
 95 619 l 1
 429 619 l 1
 429 571 l 1
 95 571 l 1
95 524 m 1
 95 571 l 1
 190 571 l 1
 190 524 l 1
 95 524 l 1
381 524 m 1
 381 571 l 1
 476 571 l 1
 476 524 l 1
 381 524 l 1
48 476 m 1
 48 524 l 1
 143 524 l 1
 143 476 l 1
 48 476 l 1
190 476 m 1
 190 524 l 1
 524 524 l 1
 524 476 l 1
 190 476 l 1
48 429 m 1
 48 476 l 1
 143 476 l 1
 143 429 l 1
 48 429 l 1
190 429 m 1
 190 476 l 1
 286 476 l 1
 286 429 l 1
 190 429 l 1
333 429 m 1
 333 476 l 1
 524 476 l 1
 524 429 l 1
 333 429 l 1
48 381 m 1
 48 429 l 1
 143 429 l 1
 143 381 l 1
 48 381 l 1
190 381 m 1
 190 429 l 1
 381 429 l 1
 381 381 l 1
 190 381 l 1
429 381 m 1
 429 429 l 1
 524 429 l 1
 524 381 l 1
 429 381 l 1
48 333 m 1
 48 381 l 1
 143 381 l 1
 143 333 l 1
 48 333 l 1
190 333 m 1
 190 381 l 1
 381 381 l 1
 381 333 l 1
 190 333 l 1
429 333 m 1
 429 381 l 1
 524 381 l 1
 524 333 l 1
 429 333 l 1
95 286 m 1
 95 333 l 1
 286 333 l 1
 286 286 l 1
 95 286 l 1
333 286 m 1
 333 333 l 1
 476 333 l 1
 476 286 l 1
 333 286 l 1
95 238 m 1
 95 286 l 1
 429 286 l 1
 429 238 l 1
 95 238 l 1
190 190 m 1
 190 238 l 1
 381 238 l 1
 381 190 l 1
 190 190 l 1
EndSplineSet
EndChar

StartChar: degree
Encoding: 176 176 112
Width: 524
Flags: HW
LayerCount: 2
Back
Fore
SplineSet
190 619 m 1
 190 667 l 1
 333 667 l 1
 333 619 l 1
 190 619 l 1
190 571 m 1
 190 619 l 1
 238 619 l 1
 238 571 l 1
 190 571 l 1
286 571 m 1
 286 619 l 1
 333 619 l 1
 333 571 l 1
 286 571 l 1
190 524 m 1
 190 571 l 1
 238 571 l 1
 238 524 l 1
 190 524 l 1
286 524 m 1
 286 571 l 1
 333 571 l 1
 333 524 l 1
 286 524 l 1
238 476 m 1
 238 524 l 1
 286 524 l 1
 286 476 l 1
 238 476 l 1
EndSplineSet
EndChar

StartChar: plusminus
Encoding: 177 177 113
Width: 524
Flags: HW
LayerCount: 2
Back
Fore
SplineSet
238 429 m 1
 238 476 l 1
 333 476 l 1
 333 429 l 1
 238 429 l 1
238 381 m 1
 238 429 l 1
 333 429 l 1
 333 381 l 1
 238 381 l 1
48 333 m 1
 48 381 l 1
 524 381 l 1
 524 333 l 1
 48 333 l 1
48 286 m 1
 48 333 l 1
 524 333 l 1
 524 286 l 1
 48 286 l 1
238 238 m 1
 238 286 l 1
 333 286 l 1
 333 238 l 1
 238 238 l 1
238 190 m 1
 238 238 l 1
 333 238 l 1
 333 190 l 1
 238 190 l 1
238 143 m 1
 238 190 l 1
 333 190 l 1
 333 143 l 1
 238 143 l 1
48 48 m 1
 48 95 l 1
 524 95 l 1
 524 48 l 1
 48 48 l 1
48 0 m 1
 48 48 l 1
 524 48 l 1
 524 0 l 1
 48 0 l 1
EndSplineSet
EndChar

StartChar: twosuperior
Encoding: 178 178 114
Width: 524
Flags: HW
LayerCount: 2
Back
Fore
SplineSet
-95 619 m 1
 -95 667 l 1
 48 667 l 1
 48 619 l 1
 -95 619 l 1
48 571 m 1
 48 619 l 1
 95 619 l 1
 95 571 l 1
 48 571 l 1
48 524 m 1
 48 571 l 1
 95 571 l 1
 95 524 l 1
 48 524 l 1
0 476 m 1
 0 524 l 1
 48 524 l 1
 48 476 l 1
 0 476 l 1
-48 429 m 1
 -48 476 l 1
 48 476 l 1
 48 429 l 1
 -48 429 l 1
-95 381 m 1
 -95 429 l 1
 0 429 l 1
 0 381 l 1
 -95 381 l 1
-95 333 m 1
 -95 381 l 1
 95 381 l 1
 95 333 l 1
 -95 333 l 1
EndSplineSet
EndChar

StartChar: threesuperior
Encoding: 179 179 115
Width: 524
Flags: HW
LayerCount: 2
Back
Fore
SplineSet
-95 619 m 1
 -95 667 l 1
 48 667 l 1
 48 619 l 1
 -95 619 l 1
0 571 m 1
 0 619 l 1
 48 619 l 1
 48 571 l 1
 0 571 l 1
0 524 m 1
 0 571 l 1
 48 571 l 1
 48 524 l 1
 0 524 l 1
-95 476 m 1
 -95 524 l 1
 0 524 l 1
 0 476 l 1
 -95 476 l 1
0 429 m 1
 0 476 l 1
 48 476 l 1
 48 429 l 1
 0 429 l 1
0 381 m 1
 0 429 l 1
 48 429 l 1
 48 381 l 1
 0 381 l 1
-95 333 m 1
 -95 381 l 1
 0 381 l 1
 0 333 l 1
 -95 333 l 1
EndSplineSet
EndChar

StartChar: acute
Encoding: 180 180 116
Width: 524
Flags: HW
LayerCount: 2
Back
Fore
SplineSet
238 619 m 1
 238 667 l 1
 381 667 l 1
 381 619 l 1
 238 619 l 1
190 571 m 1
 190 619 l 1
 333 619 l 1
 333 571 l 1
 190 571 l 1
143 524 m 1
 143 571 l 1
 286 571 l 1
 286 524 l 1
 143 524 l 1
EndSplineSet
EndChar

StartChar: paragraph
Encoding: 182 182 118
Width: 524
Flags: HW
LayerCount: 2
Back
Fore
SplineSet
143 619 m 1
 143 667 l 1
 429 667 l 1
 429 619 l 1
 143 619 l 1
95 571 m 1
 95 619 l 1
 429 619 l 1
 429 571 l 1
 95 571 l 1
95 524 m 1
 95 571 l 1
 429 571 l 1
 429 524 l 1
 95 524 l 1
95 476 m 1
 95 524 l 1
 429 524 l 1
 429 476 l 1
 95 476 l 1
95 429 m 1
 95 476 l 1
 429 476 l 1
 429 429 l 1
 95 429 l 1
95 381 m 1
 95 429 l 1
 429 429 l 1
 429 381 l 1
 95 381 l 1
143 333 m 1
 143 381 l 1
 429 381 l 1
 429 333 l 1
 143 333 l 1
238 286 m 1
 238 333 l 1
 429 333 l 1
 429 286 l 1
 238 286 l 1
238 238 m 1
 238 286 l 1
 429 286 l 1
 429 238 l 1
 238 238 l 1
238 190 m 1
 238 238 l 1
 429 238 l 1
 429 190 l 1
 238 190 l 1
238 143 m 1
 238 190 l 1
 429 190 l 1
 429 143 l 1
 238 143 l 1
238 95 m 1
 238 143 l 1
 429 143 l 1
 429 95 l 1
 238 95 l 1
238 48 m 1
 238 95 l 1
 429 95 l 1
 429 48 l 1
 238 48 l 1
238 0 m 1
 238 48 l 1
 429 48 l 1
 429 0 l 1
 238 0 l 1
238 -48 m 1
 238 0 l 1
 429 0 l 1
 429 -48 l 1
 238 -48 l 1
238 -95 m 1
 238 -48 l 1
 429 -48 l 1
 429 -95 l 1
 238 -95 l 1
238 -143 m 1
 238 -95 l 1
 429 -95 l 1
 429 -143 l 1
 238 -143 l 1
238 -190 m 1
 238 -143 l 1
 429 -143 l 1
 429 -190 l 1
 238 -190 l 1
EndSplineSet
EndChar

StartChar: cedilla
Encoding: 184 184 120
Width: 524
Flags: HW
LayerCount: 2
Back
Fore
SplineSet
238 -48 m 1
 238 0 l 1
 333 0 l 1
 333 -48 l 1
 238 -48 l 1
190 -95 m 1
 190 -48 l 1
 381 -48 l 1
 381 -95 l 1
 190 -95 l 1
286 -143 m 1
 286 -95 l 1
 381 -95 l 1
 381 -143 l 1
 286 -143 l 1
190 -190 m 1
 190 -143 l 1
 333 -143 l 1
 333 -190 l 1
 190 -190 l 1
EndSplineSet
EndChar

StartChar: onesuperior
Encoding: 185 185 121
Width: 524
Flags: HW
LayerCount: 2
Back
Fore
SplineSet
-95 619 m 1
 -95 667 l 1
 0 667 l 1
 0 619 l 1
 -95 619 l 1
-48 571 m 1
 -48 619 l 1
 0 619 l 1
 0 571 l 1
 -48 571 l 1
-48 524 m 1
 -48 571 l 1
 0 571 l 1
 0 524 l 1
 -48 524 l 1
-48 476 m 1
 -48 524 l 1
 0 524 l 1
 0 476 l 1
 -48 476 l 1
-48 429 m 1
 -48 476 l 1
 0 476 l 1
 0 429 l 1
 -48 429 l 1
-48 381 m 1
 -48 429 l 1
 0 429 l 1
 0 381 l 1
 -48 381 l 1
-95 333 m 1
 -95 381 l 1
 48 381 l 1
 48 333 l 1
 -95 333 l 1
EndSplineSet
EndChar

StartChar: ordmasculine
Encoding: 186 186 122
Width: 524
Flags: HW
LayerCount: 2
Back
Fore
SplineSet
190 619 m 1
 190 667 l 1
 381 667 l 1
 381 619 l 1
 190 619 l 1
143 571 m 1
 143 619 l 1
 429 619 l 1
 429 571 l 1
 143 571 l 1
95 524 m 1
 95 571 l 1
 238 571 l 1
 238 524 l 1
 95 524 l 1
333 524 m 1
 333 571 l 1
 476 571 l 1
 476 524 l 1
 333 524 l 1
95 476 m 1
 95 524 l 1
 190 524 l 1
 190 476 l 1
 95 476 l 1
381 476 m 1
 381 524 l 1
 476 524 l 1
 476 476 l 1
 381 476 l 1
95 429 m 1
 95 476 l 1
 190 476 l 1
 190 429 l 1
 95 429 l 1
381 429 m 1
 381 476 l 1
 476 476 l 1
 476 429 l 1
 381 429 l 1
95 381 m 1
 95 429 l 1
 238 429 l 1
 238 381 l 1
 95 381 l 1
333 381 m 1
 333 429 l 1
 476 429 l 1
 476 381 l 1
 333 381 l 1
143 333 m 1
 143 381 l 1
 429 381 l 1
 429 333 l 1
 143 333 l 1
190 286 m 1
 190 333 l 1
 381 333 l 1
 381 286 l 1
 190 286 l 1
EndSplineSet
EndChar

StartChar: guillemotright
Encoding: 187 187 123
Width: 524
Flags: HW
LayerCount: 2
Back
Fore
SplineSet
95 381 m 1
 95 429 l 1
 143 429 l 1
 143 381 l 1
 95 381 l 1
286 381 m 1
 286 429 l 1
 381 429 l 1
 381 381 l 1
 286 381 l 1
48 333 m 1
 48 381 l 1
 190 381 l 1
 190 333 l 1
 48 333 l 1
286 333 m 1
 286 381 l 1
 429 381 l 1
 429 333 l 1
 286 333 l 1
95 286 m 1
 95 333 l 1
 238 333 l 1
 238 286 l 1
 95 286 l 1
333 286 m 1
 333 333 l 1
 476 333 l 1
 476 286 l 1
 333 286 l 1
143 238 m 1
 143 286 l 1
 286 286 l 1
 286 238 l 1
 143 238 l 1
333 238 m 1
 333 286 l 1
 524 286 l 1
 524 238 l 1
 333 238 l 1
143 190 m 1
 143 238 l 1
 286 238 l 1
 286 190 l 1
 143 190 l 1
333 190 m 1
 333 238 l 1
 476 238 l 1
 476 190 l 1
 333 190 l 1
95 143 m 1
 95 190 l 1
 238 190 l 1
 238 143 l 1
 95 143 l 1
333 143 m 1
 333 190 l 1
 429 190 l 1
 429 143 l 1
 333 143 l 1
48 95 m 1
 48 143 l 1
 190 143 l 1
 190 95 l 1
 48 95 l 1
286 95 m 1
 286 143 l 1
 381 143 l 1
 381 95 l 1
 286 95 l 1
95 48 m 1
 95 95 l 1
 143 95 l 1
 143 48 l 1
 95 48 l 1
286 48 m 1
 286 95 l 1
 333 95 l 1
 333 48 l 1
 286 48 l 1
EndSplineSet
EndChar

StartChar: onequarter
Encoding: 188 188 124
Width: 524
Flags: HW
LayerCount: 2
Back
Fore
SplineSet
95 619 m 1
 95 667 l 1
 190 667 l 1
 190 619 l 1
 95 619 l 1
524 619 m 1
 524 667 l 1
 619 667 l 1
 619 619 l 1
 524 619 l 1
143 571 m 1
 143 619 l 1
 190 619 l 1
 190 571 l 1
 143 571 l 1
476 571 m 1
 476 619 l 1
 571 619 l 1
 571 571 l 1
 476 571 l 1
143 524 m 1
 143 571 l 1
 190 571 l 1
 190 524 l 1
 143 524 l 1
429 524 m 1
 429 571 l 1
 571 571 l 1
 571 524 l 1
 429 524 l 1
143 476 m 1
 143 524 l 1
 190 524 l 1
 190 476 l 1
 143 476 l 1
429 476 m 1
 429 524 l 1
 524 524 l 1
 524 476 l 1
 429 476 l 1
143 429 m 1
 143 476 l 1
 190 476 l 1
 190 429 l 1
 143 429 l 1
381 429 m 1
 381 476 l 1
 476 476 l 1
 476 429 l 1
 381 429 l 1
143 381 m 1
 143 429 l 1
 190 429 l 1
 190 381 l 1
 143 381 l 1
333 381 m 1
 333 429 l 1
 476 429 l 1
 476 381 l 1
 333 381 l 1
95 333 m 1
 95 381 l 1
 238 381 l 1
 238 333 l 1
 95 333 l 1
333 333 m 1
 333 381 l 1
 429 381 l 1
 429 333 l 1
 333 333 l 1
286 286 m 1
 286 333 l 1
 381 333 l 1
 381 286 l 1
 286 286 l 1
476 286 m 1
 476 333 l 1
 571 333 l 1
 571 286 l 1
 476 286 l 1
238 238 m 1
 238 286 l 1
 381 286 l 1
 381 238 l 1
 238 238 l 1
476 238 m 1
 476 286 l 1
 571 286 l 1
 571 238 l 1
 476 238 l 1
238 190 m 1
 238 238 l 1
 333 238 l 1
 333 190 l 1
 238 190 l 1
429 190 m 1
 429 238 l 1
 476 238 l 1
 476 190 l 1
 429 190 l 1
524 190 m 1
 524 238 l 1
 571 238 l 1
 571 190 l 1
 524 190 l 1
190 143 m 1
 190 190 l 1
 286 190 l 1
 286 143 l 1
 190 143 l 1
381 143 m 1
 381 190 l 1
 429 190 l 1
 429 143 l 1
 381 143 l 1
524 143 m 1
 524 190 l 1
 571 190 l 1
 571 143 l 1
 524 143 l 1
143 95 m 1
 143 143 l 1
 286 143 l 1
 286 95 l 1
 143 95 l 1
381 95 m 1
 381 143 l 1
 619 143 l 1
 619 95 l 1
 381 95 l 1
143 48 m 1
 143 95 l 1
 238 95 l 1
 238 48 l 1
 143 48 l 1
524 48 m 1
 524 95 l 1
 571 95 l 1
 571 48 l 1
 524 48 l 1
95 0 m 1
 95 48 l 1
 190 48 l 1
 190 0 l 1
 95 0 l 1
524 0 m 1
 524 48 l 1
 571 48 l 1
 571 0 l 1
 524 0 l 1
EndSplineSet
EndChar

StartChar: onehalf
Encoding: 189 189 125
Width: 524
Flags: HW
LayerCount: 2
Back
Fore
SplineSet
95 619 m 1
 95 667 l 1
 190 667 l 1
 190 619 l 1
 95 619 l 1
524 619 m 1
 524 667 l 1
 619 667 l 1
 619 619 l 1
 524 619 l 1
143 571 m 1
 143 619 l 1
 190 619 l 1
 190 571 l 1
 143 571 l 1
476 571 m 1
 476 619 l 1
 571 619 l 1
 571 571 l 1
 476 571 l 1
143 524 m 1
 143 571 l 1
 190 571 l 1
 190 524 l 1
 143 524 l 1
429 524 m 1
 429 571 l 1
 571 571 l 1
 571 524 l 1
 429 524 l 1
143 476 m 1
 143 524 l 1
 190 524 l 1
 190 476 l 1
 143 476 l 1
429 476 m 1
 429 524 l 1
 524 524 l 1
 524 476 l 1
 429 476 l 1
143 429 m 1
 143 476 l 1
 190 476 l 1
 190 429 l 1
 143 429 l 1
381 429 m 1
 381 476 l 1
 476 476 l 1
 476 429 l 1
 381 429 l 1
143 381 m 1
 143 429 l 1
 190 429 l 1
 190 381 l 1
 143 381 l 1
333 381 m 1
 333 429 l 1
 476 429 l 1
 476 381 l 1
 333 381 l 1
95 333 m 1
 95 381 l 1
 238 381 l 1
 238 333 l 1
 95 333 l 1
333 333 m 1
 333 381 l 1
 429 381 l 1
 429 333 l 1
 333 333 l 1
286 286 m 1
 286 333 l 1
 381 333 l 1
 381 286 l 1
 286 286 l 1
429 286 m 1
 429 333 l 1
 571 333 l 1
 571 286 l 1
 429 286 l 1
238 238 m 1
 238 286 l 1
 381 286 l 1
 381 238 l 1
 238 238 l 1
571 238 m 1
 571 286 l 1
 619 286 l 1
 619 238 l 1
 571 238 l 1
238 190 m 1
 238 238 l 1
 333 238 l 1
 333 190 l 1
 238 190 l 1
571 190 m 1
 571 238 l 1
 619 238 l 1
 619 190 l 1
 571 190 l 1
190 143 m 1
 190 190 l 1
 286 190 l 1
 286 143 l 1
 190 143 l 1
524 143 m 1
 524 190 l 1
 571 190 l 1
 571 143 l 1
 524 143 l 1
143 95 m 1
 143 143 l 1
 286 143 l 1
 286 95 l 1
 143 95 l 1
476 95 m 1
 476 143 l 1
 571 143 l 1
 571 95 l 1
 476 95 l 1
143 48 m 1
 143 95 l 1
 238 95 l 1
 238 48 l 1
 143 48 l 1
429 48 m 1
 429 95 l 1
 524 95 l 1
 524 48 l 1
 429 48 l 1
95 0 m 1
 95 48 l 1
 190 48 l 1
 190 0 l 1
 95 0 l 1
429 0 m 1
 429 48 l 1
 619 48 l 1
 619 0 l 1
 429 0 l 1
EndSplineSet
EndChar

StartChar: threequarters
Encoding: 190 190 126
Width: 524
Flags: HW
LayerCount: 2
Back
Fore
SplineSet
95 619 m 1
 95 667 l 1
 238 667 l 1
 238 619 l 1
 95 619 l 1
524 619 m 1
 524 667 l 1
 619 667 l 1
 619 619 l 1
 524 619 l 1
190 571 m 1
 190 619 l 1
 238 619 l 1
 238 571 l 1
 190 571 l 1
476 571 m 1
 476 619 l 1
 571 619 l 1
 571 571 l 1
 476 571 l 1
190 524 m 1
 190 571 l 1
 238 571 l 1
 238 524 l 1
 190 524 l 1
429 524 m 1
 429 571 l 1
 571 571 l 1
 571 524 l 1
 429 524 l 1
95 476 m 1
 95 524 l 1
 190 524 l 1
 190 476 l 1
 95 476 l 1
429 476 m 1
 429 524 l 1
 524 524 l 1
 524 476 l 1
 429 476 l 1
190 429 m 1
 190 476 l 1
 238 476 l 1
 238 429 l 1
 190 429 l 1
381 429 m 1
 381 476 l 1
 476 476 l 1
 476 429 l 1
 381 429 l 1
190 381 m 1
 190 429 l 1
 238 429 l 1
 238 381 l 1
 190 381 l 1
333 381 m 1
 333 429 l 1
 476 429 l 1
 476 381 l 1
 333 381 l 1
95 333 m 1
 95 381 l 1
 190 381 l 1
 190 333 l 1
 95 333 l 1
333 333 m 1
 333 381 l 1
 429 381 l 1
 429 333 l 1
 333 333 l 1
286 286 m 1
 286 333 l 1
 381 333 l 1
 381 286 l 1
 286 286 l 1
476 286 m 1
 476 333 l 1
 571 333 l 1
 571 286 l 1
 476 286 l 1
238 238 m 1
 238 286 l 1
 381 286 l 1
 381 238 l 1
 238 238 l 1
476 238 m 1
 476 286 l 1
 571 286 l 1
 571 238 l 1
 476 238 l 1
238 190 m 1
 238 238 l 1
 333 238 l 1
 333 190 l 1
 238 190 l 1
429 190 m 1
 429 238 l 1
 476 238 l 1
 476 190 l 1
 429 190 l 1
524 190 m 1
 524 238 l 1
 571 238 l 1
 571 190 l 1
 524 190 l 1
190 143 m 1
 190 190 l 1
 286 190 l 1
 286 143 l 1
 190 143 l 1
381 143 m 1
 381 190 l 1
 429 190 l 1
 429 143 l 1
 381 143 l 1
524 143 m 1
 524 190 l 1
 571 190 l 1
 571 143 l 1
 524 143 l 1
143 95 m 1
 143 143 l 1
 286 143 l 1
 286 95 l 1
 143 95 l 1
381 95 m 1
 381 143 l 1
 619 143 l 1
 619 95 l 1
 381 95 l 1
143 48 m 1
 143 95 l 1
 238 95 l 1
 238 48 l 1
 143 48 l 1
524 48 m 1
 524 95 l 1
 571 95 l 1
 571 48 l 1
 524 48 l 1
95 0 m 1
 95 48 l 1
 190 48 l 1
 190 0 l 1
 95 0 l 1
524 0 m 1
 524 48 l 1
 571 48 l 1
 571 0 l 1
 524 0 l 1
EndSplineSet
EndChar

StartChar: questiondown
Encoding: 191 191 127
Width: 524
Flags: HW
LayerCount: 2
Back
Fore
SplineSet
238 429 m 1
 238 476 l 1
 381 476 l 1
 381 429 l 1
 238 429 l 1
238 381 m 1
 238 429 l 1
 381 429 l 1
 381 381 l 1
 238 381 l 1
238 333 m 1
 238 381 l 1
 381 381 l 1
 381 333 l 1
 238 333 l 1
238 238 m 1
 238 286 l 1
 381 286 l 1
 381 238 l 1
 238 238 l 1
238 190 m 1
 238 238 l 1
 381 238 l 1
 381 190 l 1
 238 190 l 1
190 143 m 1
 190 190 l 1
 333 190 l 1
 333 143 l 1
 190 143 l 1
95 95 m 1
 95 143 l 1
 286 143 l 1
 286 95 l 1
 95 95 l 1
48 48 m 1
 48 95 l 1
 190 95 l 1
 190 48 l 1
 48 48 l 1
0 0 m 1
 0 48 l 1
 143 48 l 1
 143 0 l 1
 0 0 l 1
0 -48 m 1
 0 0 l 1
 143 0 l 1
 143 -48 l 1
 0 -48 l 1
381 -48 m 1
 381 0 l 1
 476 0 l 1
 476 -48 l 1
 381 -48 l 1
0 -95 m 1
 0 -48 l 1
 190 -48 l 1
 190 -95 l 1
 0 -95 l 1
381 -95 m 1
 381 -48 l 1
 476 -48 l 1
 476 -95 l 1
 381 -95 l 1
48 -143 m 1
 48 -95 l 1
 476 -95 l 1
 476 -143 l 1
 48 -143 l 1
95 -190 m 1
 95 -143 l 1
 429 -143 l 1
 429 -190 l 1
 95 -190 l 1
EndSplineSet
EndChar

StartChar: Agrave
Encoding: 192 192 128
Width: 524
Flags: HW
LayerCount: 2
Back
Fore
SplineSet
143 810 m 1
 143 857 l 1
 286 857 l 1
 286 810 l 1
 143 810 l 1
190 762 m 1
 190 810 l 1
 333 810 l 1
 333 762 l 1
 190 762 l 1
238 714 m 1
 238 762 l 1
 381 762 l 1
 381 714 l 1
 238 714 l 1
190 619 m 1
 190 667 l 1
 333 667 l 1
 333 619 l 1
 190 619 l 1
190 571 m 1
 190 619 l 1
 381 619 l 1
 381 571 l 1
 190 571 l 1
190 524 m 1
 190 571 l 1
 381 571 l 1
 381 524 l 1
 190 524 l 1
143 476 m 1
 143 524 l 1
 381 524 l 1
 381 476 l 1
 143 476 l 1
143 429 m 1
 143 476 l 1
 381 476 l 1
 381 429 l 1
 143 429 l 1
143 381 m 1
 143 429 l 1
 238 429 l 1
 238 381 l 1
 143 381 l 1
286 381 m 1
 286 429 l 1
 429 429 l 1
 429 381 l 1
 286 381 l 1
95 333 m 1
 95 381 l 1
 190 381 l 1
 190 333 l 1
 95 333 l 1
286 333 m 1
 286 381 l 1
 429 381 l 1
 429 333 l 1
 286 333 l 1
95 286 m 1
 95 333 l 1
 190 333 l 1
 190 286 l 1
 95 286 l 1
286 286 m 1
 286 333 l 1
 429 333 l 1
 429 286 l 1
 286 286 l 1
95 238 m 1
 95 286 l 1
 190 286 l 1
 190 238 l 1
 95 238 l 1
286 238 m 1
 286 286 l 1
 476 286 l 1
 476 238 l 1
 286 238 l 1
48 190 m 1
 48 238 l 1
 476 238 l 1
 476 190 l 1
 48 190 l 1
48 143 m 1
 48 190 l 1
 476 190 l 1
 476 143 l 1
 48 143 l 1
48 95 m 1
 48 143 l 1
 143 143 l 1
 143 95 l 1
 48 95 l 1
333 95 m 1
 333 143 l 1
 476 143 l 1
 476 95 l 1
 333 95 l 1
0 48 m 1
 0 95 l 1
 95 95 l 1
 95 48 l 1
 0 48 l 1
381 48 m 1
 381 95 l 1
 524 95 l 1
 524 48 l 1
 381 48 l 1
0 0 m 1
 0 48 l 1
 95 48 l 1
 95 0 l 1
 0 0 l 1
381 0 m 1
 381 48 l 1
 524 48 l 1
 524 0 l 1
 381 0 l 1
EndSplineSet
EndChar

StartChar: Aacute
Encoding: 193 193 129
Width: 524
Flags: HW
LayerCount: 2
Back
Fore
SplineSet
238 810 m 1
 238 857 l 1
 381 857 l 1
 381 810 l 1
 238 810 l 1
190 762 m 1
 190 810 l 1
 333 810 l 1
 333 762 l 1
 190 762 l 1
143 714 m 1
 143 762 l 1
 286 762 l 1
 286 714 l 1
 143 714 l 1
190 619 m 1
 190 667 l 1
 333 667 l 1
 333 619 l 1
 190 619 l 1
190 571 m 1
 190 619 l 1
 381 619 l 1
 381 571 l 1
 190 571 l 1
190 524 m 1
 190 571 l 1
 381 571 l 1
 381 524 l 1
 190 524 l 1
143 476 m 1
 143 524 l 1
 381 524 l 1
 381 476 l 1
 143 476 l 1
143 429 m 1
 143 476 l 1
 381 476 l 1
 381 429 l 1
 143 429 l 1
143 381 m 1
 143 429 l 1
 238 429 l 1
 238 381 l 1
 143 381 l 1
286 381 m 1
 286 429 l 1
 429 429 l 1
 429 381 l 1
 286 381 l 1
95 333 m 1
 95 381 l 1
 190 381 l 1
 190 333 l 1
 95 333 l 1
286 333 m 1
 286 381 l 1
 429 381 l 1
 429 333 l 1
 286 333 l 1
95 286 m 1
 95 333 l 1
 190 333 l 1
 190 286 l 1
 95 286 l 1
286 286 m 1
 286 333 l 1
 429 333 l 1
 429 286 l 1
 286 286 l 1
95 238 m 1
 95 286 l 1
 190 286 l 1
 190 238 l 1
 95 238 l 1
286 238 m 1
 286 286 l 1
 476 286 l 1
 476 238 l 1
 286 238 l 1
48 190 m 1
 48 238 l 1
 476 238 l 1
 476 190 l 1
 48 190 l 1
48 143 m 1
 48 190 l 1
 476 190 l 1
 476 143 l 1
 48 143 l 1
48 95 m 1
 48 143 l 1
 143 143 l 1
 143 95 l 1
 48 95 l 1
333 95 m 1
 333 143 l 1
 476 143 l 1
 476 95 l 1
 333 95 l 1
0 48 m 1
 0 95 l 1
 95 95 l 1
 95 48 l 1
 0 48 l 1
381 48 m 1
 381 95 l 1
 524 95 l 1
 524 48 l 1
 381 48 l 1
0 0 m 1
 0 48 l 1
 95 48 l 1
 95 0 l 1
 0 0 l 1
381 0 m 1
 381 48 l 1
 524 48 l 1
 524 0 l 1
 381 0 l 1
EndSplineSet
EndChar

StartChar: Acircumflex
Encoding: 194 194 130
Width: 524
Flags: HW
LayerCount: 2
Back
Fore
SplineSet
190 810 m 1
 190 857 l 1
 286 857 l 1
 286 810 l 1
 190 810 l 1
143 762 m 1
 143 810 l 1
 333 810 l 1
 333 762 l 1
 143 762 l 1
95 714 m 1
 95 762 l 1
 190 762 l 1
 190 714 l 1
 95 714 l 1
286 714 m 1
 286 762 l 1
 381 762 l 1
 381 714 l 1
 286 714 l 1
190 619 m 1
 190 667 l 1
 333 667 l 1
 333 619 l 1
 190 619 l 1
190 571 m 1
 190 619 l 1
 381 619 l 1
 381 571 l 1
 190 571 l 1
190 524 m 1
 190 571 l 1
 381 571 l 1
 381 524 l 1
 190 524 l 1
143 476 m 1
 143 524 l 1
 381 524 l 1
 381 476 l 1
 143 476 l 1
143 429 m 1
 143 476 l 1
 381 476 l 1
 381 429 l 1
 143 429 l 1
143 381 m 1
 143 429 l 1
 238 429 l 1
 238 381 l 1
 143 381 l 1
286 381 m 1
 286 429 l 1
 429 429 l 1
 429 381 l 1
 286 381 l 1
95 333 m 1
 95 381 l 1
 190 381 l 1
 190 333 l 1
 95 333 l 1
286 333 m 1
 286 381 l 1
 429 381 l 1
 429 333 l 1
 286 333 l 1
95 286 m 1
 95 333 l 1
 190 333 l 1
 190 286 l 1
 95 286 l 1
286 286 m 1
 286 333 l 1
 429 333 l 1
 429 286 l 1
 286 286 l 1
95 238 m 1
 95 286 l 1
 190 286 l 1
 190 238 l 1
 95 238 l 1
286 238 m 1
 286 286 l 1
 476 286 l 1
 476 238 l 1
 286 238 l 1
48 190 m 1
 48 238 l 1
 476 238 l 1
 476 190 l 1
 48 190 l 1
48 143 m 1
 48 190 l 1
 476 190 l 1
 476 143 l 1
 48 143 l 1
48 95 m 1
 48 143 l 1
 143 143 l 1
 143 95 l 1
 48 95 l 1
333 95 m 1
 333 143 l 1
 476 143 l 1
 476 95 l 1
 333 95 l 1
0 48 m 1
 0 95 l 1
 95 95 l 1
 95 48 l 1
 0 48 l 1
381 48 m 1
 381 95 l 1
 524 95 l 1
 524 48 l 1
 381 48 l 1
0 0 m 1
 0 48 l 1
 95 48 l 1
 95 0 l 1
 0 0 l 1
381 0 m 1
 381 48 l 1
 524 48 l 1
 524 0 l 1
 381 0 l 1
EndSplineSet
EndChar

StartChar: Atilde
Encoding: 195 195 131
Width: 524
Flags: HW
LayerCount: 2
Back
Fore
SplineSet
190 810 m 1
 190 857 l 1
 286 857 l 1
 286 810 l 1
 190 810 l 1
333 810 m 1
 333 857 l 1
 429 857 l 1
 429 810 l 1
 333 810 l 1
143 762 m 1
 143 810 l 1
 429 810 l 1
 429 762 l 1
 143 762 l 1
143 714 m 1
 143 762 l 1
 238 762 l 1
 238 714 l 1
 143 714 l 1
286 714 m 1
 286 762 l 1
 381 762 l 1
 381 714 l 1
 286 714 l 1
190 619 m 1
 190 667 l 1
 333 667 l 1
 333 619 l 1
 190 619 l 1
190 571 m 1
 190 619 l 1
 381 619 l 1
 381 571 l 1
 190 571 l 1
190 524 m 1
 190 571 l 1
 381 571 l 1
 381 524 l 1
 190 524 l 1
143 476 m 1
 143 524 l 1
 381 524 l 1
 381 476 l 1
 143 476 l 1
143 429 m 1
 143 476 l 1
 381 476 l 1
 381 429 l 1
 143 429 l 1
143 381 m 1
 143 429 l 1
 238 429 l 1
 238 381 l 1
 143 381 l 1
286 381 m 1
 286 429 l 1
 429 429 l 1
 429 381 l 1
 286 381 l 1
95 333 m 1
 95 381 l 1
 190 381 l 1
 190 333 l 1
 95 333 l 1
286 333 m 1
 286 381 l 1
 429 381 l 1
 429 333 l 1
 286 333 l 1
95 286 m 1
 95 333 l 1
 190 333 l 1
 190 286 l 1
 95 286 l 1
286 286 m 1
 286 333 l 1
 429 333 l 1
 429 286 l 1
 286 286 l 1
95 238 m 1
 95 286 l 1
 190 286 l 1
 190 238 l 1
 95 238 l 1
286 238 m 1
 286 286 l 1
 476 286 l 1
 476 238 l 1
 286 238 l 1
48 190 m 1
 48 238 l 1
 476 238 l 1
 476 190 l 1
 48 190 l 1
48 143 m 1
 48 190 l 1
 476 190 l 1
 476 143 l 1
 48 143 l 1
48 95 m 1
 48 143 l 1
 143 143 l 1
 143 95 l 1
 48 95 l 1
333 95 m 1
 333 143 l 1
 476 143 l 1
 476 95 l 1
 333 95 l 1
0 48 m 1
 0 95 l 1
 95 95 l 1
 95 48 l 1
 0 48 l 1
381 48 m 1
 381 95 l 1
 524 95 l 1
 524 48 l 1
 381 48 l 1
0 0 m 1
 0 48 l 1
 95 48 l 1
 95 0 l 1
 0 0 l 1
381 0 m 1
 381 48 l 1
 524 48 l 1
 524 0 l 1
 381 0 l 1
EndSplineSet
EndChar

StartChar: Adieresis
Encoding: 196 196 132
Width: 524
Flags: HW
LayerCount: 2
Back
Fore
SplineSet
143 762 m 1
 143 810 l 1
 238 810 l 1
 238 762 l 1
 143 762 l 1
286 762 m 1
 286 810 l 1
 381 810 l 1
 381 762 l 1
 286 762 l 1
143 714 m 1
 143 762 l 1
 238 762 l 1
 238 714 l 1
 143 714 l 1
286 714 m 1
 286 762 l 1
 381 762 l 1
 381 714 l 1
 286 714 l 1
190 619 m 1
 190 667 l 1
 333 667 l 1
 333 619 l 1
 190 619 l 1
190 571 m 1
 190 619 l 1
 381 619 l 1
 381 571 l 1
 190 571 l 1
190 524 m 1
 190 571 l 1
 381 571 l 1
 381 524 l 1
 190 524 l 1
143 476 m 1
 143 524 l 1
 381 524 l 1
 381 476 l 1
 143 476 l 1
143 429 m 1
 143 476 l 1
 381 476 l 1
 381 429 l 1
 143 429 l 1
143 381 m 1
 143 429 l 1
 238 429 l 1
 238 381 l 1
 143 381 l 1
286 381 m 1
 286 429 l 1
 429 429 l 1
 429 381 l 1
 286 381 l 1
95 333 m 1
 95 381 l 1
 190 381 l 1
 190 333 l 1
 95 333 l 1
286 333 m 1
 286 381 l 1
 429 381 l 1
 429 333 l 1
 286 333 l 1
95 286 m 1
 95 333 l 1
 190 333 l 1
 190 286 l 1
 95 286 l 1
286 286 m 1
 286 333 l 1
 429 333 l 1
 429 286 l 1
 286 286 l 1
95 238 m 1
 95 286 l 1
 190 286 l 1
 190 238 l 1
 95 238 l 1
286 238 m 1
 286 286 l 1
 476 286 l 1
 476 238 l 1
 286 238 l 1
48 190 m 1
 48 238 l 1
 476 238 l 1
 476 190 l 1
 48 190 l 1
48 143 m 1
 48 190 l 1
 476 190 l 1
 476 143 l 1
 48 143 l 1
48 95 m 1
 48 143 l 1
 143 143 l 1
 143 95 l 1
 48 95 l 1
333 95 m 1
 333 143 l 1
 476 143 l 1
 476 95 l 1
 333 95 l 1
0 48 m 1
 0 95 l 1
 95 95 l 1
 95 48 l 1
 0 48 l 1
381 48 m 1
 381 95 l 1
 524 95 l 1
 524 48 l 1
 381 48 l 1
0 0 m 1
 0 48 l 1
 95 48 l 1
 95 0 l 1
 0 0 l 1
381 0 m 1
 381 48 l 1
 524 48 l 1
 524 0 l 1
 381 0 l 1
EndSplineSet
EndChar

StartChar: Aring
Encoding: 197 197 133
Width: 524
Flags: HW
LayerCount: 2
Back
Fore
SplineSet
190 810 m 1
 190 857 l 1
 333 857 l 1
 333 810 l 1
 190 810 l 1
190 762 m 1
 190 810 l 1
 238 810 l 1
 238 762 l 1
 190 762 l 1
286 762 m 1
 286 810 l 1
 333 810 l 1
 333 762 l 1
 286 762 l 1
190 714 m 1
 190 762 l 1
 333 762 l 1
 333 714 l 1
 190 714 l 1
190 619 m 1
 190 667 l 1
 333 667 l 1
 333 619 l 1
 190 619 l 1
190 571 m 1
 190 619 l 1
 381 619 l 1
 381 571 l 1
 190 571 l 1
190 524 m 1
 190 571 l 1
 381 571 l 1
 381 524 l 1
 190 524 l 1
143 476 m 1
 143 524 l 1
 381 524 l 1
 381 476 l 1
 143 476 l 1
143 429 m 1
 143 476 l 1
 381 476 l 1
 381 429 l 1
 143 429 l 1
143 381 m 1
 143 429 l 1
 238 429 l 1
 238 381 l 1
 143 381 l 1
286 381 m 1
 286 429 l 1
 429 429 l 1
 429 381 l 1
 286 381 l 1
95 333 m 1
 95 381 l 1
 190 381 l 1
 190 333 l 1
 95 333 l 1
286 333 m 1
 286 381 l 1
 429 381 l 1
 429 333 l 1
 286 333 l 1
95 286 m 1
 95 333 l 1
 190 333 l 1
 190 286 l 1
 95 286 l 1
286 286 m 1
 286 333 l 1
 429 333 l 1
 429 286 l 1
 286 286 l 1
95 238 m 1
 95 286 l 1
 190 286 l 1
 190 238 l 1
 95 238 l 1
286 238 m 1
 286 286 l 1
 476 286 l 1
 476 238 l 1
 286 238 l 1
48 190 m 1
 48 238 l 1
 476 238 l 1
 476 190 l 1
 48 190 l 1
48 143 m 1
 48 190 l 1
 476 190 l 1
 476 143 l 1
 48 143 l 1
48 95 m 1
 48 143 l 1
 143 143 l 1
 143 95 l 1
 48 95 l 1
333 95 m 1
 333 143 l 1
 476 143 l 1
 476 95 l 1
 333 95 l 1
0 48 m 1
 0 95 l 1
 95 95 l 1
 95 48 l 1
 0 48 l 1
381 48 m 1
 381 95 l 1
 524 95 l 1
 524 48 l 1
 381 48 l 1
0 0 m 1
 0 48 l 1
 95 48 l 1
 95 0 l 1
 0 0 l 1
381 0 m 1
 381 48 l 1
 524 48 l 1
 524 0 l 1
 381 0 l 1
EndSplineSet
EndChar

StartChar: AE
Encoding: 198 198 134
Width: 524
Flags: HW
LayerCount: 2
Back
Fore
SplineSet
238 619 m 1
 238 667 l 1
 571 667 l 1
 571 619 l 1
 238 619 l 1
238 571 m 1
 238 619 l 1
 571 619 l 1
 571 571 l 1
 238 571 l 1
238 524 m 1
 238 571 l 1
 429 571 l 1
 429 524 l 1
 238 524 l 1
190 476 m 1
 190 524 l 1
 429 524 l 1
 429 476 l 1
 190 476 l 1
190 429 m 1
 190 476 l 1
 429 476 l 1
 429 429 l 1
 190 429 l 1
143 381 m 1
 143 429 l 1
 429 429 l 1
 429 381 l 1
 143 381 l 1
143 333 m 1
 143 381 l 1
 238 381 l 1
 238 333 l 1
 143 333 l 1
286 333 m 1
 286 381 l 1
 571 381 l 1
 571 333 l 1
 286 333 l 1
95 286 m 1
 95 333 l 1
 238 333 l 1
 238 286 l 1
 95 286 l 1
286 286 m 1
 286 333 l 1
 571 333 l 1
 571 286 l 1
 286 286 l 1
95 238 m 1
 95 286 l 1
 190 286 l 1
 190 238 l 1
 95 238 l 1
286 238 m 1
 286 286 l 1
 429 286 l 1
 429 238 l 1
 286 238 l 1
95 190 m 1
 95 238 l 1
 429 238 l 1
 429 190 l 1
 95 190 l 1
48 143 m 1
 48 190 l 1
 429 190 l 1
 429 143 l 1
 48 143 l 1
48 95 m 1
 48 143 l 1
 143 143 l 1
 143 95 l 1
 48 95 l 1
286 95 m 1
 286 143 l 1
 429 143 l 1
 429 95 l 1
 286 95 l 1
0 48 m 1
 0 95 l 1
 143 95 l 1
 143 48 l 1
 0 48 l 1
286 48 m 1
 286 95 l 1
 571 95 l 1
 571 48 l 1
 286 48 l 1
0 0 m 1
 0 48 l 1
 95 48 l 1
 95 0 l 1
 0 0 l 1
286 0 m 1
 286 48 l 1
 571 48 l 1
 571 0 l 1
 286 0 l 1
EndSplineSet
EndChar

StartChar: Ccedilla
Encoding: 199 199 135
Width: 524
Flags: HW
LayerCount: 2
Back
Fore
SplineSet
190 619 m 1
 190 667 l 1
 524 667 l 1
 524 619 l 1
 190 619 l 1
95 571 m 1
 95 619 l 1
 524 619 l 1
 524 571 l 1
 95 571 l 1
48 524 m 1
 48 571 l 1
 238 571 l 1
 238 524 l 1
 48 524 l 1
476 524 m 1
 476 571 l 1
 524 571 l 1
 524 524 l 1
 476 524 l 1
48 476 m 1
 48 524 l 1
 190 524 l 1
 190 476 l 1
 48 476 l 1
0 429 m 1
 0 476 l 1
 143 476 l 1
 143 429 l 1
 0 429 l 1
0 381 m 1
 0 429 l 1
 143 429 l 1
 143 381 l 1
 0 381 l 1
0 333 m 1
 0 381 l 1
 143 381 l 1
 143 333 l 1
 0 333 l 1
0 286 m 1
 0 333 l 1
 143 333 l 1
 143 286 l 1
 0 286 l 1
0 238 m 1
 0 286 l 1
 143 286 l 1
 143 238 l 1
 0 238 l 1
0 190 m 1
 0 238 l 1
 143 238 l 1
 143 190 l 1
 0 190 l 1
48 143 m 1
 48 190 l 1
 190 190 l 1
 190 143 l 1
 48 143 l 1
48 95 m 1
 48 143 l 1
 238 143 l 1
 238 95 l 1
 48 95 l 1
476 95 m 1
 476 143 l 1
 524 143 l 1
 524 95 l 1
 476 95 l 1
95 48 m 1
 95 95 l 1
 524 95 l 1
 524 48 l 1
 95 48 l 1
190 0 m 1
 190 48 l 1
 476 48 l 1
 476 0 l 1
 190 0 l 1
238 -48 m 1
 238 0 l 1
 286 0 l 1
 286 -48 l 1
 238 -48 l 1
190 -95 m 1
 190 -48 l 1
 381 -48 l 1
 381 -95 l 1
 190 -95 l 1
286 -143 m 1
 286 -95 l 1
 381 -95 l 1
 381 -143 l 1
 286 -143 l 1
190 -190 m 1
 190 -143 l 1
 333 -143 l 1
 333 -190 l 1
 190 -190 l 1
EndSplineSet
EndChar

StartChar: Egrave
Encoding: 200 200 136
Width: 524
Flags: HW
LayerCount: 2
Back
Fore
SplineSet
190 810 m 1
 190 857 l 1
 333 857 l 1
 333 810 l 1
 190 810 l 1
238 762 m 1
 238 810 l 1
 381 810 l 1
 381 762 l 1
 238 762 l 1
286 714 m 1
 286 762 l 1
 429 762 l 1
 429 714 l 1
 286 714 l 1
95 619 m 1
 95 667 l 1
 524 667 l 1
 524 619 l 1
 95 619 l 1
95 571 m 1
 95 619 l 1
 524 619 l 1
 524 571 l 1
 95 571 l 1
95 524 m 1
 95 571 l 1
 238 571 l 1
 238 524 l 1
 95 524 l 1
95 476 m 1
 95 524 l 1
 238 524 l 1
 238 476 l 1
 95 476 l 1
95 429 m 1
 95 476 l 1
 238 476 l 1
 238 429 l 1
 95 429 l 1
95 381 m 1
 95 429 l 1
 238 429 l 1
 238 381 l 1
 95 381 l 1
95 333 m 1
 95 381 l 1
 476 381 l 1
 476 333 l 1
 95 333 l 1
95 286 m 1
 95 333 l 1
 476 333 l 1
 476 286 l 1
 95 286 l 1
95 238 m 1
 95 286 l 1
 238 286 l 1
 238 238 l 1
 95 238 l 1
95 190 m 1
 95 238 l 1
 238 238 l 1
 238 190 l 1
 95 190 l 1
95 143 m 1
 95 190 l 1
 238 190 l 1
 238 143 l 1
 95 143 l 1
95 95 m 1
 95 143 l 1
 238 143 l 1
 238 95 l 1
 95 95 l 1
95 48 m 1
 95 95 l 1
 524 95 l 1
 524 48 l 1
 95 48 l 1
95 0 m 1
 95 48 l 1
 524 48 l 1
 524 0 l 1
 95 0 l 1
EndSplineSet
EndChar

StartChar: Eacute
Encoding: 201 201 137
Width: 524
Flags: HW
LayerCount: 2
Back
Fore
SplineSet
286 810 m 1
 286 857 l 1
 429 857 l 1
 429 810 l 1
 286 810 l 1
238 762 m 1
 238 810 l 1
 381 810 l 1
 381 762 l 1
 238 762 l 1
190 714 m 1
 190 762 l 1
 333 762 l 1
 333 714 l 1
 190 714 l 1
95 619 m 1
 95 667 l 1
 524 667 l 1
 524 619 l 1
 95 619 l 1
95 571 m 1
 95 619 l 1
 524 619 l 1
 524 571 l 1
 95 571 l 1
95 524 m 1
 95 571 l 1
 238 571 l 1
 238 524 l 1
 95 524 l 1
95 476 m 1
 95 524 l 1
 238 524 l 1
 238 476 l 1
 95 476 l 1
95 429 m 1
 95 476 l 1
 238 476 l 1
 238 429 l 1
 95 429 l 1
95 381 m 1
 95 429 l 1
 238 429 l 1
 238 381 l 1
 95 381 l 1
95 333 m 1
 95 381 l 1
 476 381 l 1
 476 333 l 1
 95 333 l 1
95 286 m 1
 95 333 l 1
 476 333 l 1
 476 286 l 1
 95 286 l 1
95 238 m 1
 95 286 l 1
 238 286 l 1
 238 238 l 1
 95 238 l 1
95 190 m 1
 95 238 l 1
 238 238 l 1
 238 190 l 1
 95 190 l 1
95 143 m 1
 95 190 l 1
 238 190 l 1
 238 143 l 1
 95 143 l 1
95 95 m 1
 95 143 l 1
 238 143 l 1
 238 95 l 1
 95 95 l 1
95 48 m 1
 95 95 l 1
 524 95 l 1
 524 48 l 1
 95 48 l 1
95 0 m 1
 95 48 l 1
 524 48 l 1
 524 0 l 1
 95 0 l 1
EndSplineSet
EndChar

StartChar: Ecircumflex
Encoding: 202 202 138
Width: 524
Flags: HW
LayerCount: 2
Back
Fore
SplineSet
286 810 m 1
 286 857 l 1
 381 857 l 1
 381 810 l 1
 286 810 l 1
238 762 m 1
 238 810 l 1
 429 810 l 1
 429 762 l 1
 238 762 l 1
190 714 m 1
 190 762 l 1
 286 762 l 1
 286 714 l 1
 190 714 l 1
381 714 m 1
 381 762 l 1
 476 762 l 1
 476 714 l 1
 381 714 l 1
95 619 m 1
 95 667 l 1
 524 667 l 1
 524 619 l 1
 95 619 l 1
95 571 m 1
 95 619 l 1
 524 619 l 1
 524 571 l 1
 95 571 l 1
95 524 m 1
 95 571 l 1
 238 571 l 1
 238 524 l 1
 95 524 l 1
95 476 m 1
 95 524 l 1
 238 524 l 1
 238 476 l 1
 95 476 l 1
95 429 m 1
 95 476 l 1
 238 476 l 1
 238 429 l 1
 95 429 l 1
95 381 m 1
 95 429 l 1
 238 429 l 1
 238 381 l 1
 95 381 l 1
95 333 m 1
 95 381 l 1
 476 381 l 1
 476 333 l 1
 95 333 l 1
95 286 m 1
 95 333 l 1
 476 333 l 1
 476 286 l 1
 95 286 l 1
95 238 m 1
 95 286 l 1
 238 286 l 1
 238 238 l 1
 95 238 l 1
95 190 m 1
 95 238 l 1
 238 238 l 1
 238 190 l 1
 95 190 l 1
95 143 m 1
 95 190 l 1
 238 190 l 1
 238 143 l 1
 95 143 l 1
95 95 m 1
 95 143 l 1
 238 143 l 1
 238 95 l 1
 95 95 l 1
95 48 m 1
 95 95 l 1
 524 95 l 1
 524 48 l 1
 95 48 l 1
95 0 m 1
 95 48 l 1
 524 48 l 1
 524 0 l 1
 95 0 l 1
EndSplineSet
EndChar

StartChar: Edieresis
Encoding: 203 203 139
Width: 524
Flags: HW
LayerCount: 2
Back
Fore
SplineSet
190 762 m 1
 190 810 l 1
 286 810 l 1
 286 762 l 1
 190 762 l 1
333 762 m 1
 333 810 l 1
 429 810 l 1
 429 762 l 1
 333 762 l 1
190 714 m 1
 190 762 l 1
 286 762 l 1
 286 714 l 1
 190 714 l 1
333 714 m 1
 333 762 l 1
 429 762 l 1
 429 714 l 1
 333 714 l 1
95 619 m 1
 95 667 l 1
 524 667 l 1
 524 619 l 1
 95 619 l 1
95 571 m 1
 95 619 l 1
 524 619 l 1
 524 571 l 1
 95 571 l 1
95 524 m 1
 95 571 l 1
 238 571 l 1
 238 524 l 1
 95 524 l 1
95 476 m 1
 95 524 l 1
 238 524 l 1
 238 476 l 1
 95 476 l 1
95 429 m 1
 95 476 l 1
 238 476 l 1
 238 429 l 1
 95 429 l 1
95 381 m 1
 95 429 l 1
 238 429 l 1
 238 381 l 1
 95 381 l 1
95 333 m 1
 95 381 l 1
 476 381 l 1
 476 333 l 1
 95 333 l 1
95 286 m 1
 95 333 l 1
 476 333 l 1
 476 286 l 1
 95 286 l 1
95 238 m 1
 95 286 l 1
 238 286 l 1
 238 238 l 1
 95 238 l 1
95 190 m 1
 95 238 l 1
 238 238 l 1
 238 190 l 1
 95 190 l 1
95 143 m 1
 95 190 l 1
 238 190 l 1
 238 143 l 1
 95 143 l 1
95 95 m 1
 95 143 l 1
 238 143 l 1
 238 95 l 1
 95 95 l 1
95 48 m 1
 95 95 l 1
 524 95 l 1
 524 48 l 1
 95 48 l 1
95 0 m 1
 95 48 l 1
 524 48 l 1
 524 0 l 1
 95 0 l 1
EndSplineSet
EndChar

StartChar: Igrave
Encoding: 204 204 140
Width: 524
Flags: HW
LayerCount: 2
Back
Fore
SplineSet
143 810 m 1
 143 857 l 1
 286 857 l 1
 286 810 l 1
 143 810 l 1
190 762 m 1
 190 810 l 1
 333 810 l 1
 333 762 l 1
 190 762 l 1
238 714 m 1
 238 762 l 1
 381 762 l 1
 381 714 l 1
 238 714 l 1
48 619 m 1
 48 667 l 1
 476 667 l 1
 476 619 l 1
 48 619 l 1
48 571 m 1
 48 619 l 1
 476 619 l 1
 476 571 l 1
 48 571 l 1
190 524 m 1
 190 571 l 1
 333 571 l 1
 333 524 l 1
 190 524 l 1
190 476 m 1
 190 524 l 1
 333 524 l 1
 333 476 l 1
 190 476 l 1
190 429 m 1
 190 476 l 1
 333 476 l 1
 333 429 l 1
 190 429 l 1
190 381 m 1
 190 429 l 1
 333 429 l 1
 333 381 l 1
 190 381 l 1
190 333 m 1
 190 381 l 1
 333 381 l 1
 333 333 l 1
 190 333 l 1
190 286 m 1
 190 333 l 1
 333 333 l 1
 333 286 l 1
 190 286 l 1
190 238 m 1
 190 286 l 1
 333 286 l 1
 333 238 l 1
 190 238 l 1
190 190 m 1
 190 238 l 1
 333 238 l 1
 333 190 l 1
 190 190 l 1
190 143 m 1
 190 190 l 1
 333 190 l 1
 333 143 l 1
 190 143 l 1
190 95 m 1
 190 143 l 1
 333 143 l 1
 333 95 l 1
 190 95 l 1
48 48 m 1
 48 95 l 1
 476 95 l 1
 476 48 l 1
 48 48 l 1
48 0 m 1
 48 48 l 1
 476 48 l 1
 476 0 l 1
 48 0 l 1
EndSplineSet
EndChar

StartChar: Iacute
Encoding: 205 205 141
Width: 524
Flags: HW
LayerCount: 2
Back
Fore
SplineSet
238 810 m 1
 238 857 l 1
 381 857 l 1
 381 810 l 1
 238 810 l 1
190 762 m 1
 190 810 l 1
 333 810 l 1
 333 762 l 1
 190 762 l 1
143 714 m 1
 143 762 l 1
 286 762 l 1
 286 714 l 1
 143 714 l 1
48 619 m 1
 48 667 l 1
 476 667 l 1
 476 619 l 1
 48 619 l 1
48 571 m 1
 48 619 l 1
 476 619 l 1
 476 571 l 1
 48 571 l 1
190 524 m 1
 190 571 l 1
 333 571 l 1
 333 524 l 1
 190 524 l 1
190 476 m 1
 190 524 l 1
 333 524 l 1
 333 476 l 1
 190 476 l 1
190 429 m 1
 190 476 l 1
 333 476 l 1
 333 429 l 1
 190 429 l 1
190 381 m 1
 190 429 l 1
 333 429 l 1
 333 381 l 1
 190 381 l 1
190 333 m 1
 190 381 l 1
 333 381 l 1
 333 333 l 1
 190 333 l 1
190 286 m 1
 190 333 l 1
 333 333 l 1
 333 286 l 1
 190 286 l 1
190 238 m 1
 190 286 l 1
 333 286 l 1
 333 238 l 1
 190 238 l 1
190 190 m 1
 190 238 l 1
 333 238 l 1
 333 190 l 1
 190 190 l 1
190 143 m 1
 190 190 l 1
 333 190 l 1
 333 143 l 1
 190 143 l 1
190 95 m 1
 190 143 l 1
 333 143 l 1
 333 95 l 1
 190 95 l 1
48 48 m 1
 48 95 l 1
 476 95 l 1
 476 48 l 1
 48 48 l 1
48 0 m 1
 48 48 l 1
 476 48 l 1
 476 0 l 1
 48 0 l 1
EndSplineSet
EndChar

StartChar: Icircumflex
Encoding: 206 206 142
Width: 524
Flags: HW
LayerCount: 2
Back
Fore
SplineSet
190 810 m 1
 190 857 l 1
 286 857 l 1
 286 810 l 1
 190 810 l 1
143 762 m 1
 143 810 l 1
 333 810 l 1
 333 762 l 1
 143 762 l 1
95 714 m 1
 95 762 l 1
 190 762 l 1
 190 714 l 1
 95 714 l 1
286 714 m 1
 286 762 l 1
 381 762 l 1
 381 714 l 1
 286 714 l 1
48 619 m 1
 48 667 l 1
 476 667 l 1
 476 619 l 1
 48 619 l 1
48 571 m 1
 48 619 l 1
 476 619 l 1
 476 571 l 1
 48 571 l 1
190 524 m 1
 190 571 l 1
 333 571 l 1
 333 524 l 1
 190 524 l 1
190 476 m 1
 190 524 l 1
 333 524 l 1
 333 476 l 1
 190 476 l 1
190 429 m 1
 190 476 l 1
 333 476 l 1
 333 429 l 1
 190 429 l 1
190 381 m 1
 190 429 l 1
 333 429 l 1
 333 381 l 1
 190 381 l 1
190 333 m 1
 190 381 l 1
 333 381 l 1
 333 333 l 1
 190 333 l 1
190 286 m 1
 190 333 l 1
 333 333 l 1
 333 286 l 1
 190 286 l 1
190 238 m 1
 190 286 l 1
 333 286 l 1
 333 238 l 1
 190 238 l 1
190 190 m 1
 190 238 l 1
 333 238 l 1
 333 190 l 1
 190 190 l 1
190 143 m 1
 190 190 l 1
 333 190 l 1
 333 143 l 1
 190 143 l 1
190 95 m 1
 190 143 l 1
 333 143 l 1
 333 95 l 1
 190 95 l 1
48 48 m 1
 48 95 l 1
 476 95 l 1
 476 48 l 1
 48 48 l 1
48 0 m 1
 48 48 l 1
 476 48 l 1
 476 0 l 1
 48 0 l 1
EndSplineSet
EndChar

StartChar: Idieresis
Encoding: 207 207 143
Width: 524
Flags: HW
LayerCount: 2
Back
Fore
SplineSet
143 762 m 1
 143 810 l 1
 238 810 l 1
 238 762 l 1
 143 762 l 1
286 762 m 1
 286 810 l 1
 381 810 l 1
 381 762 l 1
 286 762 l 1
143 714 m 1
 143 762 l 1
 238 762 l 1
 238 714 l 1
 143 714 l 1
286 714 m 1
 286 762 l 1
 381 762 l 1
 381 714 l 1
 286 714 l 1
48 619 m 1
 48 667 l 1
 476 667 l 1
 476 619 l 1
 48 619 l 1
48 571 m 1
 48 619 l 1
 476 619 l 1
 476 571 l 1
 48 571 l 1
190 524 m 1
 190 571 l 1
 333 571 l 1
 333 524 l 1
 190 524 l 1
190 476 m 1
 190 524 l 1
 333 524 l 1
 333 476 l 1
 190 476 l 1
190 429 m 1
 190 476 l 1
 333 476 l 1
 333 429 l 1
 190 429 l 1
190 381 m 1
 190 429 l 1
 333 429 l 1
 333 381 l 1
 190 381 l 1
190 333 m 1
 190 381 l 1
 333 381 l 1
 333 333 l 1
 190 333 l 1
190 286 m 1
 190 333 l 1
 333 333 l 1
 333 286 l 1
 190 286 l 1
190 238 m 1
 190 286 l 1
 333 286 l 1
 333 238 l 1
 190 238 l 1
190 190 m 1
 190 238 l 1
 333 238 l 1
 333 190 l 1
 190 190 l 1
190 143 m 1
 190 190 l 1
 333 190 l 1
 333 143 l 1
 190 143 l 1
190 95 m 1
 190 143 l 1
 333 143 l 1
 333 95 l 1
 190 95 l 1
48 48 m 1
 48 95 l 1
 476 95 l 1
 476 48 l 1
 48 48 l 1
48 0 m 1
 48 48 l 1
 476 48 l 1
 476 0 l 1
 48 0 l 1
EndSplineSet
EndChar

StartChar: Eth
Encoding: 208 208 144
Width: 524
Flags: HW
LayerCount: 2
Back
Fore
SplineSet
48 619 m 1
 48 667 l 1
 381 667 l 1
 381 619 l 1
 48 619 l 1
48 571 m 1
 48 619 l 1
 476 619 l 1
 476 571 l 1
 48 571 l 1
48 524 m 1
 48 571 l 1
 190 571 l 1
 190 524 l 1
 48 524 l 1
333 524 m 1
 333 571 l 1
 476 571 l 1
 476 524 l 1
 333 524 l 1
48 476 m 1
 48 524 l 1
 190 524 l 1
 190 476 l 1
 48 476 l 1
333 476 m 1
 333 524 l 1
 524 524 l 1
 524 476 l 1
 333 476 l 1
48 429 m 1
 48 476 l 1
 190 476 l 1
 190 429 l 1
 48 429 l 1
381 429 m 1
 381 476 l 1
 524 476 l 1
 524 429 l 1
 381 429 l 1
48 381 m 1
 48 429 l 1
 190 429 l 1
 190 381 l 1
 48 381 l 1
381 381 m 1
 381 429 l 1
 524 429 l 1
 524 381 l 1
 381 381 l 1
0 333 m 1
 0 381 l 1
 286 381 l 1
 286 333 l 1
 0 333 l 1
381 333 m 1
 381 381 l 1
 524 381 l 1
 524 333 l 1
 381 333 l 1
0 286 m 1
 0 333 l 1
 286 333 l 1
 286 286 l 1
 0 286 l 1
381 286 m 1
 381 333 l 1
 524 333 l 1
 524 286 l 1
 381 286 l 1
48 238 m 1
 48 286 l 1
 190 286 l 1
 190 238 l 1
 48 238 l 1
381 238 m 1
 381 286 l 1
 524 286 l 1
 524 238 l 1
 381 238 l 1
48 190 m 1
 48 238 l 1
 190 238 l 1
 190 190 l 1
 48 190 l 1
381 190 m 1
 381 238 l 1
 524 238 l 1
 524 190 l 1
 381 190 l 1
48 143 m 1
 48 190 l 1
 190 190 l 1
 190 143 l 1
 48 143 l 1
333 143 m 1
 333 190 l 1
 476 190 l 1
 476 143 l 1
 333 143 l 1
48 95 m 1
 48 143 l 1
 190 143 l 1
 190 95 l 1
 48 95 l 1
333 95 m 1
 333 143 l 1
 476 143 l 1
 476 95 l 1
 333 95 l 1
48 48 m 1
 48 95 l 1
 429 95 l 1
 429 48 l 1
 48 48 l 1
48 0 m 1
 48 48 l 1
 381 48 l 1
 381 0 l 1
 48 0 l 1
EndSplineSet
EndChar

StartChar: Ntilde
Encoding: 209 209 145
Width: 524
Flags: HW
LayerCount: 2
Back
Fore
SplineSet
190 810 m 1
 190 857 l 1
 286 857 l 1
 286 810 l 1
 190 810 l 1
333 810 m 1
 333 857 l 1
 429 857 l 1
 429 810 l 1
 333 810 l 1
143 762 m 1
 143 810 l 1
 429 810 l 1
 429 762 l 1
 143 762 l 1
143 714 m 1
 143 762 l 1
 238 762 l 1
 238 714 l 1
 143 714 l 1
286 714 m 1
 286 762 l 1
 381 762 l 1
 381 714 l 1
 286 714 l 1
48 619 m 1
 48 667 l 1
 190 667 l 1
 190 619 l 1
 48 619 l 1
381 619 m 1
 381 667 l 1
 476 667 l 1
 476 619 l 1
 381 619 l 1
48 571 m 1
 48 619 l 1
 238 619 l 1
 238 571 l 1
 48 571 l 1
381 571 m 1
 381 619 l 1
 476 619 l 1
 476 571 l 1
 381 571 l 1
48 524 m 1
 48 571 l 1
 238 571 l 1
 238 524 l 1
 48 524 l 1
381 524 m 1
 381 571 l 1
 476 571 l 1
 476 524 l 1
 381 524 l 1
48 476 m 1
 48 524 l 1
 286 524 l 1
 286 476 l 1
 48 476 l 1
381 476 m 1
 381 524 l 1
 476 524 l 1
 476 476 l 1
 381 476 l 1
48 429 m 1
 48 476 l 1
 286 476 l 1
 286 429 l 1
 48 429 l 1
381 429 m 1
 381 476 l 1
 476 476 l 1
 476 429 l 1
 381 429 l 1
48 381 m 1
 48 429 l 1
 333 429 l 1
 333 381 l 1
 48 381 l 1
381 381 m 1
 381 429 l 1
 476 429 l 1
 476 381 l 1
 381 381 l 1
48 333 m 1
 48 381 l 1
 143 381 l 1
 143 333 l 1
 48 333 l 1
190 333 m 1
 190 381 l 1
 333 381 l 1
 333 333 l 1
 190 333 l 1
381 333 m 1
 381 381 l 1
 476 381 l 1
 476 333 l 1
 381 333 l 1
48 286 m 1
 48 333 l 1
 143 333 l 1
 143 286 l 1
 48 286 l 1
190 286 m 1
 190 333 l 1
 333 333 l 1
 333 286 l 1
 190 286 l 1
381 286 m 1
 381 333 l 1
 476 333 l 1
 476 286 l 1
 381 286 l 1
48 238 m 1
 48 286 l 1
 143 286 l 1
 143 238 l 1
 48 238 l 1
238 238 m 1
 238 286 l 1
 476 286 l 1
 476 238 l 1
 238 238 l 1
48 190 m 1
 48 238 l 1
 143 238 l 1
 143 190 l 1
 48 190 l 1
238 190 m 1
 238 238 l 1
 476 238 l 1
 476 190 l 1
 238 190 l 1
48 143 m 1
 48 190 l 1
 143 190 l 1
 143 143 l 1
 48 143 l 1
286 143 m 1
 286 190 l 1
 476 190 l 1
 476 143 l 1
 286 143 l 1
48 95 m 1
 48 143 l 1
 143 143 l 1
 143 95 l 1
 48 95 l 1
286 95 m 1
 286 143 l 1
 476 143 l 1
 476 95 l 1
 286 95 l 1
48 48 m 1
 48 95 l 1
 143 95 l 1
 143 48 l 1
 48 48 l 1
333 48 m 1
 333 95 l 1
 476 95 l 1
 476 48 l 1
 333 48 l 1
48 0 m 1
 48 48 l 1
 143 48 l 1
 143 0 l 1
 48 0 l 1
333 0 m 1
 333 48 l 1
 476 48 l 1
 476 0 l 1
 333 0 l 1
EndSplineSet
EndChar

StartChar: Ograve
Encoding: 210 210 146
Width: 524
Flags: HW
LayerCount: 2
Back
Fore
SplineSet
143 810 m 1
 143 857 l 1
 286 857 l 1
 286 810 l 1
 143 810 l 1
190 762 m 1
 190 810 l 1
 333 810 l 1
 333 762 l 1
 190 762 l 1
238 714 m 1
 238 762 l 1
 381 762 l 1
 381 714 l 1
 238 714 l 1
143 619 m 1
 143 667 l 1
 381 667 l 1
 381 619 l 1
 143 619 l 1
95 571 m 1
 95 619 l 1
 429 619 l 1
 429 571 l 1
 95 571 l 1
48 524 m 1
 48 571 l 1
 190 571 l 1
 190 524 l 1
 48 524 l 1
333 524 m 1
 333 571 l 1
 476 571 l 1
 476 524 l 1
 333 524 l 1
48 476 m 1
 48 524 l 1
 143 524 l 1
 143 476 l 1
 48 476 l 1
381 476 m 1
 381 524 l 1
 476 524 l 1
 476 476 l 1
 381 476 l 1
0 429 m 1
 0 476 l 1
 143 476 l 1
 143 429 l 1
 0 429 l 1
381 429 m 1
 381 476 l 1
 524 476 l 1
 524 429 l 1
 381 429 l 1
0 381 m 1
 0 429 l 1
 143 429 l 1
 143 381 l 1
 0 381 l 1
381 381 m 1
 381 429 l 1
 524 429 l 1
 524 381 l 1
 381 381 l 1
0 333 m 1
 0 381 l 1
 143 381 l 1
 143 333 l 1
 0 333 l 1
381 333 m 1
 381 381 l 1
 524 381 l 1
 524 333 l 1
 381 333 l 1
0 286 m 1
 0 333 l 1
 143 333 l 1
 143 286 l 1
 0 286 l 1
381 286 m 1
 381 333 l 1
 524 333 l 1
 524 286 l 1
 381 286 l 1
0 238 m 1
 0 286 l 1
 143 286 l 1
 143 238 l 1
 0 238 l 1
381 238 m 1
 381 286 l 1
 524 286 l 1
 524 238 l 1
 381 238 l 1
0 190 m 1
 0 238 l 1
 143 238 l 1
 143 190 l 1
 0 190 l 1
381 190 m 1
 381 238 l 1
 524 238 l 1
 524 190 l 1
 381 190 l 1
48 143 m 1
 48 190 l 1
 143 190 l 1
 143 143 l 1
 48 143 l 1
381 143 m 1
 381 190 l 1
 476 190 l 1
 476 143 l 1
 381 143 l 1
48 95 m 1
 48 143 l 1
 190 143 l 1
 190 95 l 1
 48 95 l 1
333 95 m 1
 333 143 l 1
 476 143 l 1
 476 95 l 1
 333 95 l 1
95 48 m 1
 95 95 l 1
 429 95 l 1
 429 48 l 1
 95 48 l 1
143 0 m 1
 143 48 l 1
 381 48 l 1
 381 0 l 1
 143 0 l 1
EndSplineSet
EndChar

StartChar: Oacute
Encoding: 211 211 147
Width: 524
Flags: HW
LayerCount: 2
Back
Fore
SplineSet
238 810 m 1
 238 857 l 1
 381 857 l 1
 381 810 l 1
 238 810 l 1
190 762 m 1
 190 810 l 1
 333 810 l 1
 333 762 l 1
 190 762 l 1
143 714 m 1
 143 762 l 1
 286 762 l 1
 286 714 l 1
 143 714 l 1
143 619 m 1
 143 667 l 1
 381 667 l 1
 381 619 l 1
 143 619 l 1
95 571 m 1
 95 619 l 1
 429 619 l 1
 429 571 l 1
 95 571 l 1
48 524 m 1
 48 571 l 1
 190 571 l 1
 190 524 l 1
 48 524 l 1
333 524 m 1
 333 571 l 1
 476 571 l 1
 476 524 l 1
 333 524 l 1
48 476 m 1
 48 524 l 1
 143 524 l 1
 143 476 l 1
 48 476 l 1
381 476 m 1
 381 524 l 1
 476 524 l 1
 476 476 l 1
 381 476 l 1
0 429 m 1
 0 476 l 1
 143 476 l 1
 143 429 l 1
 0 429 l 1
381 429 m 1
 381 476 l 1
 524 476 l 1
 524 429 l 1
 381 429 l 1
0 381 m 1
 0 429 l 1
 143 429 l 1
 143 381 l 1
 0 381 l 1
381 381 m 1
 381 429 l 1
 524 429 l 1
 524 381 l 1
 381 381 l 1
0 333 m 1
 0 381 l 1
 143 381 l 1
 143 333 l 1
 0 333 l 1
381 333 m 1
 381 381 l 1
 524 381 l 1
 524 333 l 1
 381 333 l 1
0 286 m 1
 0 333 l 1
 143 333 l 1
 143 286 l 1
 0 286 l 1
381 286 m 1
 381 333 l 1
 524 333 l 1
 524 286 l 1
 381 286 l 1
0 238 m 1
 0 286 l 1
 143 286 l 1
 143 238 l 1
 0 238 l 1
381 238 m 1
 381 286 l 1
 524 286 l 1
 524 238 l 1
 381 238 l 1
0 190 m 1
 0 238 l 1
 143 238 l 1
 143 190 l 1
 0 190 l 1
381 190 m 1
 381 238 l 1
 524 238 l 1
 524 190 l 1
 381 190 l 1
48 143 m 1
 48 190 l 1
 143 190 l 1
 143 143 l 1
 48 143 l 1
381 143 m 1
 381 190 l 1
 476 190 l 1
 476 143 l 1
 381 143 l 1
48 95 m 1
 48 143 l 1
 190 143 l 1
 190 95 l 1
 48 95 l 1
333 95 m 1
 333 143 l 1
 476 143 l 1
 476 95 l 1
 333 95 l 1
95 48 m 1
 95 95 l 1
 429 95 l 1
 429 48 l 1
 95 48 l 1
143 0 m 1
 143 48 l 1
 381 48 l 1
 381 0 l 1
 143 0 l 1
EndSplineSet
EndChar

StartChar: Ocircumflex
Encoding: 212 212 148
Width: 524
Flags: HW
LayerCount: 2
Back
Fore
SplineSet
190 810 m 1
 190 857 l 1
 286 857 l 1
 286 810 l 1
 190 810 l 1
143 762 m 1
 143 810 l 1
 333 810 l 1
 333 762 l 1
 143 762 l 1
95 714 m 1
 95 762 l 1
 190 762 l 1
 190 714 l 1
 95 714 l 1
286 714 m 1
 286 762 l 1
 381 762 l 1
 381 714 l 1
 286 714 l 1
143 619 m 1
 143 667 l 1
 381 667 l 1
 381 619 l 1
 143 619 l 1
95 571 m 1
 95 619 l 1
 429 619 l 1
 429 571 l 1
 95 571 l 1
48 524 m 1
 48 571 l 1
 190 571 l 1
 190 524 l 1
 48 524 l 1
333 524 m 1
 333 571 l 1
 476 571 l 1
 476 524 l 1
 333 524 l 1
48 476 m 1
 48 524 l 1
 143 524 l 1
 143 476 l 1
 48 476 l 1
381 476 m 1
 381 524 l 1
 476 524 l 1
 476 476 l 1
 381 476 l 1
0 429 m 1
 0 476 l 1
 143 476 l 1
 143 429 l 1
 0 429 l 1
381 429 m 1
 381 476 l 1
 524 476 l 1
 524 429 l 1
 381 429 l 1
0 381 m 1
 0 429 l 1
 143 429 l 1
 143 381 l 1
 0 381 l 1
381 381 m 1
 381 429 l 1
 524 429 l 1
 524 381 l 1
 381 381 l 1
0 333 m 1
 0 381 l 1
 143 381 l 1
 143 333 l 1
 0 333 l 1
381 333 m 1
 381 381 l 1
 524 381 l 1
 524 333 l 1
 381 333 l 1
0 286 m 1
 0 333 l 1
 143 333 l 1
 143 286 l 1
 0 286 l 1
381 286 m 1
 381 333 l 1
 524 333 l 1
 524 286 l 1
 381 286 l 1
0 238 m 1
 0 286 l 1
 143 286 l 1
 143 238 l 1
 0 238 l 1
381 238 m 1
 381 286 l 1
 524 286 l 1
 524 238 l 1
 381 238 l 1
0 190 m 1
 0 238 l 1
 143 238 l 1
 143 190 l 1
 0 190 l 1
381 190 m 1
 381 238 l 1
 524 238 l 1
 524 190 l 1
 381 190 l 1
48 143 m 1
 48 190 l 1
 143 190 l 1
 143 143 l 1
 48 143 l 1
381 143 m 1
 381 190 l 1
 476 190 l 1
 476 143 l 1
 381 143 l 1
48 95 m 1
 48 143 l 1
 190 143 l 1
 190 95 l 1
 48 95 l 1
333 95 m 1
 333 143 l 1
 476 143 l 1
 476 95 l 1
 333 95 l 1
95 48 m 1
 95 95 l 1
 429 95 l 1
 429 48 l 1
 95 48 l 1
143 0 m 1
 143 48 l 1
 381 48 l 1
 381 0 l 1
 143 0 l 1
EndSplineSet
EndChar

StartChar: Otilde
Encoding: 213 213 149
Width: 524
Flags: HW
LayerCount: 2
Back
Fore
SplineSet
143 810 m 1
 143 857 l 1
 238 857 l 1
 238 810 l 1
 143 810 l 1
286 810 m 1
 286 857 l 1
 381 857 l 1
 381 810 l 1
 286 810 l 1
95 762 m 1
 95 810 l 1
 381 810 l 1
 381 762 l 1
 95 762 l 1
95 714 m 1
 95 762 l 1
 190 762 l 1
 190 714 l 1
 95 714 l 1
238 714 m 1
 238 762 l 1
 333 762 l 1
 333 714 l 1
 238 714 l 1
143 619 m 1
 143 667 l 1
 381 667 l 1
 381 619 l 1
 143 619 l 1
95 571 m 1
 95 619 l 1
 429 619 l 1
 429 571 l 1
 95 571 l 1
48 524 m 1
 48 571 l 1
 190 571 l 1
 190 524 l 1
 48 524 l 1
333 524 m 1
 333 571 l 1
 476 571 l 1
 476 524 l 1
 333 524 l 1
48 476 m 1
 48 524 l 1
 143 524 l 1
 143 476 l 1
 48 476 l 1
381 476 m 1
 381 524 l 1
 476 524 l 1
 476 476 l 1
 381 476 l 1
0 429 m 1
 0 476 l 1
 143 476 l 1
 143 429 l 1
 0 429 l 1
381 429 m 1
 381 476 l 1
 524 476 l 1
 524 429 l 1
 381 429 l 1
0 381 m 1
 0 429 l 1
 143 429 l 1
 143 381 l 1
 0 381 l 1
381 381 m 1
 381 429 l 1
 524 429 l 1
 524 381 l 1
 381 381 l 1
0 333 m 1
 0 381 l 1
 143 381 l 1
 143 333 l 1
 0 333 l 1
381 333 m 1
 381 381 l 1
 524 381 l 1
 524 333 l 1
 381 333 l 1
0 286 m 1
 0 333 l 1
 143 333 l 1
 143 286 l 1
 0 286 l 1
381 286 m 1
 381 333 l 1
 524 333 l 1
 524 286 l 1
 381 286 l 1
0 238 m 1
 0 286 l 1
 143 286 l 1
 143 238 l 1
 0 238 l 1
381 238 m 1
 381 286 l 1
 524 286 l 1
 524 238 l 1
 381 238 l 1
0 190 m 1
 0 238 l 1
 143 238 l 1
 143 190 l 1
 0 190 l 1
381 190 m 1
 381 238 l 1
 524 238 l 1
 524 190 l 1
 381 190 l 1
48 143 m 1
 48 190 l 1
 143 190 l 1
 143 143 l 1
 48 143 l 1
381 143 m 1
 381 190 l 1
 476 190 l 1
 476 143 l 1
 381 143 l 1
48 95 m 1
 48 143 l 1
 190 143 l 1
 190 95 l 1
 48 95 l 1
333 95 m 1
 333 143 l 1
 476 143 l 1
 476 95 l 1
 333 95 l 1
95 48 m 1
 95 95 l 1
 429 95 l 1
 429 48 l 1
 95 48 l 1
143 0 m 1
 143 48 l 1
 381 48 l 1
 381 0 l 1
 143 0 l 1
EndSplineSet
EndChar

StartChar: Odieresis
Encoding: 214 214 150
Width: 524
Flags: HW
LayerCount: 2
Back
Fore
SplineSet
143 762 m 1
 143 810 l 1
 238 810 l 1
 238 762 l 1
 143 762 l 1
286 762 m 1
 286 810 l 1
 381 810 l 1
 381 762 l 1
 286 762 l 1
143 714 m 1
 143 762 l 1
 238 762 l 1
 238 714 l 1
 143 714 l 1
286 714 m 1
 286 762 l 1
 381 762 l 1
 381 714 l 1
 286 714 l 1
143 619 m 1
 143 667 l 1
 381 667 l 1
 381 619 l 1
 143 619 l 1
95 571 m 1
 95 619 l 1
 429 619 l 1
 429 571 l 1
 95 571 l 1
48 524 m 1
 48 571 l 1
 190 571 l 1
 190 524 l 1
 48 524 l 1
333 524 m 1
 333 571 l 1
 476 571 l 1
 476 524 l 1
 333 524 l 1
48 476 m 1
 48 524 l 1
 143 524 l 1
 143 476 l 1
 48 476 l 1
381 476 m 1
 381 524 l 1
 476 524 l 1
 476 476 l 1
 381 476 l 1
0 429 m 1
 0 476 l 1
 143 476 l 1
 143 429 l 1
 0 429 l 1
381 429 m 1
 381 476 l 1
 524 476 l 1
 524 429 l 1
 381 429 l 1
0 381 m 1
 0 429 l 1
 143 429 l 1
 143 381 l 1
 0 381 l 1
381 381 m 1
 381 429 l 1
 524 429 l 1
 524 381 l 1
 381 381 l 1
0 333 m 1
 0 381 l 1
 143 381 l 1
 143 333 l 1
 0 333 l 1
381 333 m 1
 381 381 l 1
 524 381 l 1
 524 333 l 1
 381 333 l 1
0 286 m 1
 0 333 l 1
 143 333 l 1
 143 286 l 1
 0 286 l 1
381 286 m 1
 381 333 l 1
 524 333 l 1
 524 286 l 1
 381 286 l 1
0 238 m 1
 0 286 l 1
 143 286 l 1
 143 238 l 1
 0 238 l 1
381 238 m 1
 381 286 l 1
 524 286 l 1
 524 238 l 1
 381 238 l 1
0 190 m 1
 0 238 l 1
 143 238 l 1
 143 190 l 1
 0 190 l 1
381 190 m 1
 381 238 l 1
 524 238 l 1
 524 190 l 1
 381 190 l 1
48 143 m 1
 48 190 l 1
 143 190 l 1
 143 143 l 1
 48 143 l 1
381 143 m 1
 381 190 l 1
 476 190 l 1
 476 143 l 1
 381 143 l 1
48 95 m 1
 48 143 l 1
 190 143 l 1
 190 95 l 1
 48 95 l 1
333 95 m 1
 333 143 l 1
 476 143 l 1
 476 95 l 1
 333 95 l 1
95 48 m 1
 95 95 l 1
 429 95 l 1
 429 48 l 1
 95 48 l 1
143 0 m 1
 143 48 l 1
 381 48 l 1
 381 0 l 1
 143 0 l 1
EndSplineSet
EndChar

StartChar: multiply
Encoding: 215 215 151
Width: 524
Flags: HW
LayerCount: 2
Back
Fore
SplineSet
95 429 m 1
 95 476 l 1
 143 476 l 1
 143 429 l 1
 95 429 l 1
429 429 m 1
 429 476 l 1
 476 476 l 1
 476 429 l 1
 429 429 l 1
48 381 m 1
 48 429 l 1
 190 429 l 1
 190 381 l 1
 48 381 l 1
381 381 m 1
 381 429 l 1
 524 429 l 1
 524 381 l 1
 381 381 l 1
95 333 m 1
 95 381 l 1
 238 381 l 1
 238 333 l 1
 95 333 l 1
333 333 m 1
 333 381 l 1
 476 381 l 1
 476 333 l 1
 333 333 l 1
143 286 m 1
 143 333 l 1
 429 333 l 1
 429 286 l 1
 143 286 l 1
190 238 m 1
 190 286 l 1
 381 286 l 1
 381 238 l 1
 190 238 l 1
190 190 m 1
 190 238 l 1
 381 238 l 1
 381 190 l 1
 190 190 l 1
143 143 m 1
 143 190 l 1
 429 190 l 1
 429 143 l 1
 143 143 l 1
95 95 m 1
 95 143 l 1
 238 143 l 1
 238 95 l 1
 95 95 l 1
333 95 m 1
 333 143 l 1
 476 143 l 1
 476 95 l 1
 333 95 l 1
48 48 m 1
 48 95 l 1
 190 95 l 1
 190 48 l 1
 48 48 l 1
381 48 m 1
 381 95 l 1
 524 95 l 1
 524 48 l 1
 381 48 l 1
95 0 m 1
 95 48 l 1
 143 48 l 1
 143 0 l 1
 95 0 l 1
429 0 m 1
 429 48 l 1
 476 48 l 1
 476 0 l 1
 429 0 l 1
EndSplineSet
EndChar

StartChar: Oslash
Encoding: 216 216 152
Width: 524
Flags: HW
LayerCount: 2
Back
Fore
SplineSet
143 619 m 1
 143 667 l 1
 381 667 l 1
 381 619 l 1
 143 619 l 1
429 619 m 1
 429 667 l 1
 524 667 l 1
 524 619 l 1
 429 619 l 1
95 571 m 1
 95 619 l 1
 476 619 l 1
 476 571 l 1
 95 571 l 1
48 524 m 1
 48 571 l 1
 190 571 l 1
 190 524 l 1
 48 524 l 1
333 524 m 1
 333 571 l 1
 476 571 l 1
 476 524 l 1
 333 524 l 1
48 476 m 1
 48 524 l 1
 143 524 l 1
 143 476 l 1
 48 476 l 1
333 476 m 1
 333 524 l 1
 476 524 l 1
 476 476 l 1
 333 476 l 1
0 429 m 1
 0 476 l 1
 143 476 l 1
 143 429 l 1
 0 429 l 1
286 429 m 1
 286 476 l 1
 524 476 l 1
 524 429 l 1
 286 429 l 1
0 381 m 1
 0 429 l 1
 143 429 l 1
 143 381 l 1
 0 381 l 1
238 381 m 1
 238 429 l 1
 524 429 l 1
 524 381 l 1
 238 381 l 1
0 333 m 1
 0 381 l 1
 143 381 l 1
 143 333 l 1
 0 333 l 1
238 333 m 1
 238 381 l 1
 333 381 l 1
 333 333 l 1
 238 333 l 1
381 333 m 1
 381 381 l 1
 524 381 l 1
 524 333 l 1
 381 333 l 1
0 286 m 1
 0 333 l 1
 143 333 l 1
 143 286 l 1
 0 286 l 1
190 286 m 1
 190 333 l 1
 286 333 l 1
 286 286 l 1
 190 286 l 1
381 286 m 1
 381 333 l 1
 524 333 l 1
 524 286 l 1
 381 286 l 1
0 238 m 1
 0 286 l 1
 286 286 l 1
 286 238 l 1
 0 238 l 1
381 238 m 1
 381 286 l 1
 524 286 l 1
 524 238 l 1
 381 238 l 1
0 190 m 1
 0 238 l 1
 238 238 l 1
 238 190 l 1
 0 190 l 1
381 190 m 1
 381 238 l 1
 524 238 l 1
 524 190 l 1
 381 190 l 1
48 143 m 1
 48 190 l 1
 190 190 l 1
 190 143 l 1
 48 143 l 1
381 143 m 1
 381 190 l 1
 476 190 l 1
 476 143 l 1
 381 143 l 1
48 95 m 1
 48 143 l 1
 190 143 l 1
 190 95 l 1
 48 95 l 1
333 95 m 1
 333 143 l 1
 476 143 l 1
 476 95 l 1
 333 95 l 1
48 48 m 1
 48 95 l 1
 429 95 l 1
 429 48 l 1
 48 48 l 1
0 0 m 1
 0 48 l 1
 95 48 l 1
 95 0 l 1
 0 0 l 1
143 0 m 1
 143 48 l 1
 381 48 l 1
 381 0 l 1
 143 0 l 1
EndSplineSet
EndChar

StartChar: Ugrave
Encoding: 217 217 153
Width: 524
Flags: HW
LayerCount: 2
Back
Fore
SplineSet
143 810 m 1
 143 857 l 1
 286 857 l 1
 286 810 l 1
 143 810 l 1
190 762 m 1
 190 810 l 1
 333 810 l 1
 333 762 l 1
 190 762 l 1
238 714 m 1
 238 762 l 1
 381 762 l 1
 381 714 l 1
 238 714 l 1
48 619 m 1
 48 667 l 1
 190 667 l 1
 190 619 l 1
 48 619 l 1
333 619 m 1
 333 667 l 1
 476 667 l 1
 476 619 l 1
 333 619 l 1
48 571 m 1
 48 619 l 1
 190 619 l 1
 190 571 l 1
 48 571 l 1
333 571 m 1
 333 619 l 1
 476 619 l 1
 476 571 l 1
 333 571 l 1
48 524 m 1
 48 571 l 1
 190 571 l 1
 190 524 l 1
 48 524 l 1
333 524 m 1
 333 571 l 1
 476 571 l 1
 476 524 l 1
 333 524 l 1
48 476 m 1
 48 524 l 1
 190 524 l 1
 190 476 l 1
 48 476 l 1
333 476 m 1
 333 524 l 1
 476 524 l 1
 476 476 l 1
 333 476 l 1
48 429 m 1
 48 476 l 1
 190 476 l 1
 190 429 l 1
 48 429 l 1
333 429 m 1
 333 476 l 1
 476 476 l 1
 476 429 l 1
 333 429 l 1
48 381 m 1
 48 429 l 1
 190 429 l 1
 190 381 l 1
 48 381 l 1
333 381 m 1
 333 429 l 1
 476 429 l 1
 476 381 l 1
 333 381 l 1
48 333 m 1
 48 381 l 1
 190 381 l 1
 190 333 l 1
 48 333 l 1
333 333 m 1
 333 381 l 1
 476 381 l 1
 476 333 l 1
 333 333 l 1
48 286 m 1
 48 333 l 1
 190 333 l 1
 190 286 l 1
 48 286 l 1
333 286 m 1
 333 333 l 1
 476 333 l 1
 476 286 l 1
 333 286 l 1
48 238 m 1
 48 286 l 1
 190 286 l 1
 190 238 l 1
 48 238 l 1
333 238 m 1
 333 286 l 1
 476 286 l 1
 476 238 l 1
 333 238 l 1
48 190 m 1
 48 238 l 1
 190 238 l 1
 190 190 l 1
 48 190 l 1
333 190 m 1
 333 238 l 1
 476 238 l 1
 476 190 l 1
 333 190 l 1
48 143 m 1
 48 190 l 1
 190 190 l 1
 190 143 l 1
 48 143 l 1
333 143 m 1
 333 190 l 1
 476 190 l 1
 476 143 l 1
 333 143 l 1
48 95 m 1
 48 143 l 1
 190 143 l 1
 190 95 l 1
 48 95 l 1
333 95 m 1
 333 143 l 1
 476 143 l 1
 476 95 l 1
 333 95 l 1
95 48 m 1
 95 95 l 1
 429 95 l 1
 429 48 l 1
 95 48 l 1
143 0 m 1
 143 48 l 1
 381 48 l 1
 381 0 l 1
 143 0 l 1
EndSplineSet
EndChar

StartChar: Uacute
Encoding: 218 218 154
Width: 524
Flags: HW
LayerCount: 2
Back
Fore
SplineSet
238 810 m 1
 238 857 l 1
 381 857 l 1
 381 810 l 1
 238 810 l 1
190 762 m 1
 190 810 l 1
 333 810 l 1
 333 762 l 1
 190 762 l 1
143 714 m 1
 143 762 l 1
 286 762 l 1
 286 714 l 1
 143 714 l 1
48 619 m 1
 48 667 l 1
 190 667 l 1
 190 619 l 1
 48 619 l 1
333 619 m 1
 333 667 l 1
 476 667 l 1
 476 619 l 1
 333 619 l 1
48 571 m 1
 48 619 l 1
 190 619 l 1
 190 571 l 1
 48 571 l 1
333 571 m 1
 333 619 l 1
 476 619 l 1
 476 571 l 1
 333 571 l 1
48 524 m 1
 48 571 l 1
 190 571 l 1
 190 524 l 1
 48 524 l 1
333 524 m 1
 333 571 l 1
 476 571 l 1
 476 524 l 1
 333 524 l 1
48 476 m 1
 48 524 l 1
 190 524 l 1
 190 476 l 1
 48 476 l 1
333 476 m 1
 333 524 l 1
 476 524 l 1
 476 476 l 1
 333 476 l 1
48 429 m 1
 48 476 l 1
 190 476 l 1
 190 429 l 1
 48 429 l 1
333 429 m 1
 333 476 l 1
 476 476 l 1
 476 429 l 1
 333 429 l 1
48 381 m 1
 48 429 l 1
 190 429 l 1
 190 381 l 1
 48 381 l 1
333 381 m 1
 333 429 l 1
 476 429 l 1
 476 381 l 1
 333 381 l 1
48 333 m 1
 48 381 l 1
 190 381 l 1
 190 333 l 1
 48 333 l 1
333 333 m 1
 333 381 l 1
 476 381 l 1
 476 333 l 1
 333 333 l 1
48 286 m 1
 48 333 l 1
 190 333 l 1
 190 286 l 1
 48 286 l 1
333 286 m 1
 333 333 l 1
 476 333 l 1
 476 286 l 1
 333 286 l 1
48 238 m 1
 48 286 l 1
 190 286 l 1
 190 238 l 1
 48 238 l 1
333 238 m 1
 333 286 l 1
 476 286 l 1
 476 238 l 1
 333 238 l 1
48 190 m 1
 48 238 l 1
 190 238 l 1
 190 190 l 1
 48 190 l 1
333 190 m 1
 333 238 l 1
 476 238 l 1
 476 190 l 1
 333 190 l 1
48 143 m 1
 48 190 l 1
 190 190 l 1
 190 143 l 1
 48 143 l 1
333 143 m 1
 333 190 l 1
 476 190 l 1
 476 143 l 1
 333 143 l 1
48 95 m 1
 48 143 l 1
 190 143 l 1
 190 95 l 1
 48 95 l 1
333 95 m 1
 333 143 l 1
 476 143 l 1
 476 95 l 1
 333 95 l 1
95 48 m 1
 95 95 l 1
 429 95 l 1
 429 48 l 1
 95 48 l 1
143 0 m 1
 143 48 l 1
 381 48 l 1
 381 0 l 1
 143 0 l 1
EndSplineSet
EndChar

StartChar: Ucircumflex
Encoding: 219 219 155
Width: 524
Flags: HW
LayerCount: 2
Back
Fore
SplineSet
190 810 m 1
 190 857 l 1
 286 857 l 1
 286 810 l 1
 190 810 l 1
143 762 m 1
 143 810 l 1
 333 810 l 1
 333 762 l 1
 143 762 l 1
95 714 m 1
 95 762 l 1
 190 762 l 1
 190 714 l 1
 95 714 l 1
286 714 m 1
 286 762 l 1
 381 762 l 1
 381 714 l 1
 286 714 l 1
48 619 m 1
 48 667 l 1
 190 667 l 1
 190 619 l 1
 48 619 l 1
333 619 m 1
 333 667 l 1
 476 667 l 1
 476 619 l 1
 333 619 l 1
48 571 m 1
 48 619 l 1
 190 619 l 1
 190 571 l 1
 48 571 l 1
333 571 m 1
 333 619 l 1
 476 619 l 1
 476 571 l 1
 333 571 l 1
48 524 m 1
 48 571 l 1
 190 571 l 1
 190 524 l 1
 48 524 l 1
333 524 m 1
 333 571 l 1
 476 571 l 1
 476 524 l 1
 333 524 l 1
48 476 m 1
 48 524 l 1
 190 524 l 1
 190 476 l 1
 48 476 l 1
333 476 m 1
 333 524 l 1
 476 524 l 1
 476 476 l 1
 333 476 l 1
48 429 m 1
 48 476 l 1
 190 476 l 1
 190 429 l 1
 48 429 l 1
333 429 m 1
 333 476 l 1
 476 476 l 1
 476 429 l 1
 333 429 l 1
48 381 m 1
 48 429 l 1
 190 429 l 1
 190 381 l 1
 48 381 l 1
333 381 m 1
 333 429 l 1
 476 429 l 1
 476 381 l 1
 333 381 l 1
48 333 m 1
 48 381 l 1
 190 381 l 1
 190 333 l 1
 48 333 l 1
333 333 m 1
 333 381 l 1
 476 381 l 1
 476 333 l 1
 333 333 l 1
48 286 m 1
 48 333 l 1
 190 333 l 1
 190 286 l 1
 48 286 l 1
333 286 m 1
 333 333 l 1
 476 333 l 1
 476 286 l 1
 333 286 l 1
48 238 m 1
 48 286 l 1
 190 286 l 1
 190 238 l 1
 48 238 l 1
333 238 m 1
 333 286 l 1
 476 286 l 1
 476 238 l 1
 333 238 l 1
48 190 m 1
 48 238 l 1
 190 238 l 1
 190 190 l 1
 48 190 l 1
333 190 m 1
 333 238 l 1
 476 238 l 1
 476 190 l 1
 333 190 l 1
48 143 m 1
 48 190 l 1
 190 190 l 1
 190 143 l 1
 48 143 l 1
333 143 m 1
 333 190 l 1
 476 190 l 1
 476 143 l 1
 333 143 l 1
48 95 m 1
 48 143 l 1
 190 143 l 1
 190 95 l 1
 48 95 l 1
333 95 m 1
 333 143 l 1
 476 143 l 1
 476 95 l 1
 333 95 l 1
95 48 m 1
 95 95 l 1
 429 95 l 1
 429 48 l 1
 95 48 l 1
143 0 m 1
 143 48 l 1
 381 48 l 1
 381 0 l 1
 143 0 l 1
EndSplineSet
EndChar

StartChar: Udieresis
Encoding: 220 220 156
Width: 524
Flags: HW
LayerCount: 2
Back
Fore
SplineSet
143 762 m 1
 143 810 l 1
 238 810 l 1
 238 762 l 1
 143 762 l 1
286 762 m 1
 286 810 l 1
 381 810 l 1
 381 762 l 1
 286 762 l 1
143 714 m 1
 143 762 l 1
 238 762 l 1
 238 714 l 1
 143 714 l 1
286 714 m 1
 286 762 l 1
 381 762 l 1
 381 714 l 1
 286 714 l 1
48 619 m 1
 48 667 l 1
 190 667 l 1
 190 619 l 1
 48 619 l 1
333 619 m 1
 333 667 l 1
 476 667 l 1
 476 619 l 1
 333 619 l 1
48 571 m 1
 48 619 l 1
 190 619 l 1
 190 571 l 1
 48 571 l 1
333 571 m 1
 333 619 l 1
 476 619 l 1
 476 571 l 1
 333 571 l 1
48 524 m 1
 48 571 l 1
 190 571 l 1
 190 524 l 1
 48 524 l 1
333 524 m 1
 333 571 l 1
 476 571 l 1
 476 524 l 1
 333 524 l 1
48 476 m 1
 48 524 l 1
 190 524 l 1
 190 476 l 1
 48 476 l 1
333 476 m 1
 333 524 l 1
 476 524 l 1
 476 476 l 1
 333 476 l 1
48 429 m 1
 48 476 l 1
 190 476 l 1
 190 429 l 1
 48 429 l 1
333 429 m 1
 333 476 l 1
 476 476 l 1
 476 429 l 1
 333 429 l 1
48 381 m 1
 48 429 l 1
 190 429 l 1
 190 381 l 1
 48 381 l 1
333 381 m 1
 333 429 l 1
 476 429 l 1
 476 381 l 1
 333 381 l 1
48 333 m 1
 48 381 l 1
 190 381 l 1
 190 333 l 1
 48 333 l 1
333 333 m 1
 333 381 l 1
 476 381 l 1
 476 333 l 1
 333 333 l 1
48 286 m 1
 48 333 l 1
 190 333 l 1
 190 286 l 1
 48 286 l 1
333 286 m 1
 333 333 l 1
 476 333 l 1
 476 286 l 1
 333 286 l 1
48 238 m 1
 48 286 l 1
 190 286 l 1
 190 238 l 1
 48 238 l 1
333 238 m 1
 333 286 l 1
 476 286 l 1
 476 238 l 1
 333 238 l 1
48 190 m 1
 48 238 l 1
 190 238 l 1
 190 190 l 1
 48 190 l 1
333 190 m 1
 333 238 l 1
 476 238 l 1
 476 190 l 1
 333 190 l 1
48 143 m 1
 48 190 l 1
 190 190 l 1
 190 143 l 1
 48 143 l 1
333 143 m 1
 333 190 l 1
 476 190 l 1
 476 143 l 1
 333 143 l 1
48 95 m 1
 48 143 l 1
 190 143 l 1
 190 95 l 1
 48 95 l 1
333 95 m 1
 333 143 l 1
 476 143 l 1
 476 95 l 1
 333 95 l 1
95 48 m 1
 95 95 l 1
 429 95 l 1
 429 48 l 1
 95 48 l 1
143 0 m 1
 143 48 l 1
 381 48 l 1
 381 0 l 1
 143 0 l 1
EndSplineSet
EndChar

StartChar: Yacute
Encoding: 221 221 157
Width: 524
Flags: HW
LayerCount: 2
Back
Fore
SplineSet
238 810 m 1
 238 857 l 1
 381 857 l 1
 381 810 l 1
 238 810 l 1
190 762 m 1
 190 810 l 1
 333 810 l 1
 333 762 l 1
 190 762 l 1
143 714 m 1
 143 762 l 1
 286 762 l 1
 286 714 l 1
 143 714 l 1
0 619 m 1
 0 667 l 1
 143 667 l 1
 143 619 l 1
 0 619 l 1
429 619 m 1
 429 667 l 1
 524 667 l 1
 524 619 l 1
 429 619 l 1
48 571 m 1
 48 619 l 1
 190 619 l 1
 190 571 l 1
 48 571 l 1
381 571 m 1
 381 619 l 1
 476 619 l 1
 476 571 l 1
 381 571 l 1
48 524 m 1
 48 571 l 1
 190 571 l 1
 190 524 l 1
 48 524 l 1
381 524 m 1
 381 571 l 1
 476 571 l 1
 476 524 l 1
 381 524 l 1
95 476 m 1
 95 524 l 1
 238 524 l 1
 238 476 l 1
 95 476 l 1
333 476 m 1
 333 524 l 1
 429 524 l 1
 429 476 l 1
 333 476 l 1
95 429 m 1
 95 476 l 1
 238 476 l 1
 238 429 l 1
 95 429 l 1
333 429 m 1
 333 476 l 1
 429 476 l 1
 429 429 l 1
 333 429 l 1
143 381 m 1
 143 429 l 1
 381 429 l 1
 381 381 l 1
 143 381 l 1
143 333 m 1
 143 381 l 1
 381 381 l 1
 381 333 l 1
 143 333 l 1
190 286 m 1
 190 333 l 1
 333 333 l 1
 333 286 l 1
 190 286 l 1
190 238 m 1
 190 286 l 1
 333 286 l 1
 333 238 l 1
 190 238 l 1
190 190 m 1
 190 238 l 1
 333 238 l 1
 333 190 l 1
 190 190 l 1
190 143 m 1
 190 190 l 1
 333 190 l 1
 333 143 l 1
 190 143 l 1
190 95 m 1
 190 143 l 1
 333 143 l 1
 333 95 l 1
 190 95 l 1
190 48 m 1
 190 95 l 1
 333 95 l 1
 333 48 l 1
 190 48 l 1
190 0 m 1
 190 48 l 1
 333 48 l 1
 333 0 l 1
 190 0 l 1
EndSplineSet
EndChar

StartChar: Thorn
Encoding: 222 222 158
Width: 524
Flags: HW
LayerCount: 2
Back
Fore
SplineSet
48 619 m 1
 48 667 l 1
 190 667 l 1
 190 619 l 1
 48 619 l 1
48 571 m 1
 48 619 l 1
 190 619 l 1
 190 571 l 1
 48 571 l 1
48 524 m 1
 48 571 l 1
 429 571 l 1
 429 524 l 1
 48 524 l 1
48 476 m 1
 48 524 l 1
 476 524 l 1
 476 476 l 1
 48 476 l 1
48 429 m 1
 48 476 l 1
 190 476 l 1
 190 429 l 1
 48 429 l 1
381 429 m 1
 381 476 l 1
 524 476 l 1
 524 429 l 1
 381 429 l 1
48 381 m 1
 48 429 l 1
 190 429 l 1
 190 381 l 1
 48 381 l 1
381 381 m 1
 381 429 l 1
 524 429 l 1
 524 381 l 1
 381 381 l 1
48 333 m 1
 48 381 l 1
 190 381 l 1
 190 333 l 1
 48 333 l 1
381 333 m 1
 381 381 l 1
 524 381 l 1
 524 333 l 1
 381 333 l 1
48 286 m 1
 48 333 l 1
 190 333 l 1
 190 286 l 1
 48 286 l 1
381 286 m 1
 381 333 l 1
 524 333 l 1
 524 286 l 1
 381 286 l 1
48 238 m 1
 48 286 l 1
 190 286 l 1
 190 238 l 1
 48 238 l 1
333 238 m 1
 333 286 l 1
 524 286 l 1
 524 238 l 1
 333 238 l 1
48 190 m 1
 48 238 l 1
 476 238 l 1
 476 190 l 1
 48 190 l 1
48 143 m 1
 48 190 l 1
 429 190 l 1
 429 143 l 1
 48 143 l 1
48 95 m 1
 48 143 l 1
 190 143 l 1
 190 95 l 1
 48 95 l 1
48 48 m 1
 48 95 l 1
 190 95 l 1
 190 48 l 1
 48 48 l 1
48 0 m 1
 48 48 l 1
 190 48 l 1
 190 0 l 1
 48 0 l 1
EndSplineSet
EndChar

StartChar: germandbls
Encoding: 223 223 159
Width: 524
Flags: HW
LayerCount: 2
Back
Fore
SplineSet
143 619 m 1
 143 667 l 1
 381 667 l 1
 381 619 l 1
 143 619 l 1
95 571 m 1
 95 619 l 1
 429 619 l 1
 429 571 l 1
 95 571 l 1
48 524 m 1
 48 571 l 1
 190 571 l 1
 190 524 l 1
 48 524 l 1
286 524 m 1
 286 571 l 1
 429 571 l 1
 429 524 l 1
 286 524 l 1
48 476 m 1
 48 524 l 1
 190 524 l 1
 190 476 l 1
 48 476 l 1
286 476 m 1
 286 524 l 1
 429 524 l 1
 429 476 l 1
 286 476 l 1
48 429 m 1
 48 476 l 1
 190 476 l 1
 190 429 l 1
 48 429 l 1
286 429 m 1
 286 476 l 1
 381 476 l 1
 381 429 l 1
 286 429 l 1
48 381 m 1
 48 429 l 1
 190 429 l 1
 190 381 l 1
 48 381 l 1
238 381 m 1
 238 429 l 1
 381 429 l 1
 381 381 l 1
 238 381 l 1
48 333 m 1
 48 381 l 1
 190 381 l 1
 190 333 l 1
 48 333 l 1
238 333 m 1
 238 381 l 1
 381 381 l 1
 381 333 l 1
 238 333 l 1
48 286 m 1
 48 333 l 1
 190 333 l 1
 190 286 l 1
 48 286 l 1
238 286 m 1
 238 333 l 1
 429 333 l 1
 429 286 l 1
 238 286 l 1
48 238 m 1
 48 286 l 1
 190 286 l 1
 190 238 l 1
 48 238 l 1
286 238 m 1
 286 286 l 1
 476 286 l 1
 476 238 l 1
 286 238 l 1
48 190 m 1
 48 238 l 1
 190 238 l 1
 190 190 l 1
 48 190 l 1
333 190 m 1
 333 238 l 1
 524 238 l 1
 524 190 l 1
 333 190 l 1
48 143 m 1
 48 190 l 1
 190 190 l 1
 190 143 l 1
 48 143 l 1
381 143 m 1
 381 190 l 1
 524 190 l 1
 524 143 l 1
 381 143 l 1
48 95 m 1
 48 143 l 1
 190 143 l 1
 190 95 l 1
 48 95 l 1
238 95 m 1
 238 143 l 1
 286 143 l 1
 286 95 l 1
 238 95 l 1
381 95 m 1
 381 143 l 1
 524 143 l 1
 524 95 l 1
 381 95 l 1
48 48 m 1
 48 95 l 1
 190 95 l 1
 190 48 l 1
 48 48 l 1
238 48 m 1
 238 95 l 1
 524 95 l 1
 524 48 l 1
 238 48 l 1
48 0 m 1
 48 48 l 1
 190 48 l 1
 190 0 l 1
 48 0 l 1
238 0 m 1
 238 48 l 1
 476 48 l 1
 476 0 l 1
 238 0 l 1
EndSplineSet
EndChar

StartChar: agrave
Encoding: 224 224 160
Width: 524
Flags: HW
LayerCount: 2
Back
Fore
SplineSet
143 619 m 1
 143 667 l 1
 286 667 l 1
 286 619 l 1
 143 619 l 1
190 571 m 1
 190 619 l 1
 333 619 l 1
 333 571 l 1
 190 571 l 1
238 524 m 1
 238 571 l 1
 381 571 l 1
 381 524 l 1
 238 524 l 1
143 429 m 1
 143 476 l 1
 429 476 l 1
 429 429 l 1
 143 429 l 1
95 381 m 1
 95 429 l 1
 476 429 l 1
 476 381 l 1
 95 381 l 1
95 333 m 1
 95 381 l 1
 143 381 l 1
 143 333 l 1
 95 333 l 1
286 333 m 1
 286 381 l 1
 476 381 l 1
 476 333 l 1
 286 333 l 1
333 286 m 1
 333 333 l 1
 476 333 l 1
 476 286 l 1
 333 286 l 1
143 238 m 1
 143 286 l 1
 476 286 l 1
 476 238 l 1
 143 238 l 1
48 190 m 1
 48 238 l 1
 476 238 l 1
 476 190 l 1
 48 190 l 1
48 143 m 1
 48 190 l 1
 190 190 l 1
 190 143 l 1
 48 143 l 1
333 143 m 1
 333 190 l 1
 476 190 l 1
 476 143 l 1
 333 143 l 1
48 95 m 1
 48 143 l 1
 190 143 l 1
 190 95 l 1
 48 95 l 1
333 95 m 1
 333 143 l 1
 476 143 l 1
 476 95 l 1
 333 95 l 1
48 48 m 1
 48 95 l 1
 524 95 l 1
 524 48 l 1
 48 48 l 1
95 0 m 1
 95 48 l 1
 286 48 l 1
 286 0 l 1
 95 0 l 1
381 0 m 1
 381 48 l 1
 524 48 l 1
 524 0 l 1
 381 0 l 1
EndSplineSet
EndChar

StartChar: aacute
Encoding: 225 225 161
Width: 524
Flags: HW
LayerCount: 2
Back
Fore
SplineSet
238 619 m 1
 238 667 l 1
 381 667 l 1
 381 619 l 1
 238 619 l 1
190 571 m 1
 190 619 l 1
 333 619 l 1
 333 571 l 1
 190 571 l 1
143 524 m 1
 143 571 l 1
 286 571 l 1
 286 524 l 1
 143 524 l 1
143 429 m 1
 143 476 l 1
 429 476 l 1
 429 429 l 1
 143 429 l 1
95 381 m 1
 95 429 l 1
 476 429 l 1
 476 381 l 1
 95 381 l 1
95 333 m 1
 95 381 l 1
 143 381 l 1
 143 333 l 1
 95 333 l 1
286 333 m 1
 286 381 l 1
 476 381 l 1
 476 333 l 1
 286 333 l 1
333 286 m 1
 333 333 l 1
 476 333 l 1
 476 286 l 1
 333 286 l 1
143 238 m 1
 143 286 l 1
 476 286 l 1
 476 238 l 1
 143 238 l 1
48 190 m 1
 48 238 l 1
 476 238 l 1
 476 190 l 1
 48 190 l 1
48 143 m 1
 48 190 l 1
 190 190 l 1
 190 143 l 1
 48 143 l 1
333 143 m 1
 333 190 l 1
 476 190 l 1
 476 143 l 1
 333 143 l 1
48 95 m 1
 48 143 l 1
 190 143 l 1
 190 95 l 1
 48 95 l 1
333 95 m 1
 333 143 l 1
 476 143 l 1
 476 95 l 1
 333 95 l 1
48 48 m 1
 48 95 l 1
 524 95 l 1
 524 48 l 1
 48 48 l 1
95 0 m 1
 95 48 l 1
 286 48 l 1
 286 0 l 1
 95 0 l 1
381 0 m 1
 381 48 l 1
 524 48 l 1
 524 0 l 1
 381 0 l 1
EndSplineSet
EndChar

StartChar: acircumflex
Encoding: 226 226 162
Width: 524
Flags: HW
LayerCount: 2
Back
Fore
SplineSet
238 619 m 1
 238 667 l 1
 333 667 l 1
 333 619 l 1
 238 619 l 1
190 571 m 1
 190 619 l 1
 381 619 l 1
 381 571 l 1
 190 571 l 1
143 524 m 1
 143 571 l 1
 238 571 l 1
 238 524 l 1
 143 524 l 1
333 524 m 1
 333 571 l 1
 429 571 l 1
 429 524 l 1
 333 524 l 1
143 429 m 1
 143 476 l 1
 429 476 l 1
 429 429 l 1
 143 429 l 1
95 381 m 1
 95 429 l 1
 476 429 l 1
 476 381 l 1
 95 381 l 1
95 333 m 1
 95 381 l 1
 143 381 l 1
 143 333 l 1
 95 333 l 1
286 333 m 1
 286 381 l 1
 476 381 l 1
 476 333 l 1
 286 333 l 1
333 286 m 1
 333 333 l 1
 476 333 l 1
 476 286 l 1
 333 286 l 1
143 238 m 1
 143 286 l 1
 476 286 l 1
 476 238 l 1
 143 238 l 1
48 190 m 1
 48 238 l 1
 476 238 l 1
 476 190 l 1
 48 190 l 1
48 143 m 1
 48 190 l 1
 190 190 l 1
 190 143 l 1
 48 143 l 1
333 143 m 1
 333 190 l 1
 476 190 l 1
 476 143 l 1
 333 143 l 1
48 95 m 1
 48 143 l 1
 190 143 l 1
 190 95 l 1
 48 95 l 1
333 95 m 1
 333 143 l 1
 476 143 l 1
 476 95 l 1
 333 95 l 1
48 48 m 1
 48 95 l 1
 524 95 l 1
 524 48 l 1
 48 48 l 1
95 0 m 1
 95 48 l 1
 286 48 l 1
 286 0 l 1
 95 0 l 1
381 0 m 1
 381 48 l 1
 524 48 l 1
 524 0 l 1
 381 0 l 1
EndSplineSet
EndChar

StartChar: atilde
Encoding: 227 227 163
Width: 524
Flags: HW
LayerCount: 2
Back
Fore
SplineSet
190 619 m 1
 190 667 l 1
 286 667 l 1
 286 619 l 1
 190 619 l 1
333 619 m 1
 333 667 l 1
 429 667 l 1
 429 619 l 1
 333 619 l 1
143 571 m 1
 143 619 l 1
 429 619 l 1
 429 571 l 1
 143 571 l 1
143 524 m 1
 143 571 l 1
 238 571 l 1
 238 524 l 1
 143 524 l 1
286 524 m 1
 286 571 l 1
 381 571 l 1
 381 524 l 1
 286 524 l 1
143 429 m 1
 143 476 l 1
 429 476 l 1
 429 429 l 1
 143 429 l 1
95 381 m 1
 95 429 l 1
 476 429 l 1
 476 381 l 1
 95 381 l 1
95 333 m 1
 95 381 l 1
 143 381 l 1
 143 333 l 1
 95 333 l 1
286 333 m 1
 286 381 l 1
 476 381 l 1
 476 333 l 1
 286 333 l 1
333 286 m 1
 333 333 l 1
 476 333 l 1
 476 286 l 1
 333 286 l 1
143 238 m 1
 143 286 l 1
 476 286 l 1
 476 238 l 1
 143 238 l 1
48 190 m 1
 48 238 l 1
 476 238 l 1
 476 190 l 1
 48 190 l 1
48 143 m 1
 48 190 l 1
 190 190 l 1
 190 143 l 1
 48 143 l 1
333 143 m 1
 333 190 l 1
 476 190 l 1
 476 143 l 1
 333 143 l 1
48 95 m 1
 48 143 l 1
 190 143 l 1
 190 95 l 1
 48 95 l 1
333 95 m 1
 333 143 l 1
 476 143 l 1
 476 95 l 1
 333 95 l 1
48 48 m 1
 48 95 l 1
 524 95 l 1
 524 48 l 1
 48 48 l 1
95 0 m 1
 95 48 l 1
 286 48 l 1
 286 0 l 1
 95 0 l 1
381 0 m 1
 381 48 l 1
 524 48 l 1
 524 0 l 1
 381 0 l 1
EndSplineSet
EndChar

StartChar: adieresis
Encoding: 228 228 164
Width: 524
Flags: HW
LayerCount: 2
Back
Fore
SplineSet
143 571 m 1
 143 619 l 1
 238 619 l 1
 238 571 l 1
 143 571 l 1
286 571 m 1
 286 619 l 1
 381 619 l 1
 381 571 l 1
 286 571 l 1
143 524 m 1
 143 571 l 1
 238 571 l 1
 238 524 l 1
 143 524 l 1
286 524 m 1
 286 571 l 1
 381 571 l 1
 381 524 l 1
 286 524 l 1
143 429 m 1
 143 476 l 1
 429 476 l 1
 429 429 l 1
 143 429 l 1
95 381 m 1
 95 429 l 1
 476 429 l 1
 476 381 l 1
 95 381 l 1
95 333 m 1
 95 381 l 1
 143 381 l 1
 143 333 l 1
 95 333 l 1
286 333 m 1
 286 381 l 1
 476 381 l 1
 476 333 l 1
 286 333 l 1
333 286 m 1
 333 333 l 1
 476 333 l 1
 476 286 l 1
 333 286 l 1
143 238 m 1
 143 286 l 1
 476 286 l 1
 476 238 l 1
 143 238 l 1
48 190 m 1
 48 238 l 1
 476 238 l 1
 476 190 l 1
 48 190 l 1
48 143 m 1
 48 190 l 1
 190 190 l 1
 190 143 l 1
 48 143 l 1
333 143 m 1
 333 190 l 1
 476 190 l 1
 476 143 l 1
 333 143 l 1
48 95 m 1
 48 143 l 1
 190 143 l 1
 190 95 l 1
 48 95 l 1
333 95 m 1
 333 143 l 1
 476 143 l 1
 476 95 l 1
 333 95 l 1
48 48 m 1
 48 95 l 1
 524 95 l 1
 524 48 l 1
 48 48 l 1
95 0 m 1
 95 48 l 1
 286 48 l 1
 286 0 l 1
 95 0 l 1
381 0 m 1
 381 48 l 1
 524 48 l 1
 524 0 l 1
 381 0 l 1
EndSplineSet
EndChar

StartChar: aring
Encoding: 229 229 165
Width: 524
Flags: HW
LayerCount: 2
Back
Fore
SplineSet
190 619 m 1
 190 667 l 1
 333 667 l 1
 333 619 l 1
 190 619 l 1
190 571 m 1
 190 619 l 1
 238 619 l 1
 238 571 l 1
 190 571 l 1
286 571 m 1
 286 619 l 1
 333 619 l 1
 333 571 l 1
 286 571 l 1
190 524 m 1
 190 571 l 1
 333 571 l 1
 333 524 l 1
 190 524 l 1
143 429 m 1
 143 476 l 1
 429 476 l 1
 429 429 l 1
 143 429 l 1
95 381 m 1
 95 429 l 1
 476 429 l 1
 476 381 l 1
 95 381 l 1
95 333 m 1
 95 381 l 1
 143 381 l 1
 143 333 l 1
 95 333 l 1
286 333 m 1
 286 381 l 1
 476 381 l 1
 476 333 l 1
 286 333 l 1
333 286 m 1
 333 333 l 1
 476 333 l 1
 476 286 l 1
 333 286 l 1
143 238 m 1
 143 286 l 1
 476 286 l 1
 476 238 l 1
 143 238 l 1
48 190 m 1
 48 238 l 1
 476 238 l 1
 476 190 l 1
 48 190 l 1
48 143 m 1
 48 190 l 1
 190 190 l 1
 190 143 l 1
 48 143 l 1
333 143 m 1
 333 190 l 1
 476 190 l 1
 476 143 l 1
 333 143 l 1
48 95 m 1
 48 143 l 1
 190 143 l 1
 190 95 l 1
 48 95 l 1
333 95 m 1
 333 143 l 1
 476 143 l 1
 476 95 l 1
 333 95 l 1
48 48 m 1
 48 95 l 1
 524 95 l 1
 524 48 l 1
 48 48 l 1
95 0 m 1
 95 48 l 1
 286 48 l 1
 286 0 l 1
 95 0 l 1
381 0 m 1
 381 48 l 1
 524 48 l 1
 524 0 l 1
 381 0 l 1
EndSplineSet
EndChar

StartChar: ae
Encoding: 230 230 166
Width: 524
Flags: HW
LayerCount: 2
Back
Fore
SplineSet
95 429 m 1
 95 476 l 1
 286 476 l 1
 286 429 l 1
 95 429 l 1
333 429 m 1
 333 476 l 1
 476 476 l 1
 476 429 l 1
 333 429 l 1
95 381 m 1
 95 429 l 1
 476 429 l 1
 476 381 l 1
 95 381 l 1
95 333 m 1
 95 381 l 1
 143 381 l 1
 143 333 l 1
 95 333 l 1
238 333 m 1
 238 381 l 1
 333 381 l 1
 333 333 l 1
 238 333 l 1
381 333 m 1
 381 381 l 1
 524 381 l 1
 524 333 l 1
 381 333 l 1
238 286 m 1
 238 333 l 1
 333 333 l 1
 333 286 l 1
 238 286 l 1
381 286 m 1
 381 333 l 1
 524 333 l 1
 524 286 l 1
 381 286 l 1
95 238 m 1
 95 286 l 1
 524 286 l 1
 524 238 l 1
 95 238 l 1
48 190 m 1
 48 238 l 1
 524 238 l 1
 524 190 l 1
 48 190 l 1
48 143 m 1
 48 190 l 1
 190 190 l 1
 190 143 l 1
 48 143 l 1
238 143 m 1
 238 190 l 1
 333 190 l 1
 333 143 l 1
 238 143 l 1
48 95 m 1
 48 143 l 1
 190 143 l 1
 190 95 l 1
 48 95 l 1
238 95 m 1
 238 143 l 1
 333 143 l 1
 333 95 l 1
 238 95 l 1
476 95 m 1
 476 143 l 1
 524 143 l 1
 524 95 l 1
 476 95 l 1
48 48 m 1
 48 95 l 1
 524 95 l 1
 524 48 l 1
 48 48 l 1
95 0 m 1
 95 48 l 1
 238 48 l 1
 238 0 l 1
 95 0 l 1
333 0 m 1
 333 48 l 1
 476 48 l 1
 476 0 l 1
 333 0 l 1
EndSplineSet
EndChar

StartChar: ccedilla
Encoding: 231 231 167
Width: 524
Flags: HW
LayerCount: 2
Back
Fore
SplineSet
190 429 m 1
 190 476 l 1
 524 476 l 1
 524 429 l 1
 190 429 l 1
95 381 m 1
 95 429 l 1
 524 429 l 1
 524 381 l 1
 95 381 l 1
95 333 m 1
 95 381 l 1
 238 381 l 1
 238 333 l 1
 95 333 l 1
476 333 m 1
 476 381 l 1
 524 381 l 1
 524 333 l 1
 476 333 l 1
48 286 m 1
 48 333 l 1
 190 333 l 1
 190 286 l 1
 48 286 l 1
48 238 m 1
 48 286 l 1
 190 286 l 1
 190 238 l 1
 48 238 l 1
48 190 m 1
 48 238 l 1
 190 238 l 1
 190 190 l 1
 48 190 l 1
48 143 m 1
 48 190 l 1
 190 190 l 1
 190 143 l 1
 48 143 l 1
95 95 m 1
 95 143 l 1
 286 143 l 1
 286 95 l 1
 95 95 l 1
143 48 m 1
 143 95 l 1
 524 95 l 1
 524 48 l 1
 143 48 l 1
190 0 m 1
 190 48 l 1
 524 48 l 1
 524 0 l 1
 190 0 l 1
238 -48 m 1
 238 0 l 1
 286 0 l 1
 286 -48 l 1
 238 -48 l 1
190 -95 m 1
 190 -48 l 1
 381 -48 l 1
 381 -95 l 1
 190 -95 l 1
286 -143 m 1
 286 -95 l 1
 381 -95 l 1
 381 -143 l 1
 286 -143 l 1
190 -190 m 1
 190 -143 l 1
 333 -143 l 1
 333 -190 l 1
 190 -190 l 1
EndSplineSet
EndChar

